G04 #@! TF.GenerationSoftware,KiCad,Pcbnew,(5.1.2)-1*
G04 #@! TF.CreationDate,2019-06-26T23:30:15+01:00*
G04 #@! TF.ProjectId,Real Raw Avocato cut,5265616c-2052-4617-9720-41766f636174,rev?*
G04 #@! TF.SameCoordinates,Original*
G04 #@! TF.FileFunction,Soldermask,Bot*
G04 #@! TF.FilePolarity,Negative*
%FSLAX46Y46*%
G04 Gerber Fmt 4.6, Leading zero omitted, Abs format (unit mm)*
G04 Created by KiCad (PCBNEW (5.1.2)-1) date 2019-06-26 23:30:15*
%MOMM*%
%LPD*%
G04 APERTURE LIST*
%ADD10C,0.100000*%
G04 APERTURE END LIST*
D10*
G36*
X155829000Y-101142800D02*
G01*
X154457400Y-101142800D01*
X154457400Y-99364800D01*
X155829000Y-99364800D01*
X155829000Y-101142800D01*
G37*
X155829000Y-101142800D02*
X154457400Y-101142800D01*
X154457400Y-99364800D01*
X155829000Y-99364800D01*
X155829000Y-101142800D01*
G36*
X153060400Y-98653600D02*
G01*
X151688800Y-98653600D01*
X151688800Y-96850200D01*
X153060400Y-96850200D01*
X153060400Y-98653600D01*
G37*
X153060400Y-98653600D02*
X151688800Y-98653600D01*
X151688800Y-96850200D01*
X153060400Y-96850200D01*
X153060400Y-98653600D01*
G36*
X157099000Y-94945200D02*
G01*
X155829000Y-96215200D01*
X154863800Y-95250000D01*
X156133800Y-94005400D01*
X157099000Y-94945200D01*
G37*
X157099000Y-94945200D02*
X155829000Y-96215200D01*
X154863800Y-95250000D01*
X156133800Y-94005400D01*
X157099000Y-94945200D01*
G36*
X158648400Y-93370400D02*
G01*
X157378400Y-94615000D01*
X156387800Y-93675200D01*
X157657800Y-92405200D01*
X158648400Y-93370400D01*
G37*
X158648400Y-93370400D02*
X157378400Y-94615000D01*
X156387800Y-93675200D01*
X157657800Y-92405200D01*
X158648400Y-93370400D01*
G36*
X160401000Y-91008200D02*
G01*
X159232600Y-92405200D01*
X158191200Y-91516200D01*
X159359600Y-90144600D01*
X160401000Y-91008200D01*
G37*
X160401000Y-91008200D02*
X159232600Y-92405200D01*
X158191200Y-91516200D01*
X159359600Y-90144600D01*
X160401000Y-91008200D01*
G36*
X162636200Y-95885000D02*
G01*
X160832800Y-95885000D01*
X160832800Y-94513400D01*
X162636200Y-94513400D01*
X162636200Y-95885000D01*
G37*
X162636200Y-95885000D02*
X160832800Y-95885000D01*
X160832800Y-94513400D01*
X162636200Y-94513400D01*
X162636200Y-95885000D01*
G36*
X161975800Y-99822000D02*
G01*
X161315400Y-101015800D01*
X159740600Y-100101400D01*
X160401000Y-98907600D01*
X161975800Y-99822000D01*
G37*
X161975800Y-99822000D02*
X161315400Y-101015800D01*
X159740600Y-100101400D01*
X160401000Y-98907600D01*
X161975800Y-99822000D01*
G36*
X158064200Y-103555800D02*
G01*
X156794200Y-104013000D01*
X156159200Y-102336600D01*
X157454600Y-101879400D01*
X158064200Y-103555800D01*
G37*
X158064200Y-103555800D02*
X156794200Y-104013000D01*
X156159200Y-102336600D01*
X157454600Y-101879400D01*
X158064200Y-103555800D01*
G36*
X153441400Y-102057200D02*
G01*
X152552400Y-103606600D01*
X151384000Y-102920800D01*
X152247600Y-101371400D01*
X153441400Y-102057200D01*
G37*
X153441400Y-102057200D02*
X152552400Y-103606600D01*
X151384000Y-102920800D01*
X152247600Y-101371400D01*
X153441400Y-102057200D01*
G36*
X150190200Y-99288600D02*
G01*
X148488400Y-99923600D01*
X148031200Y-98628200D01*
X149733000Y-97993200D01*
X150190200Y-99288600D01*
G37*
X150190200Y-99288600D02*
X148488400Y-99923600D01*
X148031200Y-98628200D01*
X149733000Y-97993200D01*
X150190200Y-99288600D01*
G36*
X150495000Y-93954600D02*
G01*
X150114000Y-95275400D01*
X148386800Y-94818200D01*
X148742400Y-93497400D01*
X150495000Y-93954600D01*
G37*
X150495000Y-93954600D02*
X150114000Y-95275400D01*
X148386800Y-94818200D01*
X148742400Y-93497400D01*
X150495000Y-93954600D01*
G36*
X152222200Y-91821000D02*
G01*
X150850600Y-91821000D01*
X150850600Y-90043000D01*
X152222200Y-90043000D01*
X152222200Y-91821000D01*
G37*
X152222200Y-91821000D02*
X150850600Y-91821000D01*
X150850600Y-90043000D01*
X152222200Y-90043000D01*
X152222200Y-91821000D01*
G36*
X120116600Y-100482400D02*
G01*
X118745000Y-100482400D01*
X118745000Y-98653600D01*
X120116600Y-98653600D01*
X120116600Y-100482400D01*
G37*
X120116600Y-100482400D02*
X118745000Y-100482400D01*
X118745000Y-98653600D01*
X120116600Y-98653600D01*
X120116600Y-100482400D01*
G36*
X117322600Y-97739200D02*
G01*
X115951000Y-97739200D01*
X115951000Y-95885000D01*
X117322600Y-95885000D01*
X117322600Y-97739200D01*
G37*
X117322600Y-97739200D02*
X115951000Y-97739200D01*
X115951000Y-95885000D01*
X117322600Y-95885000D01*
X117322600Y-97739200D01*
G36*
X121843800Y-93878400D02*
G01*
X120599200Y-95123000D01*
X119634000Y-94157800D01*
X120878600Y-92913200D01*
X121843800Y-93878400D01*
G37*
X121843800Y-93878400D02*
X120599200Y-95123000D01*
X119634000Y-94157800D01*
X120878600Y-92913200D01*
X121843800Y-93878400D01*
G36*
X123164600Y-92506800D02*
G01*
X121920000Y-93751400D01*
X120954800Y-92786200D01*
X122199400Y-91541600D01*
X123164600Y-92506800D01*
G37*
X123164600Y-92506800D02*
X121920000Y-93751400D01*
X120954800Y-92786200D01*
X122199400Y-91541600D01*
X123164600Y-92506800D01*
G36*
X116306600Y-91490800D02*
G01*
X114935000Y-91490800D01*
X114935000Y-89712800D01*
X116306600Y-89712800D01*
X116306600Y-91490800D01*
G37*
X116306600Y-91490800D02*
X114935000Y-91490800D01*
X114935000Y-89712800D01*
X116306600Y-89712800D01*
X116306600Y-91490800D01*
G36*
X114706400Y-93599000D02*
G01*
X114350800Y-94919800D01*
X112598200Y-94462600D01*
X112953800Y-93141800D01*
X114706400Y-93599000D01*
G37*
X114706400Y-93599000D02*
X114350800Y-94919800D01*
X112598200Y-94462600D01*
X112953800Y-93141800D01*
X114706400Y-93599000D01*
G36*
X115087400Y-99034600D02*
G01*
X113512600Y-99923600D01*
X112826800Y-98755200D01*
X114401600Y-97840800D01*
X115087400Y-99034600D01*
G37*
X115087400Y-99034600D02*
X113512600Y-99923600D01*
X112826800Y-98755200D01*
X114401600Y-97840800D01*
X115087400Y-99034600D01*
G36*
X118465600Y-101574600D02*
G01*
X117856000Y-103276400D01*
X116586000Y-102819200D01*
X117195600Y-101117400D01*
X118465600Y-101574600D01*
G37*
X118465600Y-101574600D02*
X117856000Y-103276400D01*
X116586000Y-102819200D01*
X117195600Y-101117400D01*
X118465600Y-101574600D01*
G36*
X123494800Y-102387400D02*
G01*
X122326400Y-103073200D01*
X121386600Y-101498400D01*
X122580400Y-100812600D01*
X123494800Y-102387400D01*
G37*
X123494800Y-102387400D02*
X122326400Y-103073200D01*
X121386600Y-101498400D01*
X122580400Y-100812600D01*
X123494800Y-102387400D01*
G36*
X126720600Y-97942400D02*
G01*
X126390400Y-99263200D01*
X124637800Y-98806000D01*
X124993400Y-97485200D01*
X126720600Y-97942400D01*
G37*
X126720600Y-97942400D02*
X126390400Y-99263200D01*
X124637800Y-98806000D01*
X124993400Y-97485200D01*
X126720600Y-97942400D01*
G36*
X126873000Y-93802200D02*
G01*
X125196600Y-94589600D01*
X124637800Y-93345000D01*
X126263400Y-92583000D01*
X126873000Y-93802200D01*
G37*
X126873000Y-93802200D02*
X125196600Y-94589600D01*
X124637800Y-93345000D01*
X126263400Y-92583000D01*
X126873000Y-93802200D01*
G36*
X124485400Y-91033600D02*
G01*
X123113800Y-91033600D01*
X123113800Y-89204800D01*
X124485400Y-89204800D01*
X124485400Y-91033600D01*
G37*
X124485400Y-91033600D02*
X123113800Y-91033600D01*
X123113800Y-89204800D01*
X124485400Y-89204800D01*
X124485400Y-91033600D01*
G36*
X154890907Y-115111796D02*
G01*
X154968036Y-115119393D01*
X155165962Y-115179433D01*
X155165965Y-115179434D01*
X155348370Y-115276932D01*
X155508255Y-115408145D01*
X155639468Y-115568030D01*
X155736966Y-115750435D01*
X155736967Y-115750438D01*
X155797007Y-115948364D01*
X155817280Y-116154200D01*
X155797007Y-116360036D01*
X155736967Y-116557962D01*
X155736966Y-116557965D01*
X155639468Y-116740370D01*
X155508255Y-116900255D01*
X155348370Y-117031468D01*
X155165965Y-117128966D01*
X155165962Y-117128967D01*
X154968036Y-117189007D01*
X154890907Y-117196604D01*
X154813780Y-117204200D01*
X154710620Y-117204200D01*
X154633493Y-117196604D01*
X154556364Y-117189007D01*
X154358438Y-117128967D01*
X154358435Y-117128966D01*
X154176030Y-117031468D01*
X154016145Y-116900255D01*
X153884932Y-116740370D01*
X153787434Y-116557965D01*
X153787433Y-116557962D01*
X153727393Y-116360036D01*
X153707120Y-116154200D01*
X153727393Y-115948364D01*
X153787433Y-115750438D01*
X153787434Y-115750435D01*
X153884932Y-115568030D01*
X154016145Y-115408145D01*
X154176030Y-115276932D01*
X154358435Y-115179434D01*
X154358438Y-115179433D01*
X154556364Y-115119393D01*
X154633493Y-115111796D01*
X154710620Y-115104200D01*
X154813780Y-115104200D01*
X154890907Y-115111796D01*
X154890907Y-115111796D01*
G37*
G36*
X157430907Y-115111796D02*
G01*
X157508036Y-115119393D01*
X157705962Y-115179433D01*
X157705965Y-115179434D01*
X157888370Y-115276932D01*
X158048255Y-115408145D01*
X158179468Y-115568030D01*
X158276966Y-115750435D01*
X158276967Y-115750438D01*
X158337007Y-115948364D01*
X158357280Y-116154200D01*
X158337007Y-116360036D01*
X158276967Y-116557962D01*
X158276966Y-116557965D01*
X158179468Y-116740370D01*
X158048255Y-116900255D01*
X157888370Y-117031468D01*
X157705965Y-117128966D01*
X157705962Y-117128967D01*
X157508036Y-117189007D01*
X157430907Y-117196604D01*
X157353780Y-117204200D01*
X157250620Y-117204200D01*
X157173493Y-117196604D01*
X157096364Y-117189007D01*
X156898438Y-117128967D01*
X156898435Y-117128966D01*
X156716030Y-117031468D01*
X156556145Y-116900255D01*
X156424932Y-116740370D01*
X156327434Y-116557965D01*
X156327433Y-116557962D01*
X156267393Y-116360036D01*
X156247120Y-116154200D01*
X156267393Y-115948364D01*
X156327433Y-115750438D01*
X156327434Y-115750435D01*
X156424932Y-115568030D01*
X156556145Y-115408145D01*
X156716030Y-115276932D01*
X156898435Y-115179434D01*
X156898438Y-115179433D01*
X157096364Y-115119393D01*
X157173493Y-115111796D01*
X157250620Y-115104200D01*
X157353780Y-115104200D01*
X157430907Y-115111796D01*
X157430907Y-115111796D01*
G37*
G36*
X159970887Y-115109227D02*
G01*
X160148474Y-115144550D01*
X160339562Y-115223702D01*
X160511536Y-115338611D01*
X160657789Y-115484864D01*
X160772698Y-115656838D01*
X160851850Y-115847926D01*
X160892200Y-116050784D01*
X160892200Y-116257616D01*
X160851850Y-116460474D01*
X160772698Y-116651562D01*
X160657789Y-116823536D01*
X160511536Y-116969789D01*
X160339562Y-117084698D01*
X160148474Y-117163850D01*
X159970887Y-117199173D01*
X159945617Y-117204200D01*
X159738783Y-117204200D01*
X159713513Y-117199173D01*
X159535926Y-117163850D01*
X159344838Y-117084698D01*
X159172864Y-116969789D01*
X159026611Y-116823536D01*
X158911702Y-116651562D01*
X158832550Y-116460474D01*
X158792200Y-116257616D01*
X158792200Y-116050784D01*
X158832550Y-115847926D01*
X158911702Y-115656838D01*
X159026611Y-115484864D01*
X159172864Y-115338611D01*
X159344838Y-115223702D01*
X159535926Y-115144550D01*
X159713513Y-115109227D01*
X159738783Y-115104200D01*
X159945617Y-115104200D01*
X159970887Y-115109227D01*
X159970887Y-115109227D01*
G37*
G36*
X154890907Y-112571796D02*
G01*
X154968036Y-112579393D01*
X155165962Y-112639433D01*
X155165965Y-112639434D01*
X155348370Y-112736932D01*
X155508255Y-112868145D01*
X155639468Y-113028030D01*
X155736966Y-113210435D01*
X155736967Y-113210438D01*
X155797007Y-113408364D01*
X155817280Y-113614200D01*
X155797007Y-113820036D01*
X155736967Y-114017962D01*
X155736966Y-114017965D01*
X155639468Y-114200370D01*
X155508255Y-114360255D01*
X155348370Y-114491468D01*
X155165965Y-114588966D01*
X155165962Y-114588967D01*
X154968036Y-114649007D01*
X154890907Y-114656604D01*
X154813780Y-114664200D01*
X154710620Y-114664200D01*
X154633493Y-114656604D01*
X154556364Y-114649007D01*
X154358438Y-114588967D01*
X154358435Y-114588966D01*
X154176030Y-114491468D01*
X154016145Y-114360255D01*
X153884932Y-114200370D01*
X153787434Y-114017965D01*
X153787433Y-114017962D01*
X153727393Y-113820036D01*
X153707120Y-113614200D01*
X153727393Y-113408364D01*
X153787433Y-113210438D01*
X153787434Y-113210435D01*
X153884932Y-113028030D01*
X154016145Y-112868145D01*
X154176030Y-112736932D01*
X154358435Y-112639434D01*
X154358438Y-112639433D01*
X154556364Y-112579393D01*
X154633493Y-112571796D01*
X154710620Y-112564200D01*
X154813780Y-112564200D01*
X154890907Y-112571796D01*
X154890907Y-112571796D01*
G37*
G36*
X159970887Y-112569227D02*
G01*
X160148474Y-112604550D01*
X160339562Y-112683702D01*
X160511536Y-112798611D01*
X160657789Y-112944864D01*
X160772698Y-113116838D01*
X160851850Y-113307926D01*
X160892200Y-113510784D01*
X160892200Y-113717616D01*
X160851850Y-113920474D01*
X160772698Y-114111562D01*
X160657789Y-114283536D01*
X160511536Y-114429789D01*
X160339562Y-114544698D01*
X160148474Y-114623850D01*
X159970887Y-114659173D01*
X159945617Y-114664200D01*
X159738783Y-114664200D01*
X159713513Y-114659173D01*
X159535926Y-114623850D01*
X159344838Y-114544698D01*
X159172864Y-114429789D01*
X159026611Y-114283536D01*
X158911702Y-114111562D01*
X158832550Y-113920474D01*
X158792200Y-113717616D01*
X158792200Y-113510784D01*
X158832550Y-113307926D01*
X158911702Y-113116838D01*
X159026611Y-112944864D01*
X159172864Y-112798611D01*
X159344838Y-112683702D01*
X159535926Y-112604550D01*
X159713513Y-112569227D01*
X159738783Y-112564200D01*
X159945617Y-112564200D01*
X159970887Y-112569227D01*
X159970887Y-112569227D01*
G37*
G36*
X157430887Y-112569227D02*
G01*
X157608474Y-112604550D01*
X157799562Y-112683702D01*
X157971536Y-112798611D01*
X158117789Y-112944864D01*
X158232698Y-113116838D01*
X158311850Y-113307926D01*
X158352200Y-113510784D01*
X158352200Y-113717616D01*
X158311850Y-113920474D01*
X158232698Y-114111562D01*
X158117789Y-114283536D01*
X157971536Y-114429789D01*
X157799562Y-114544698D01*
X157608474Y-114623850D01*
X157430887Y-114659173D01*
X157405617Y-114664200D01*
X157198783Y-114664200D01*
X157173513Y-114659173D01*
X156995926Y-114623850D01*
X156804838Y-114544698D01*
X156632864Y-114429789D01*
X156486611Y-114283536D01*
X156371702Y-114111562D01*
X156292550Y-113920474D01*
X156252200Y-113717616D01*
X156252200Y-113510784D01*
X156292550Y-113307926D01*
X156371702Y-113116838D01*
X156486611Y-112944864D01*
X156632864Y-112798611D01*
X156804838Y-112683702D01*
X156995926Y-112604550D01*
X157173513Y-112569227D01*
X157198783Y-112564200D01*
X157405617Y-112564200D01*
X157430887Y-112569227D01*
X157430887Y-112569227D01*
G37*
G36*
X124066029Y-108967710D02*
G01*
X124115878Y-108982831D01*
X124161810Y-109007382D01*
X124202074Y-109040426D01*
X124235118Y-109080690D01*
X124259669Y-109126622D01*
X124274790Y-109176471D01*
X124280500Y-109234444D01*
X124280500Y-110239556D01*
X124274790Y-110297529D01*
X124259669Y-110347378D01*
X124235118Y-110393310D01*
X124202074Y-110433574D01*
X124161810Y-110466618D01*
X124115878Y-110491169D01*
X124066029Y-110506290D01*
X124008056Y-110512000D01*
X122752944Y-110512000D01*
X122694971Y-110506290D01*
X122645122Y-110491169D01*
X122599190Y-110466618D01*
X122558926Y-110433574D01*
X122525882Y-110393310D01*
X122501331Y-110347378D01*
X122486210Y-110297529D01*
X122480500Y-110239556D01*
X122480500Y-109234444D01*
X122486210Y-109176471D01*
X122501331Y-109126622D01*
X122525882Y-109080690D01*
X122558926Y-109040426D01*
X122599190Y-109007382D01*
X122645122Y-108982831D01*
X122694971Y-108967710D01*
X122752944Y-108962000D01*
X124008056Y-108962000D01*
X124066029Y-108967710D01*
X124066029Y-108967710D01*
G37*
G36*
X120637029Y-108967710D02*
G01*
X120686878Y-108982831D01*
X120732810Y-109007382D01*
X120773074Y-109040426D01*
X120806118Y-109080690D01*
X120830669Y-109126622D01*
X120845790Y-109176471D01*
X120851500Y-109234444D01*
X120851500Y-110239556D01*
X120845790Y-110297529D01*
X120830669Y-110347378D01*
X120806118Y-110393310D01*
X120773074Y-110433574D01*
X120732810Y-110466618D01*
X120686878Y-110491169D01*
X120637029Y-110506290D01*
X120579056Y-110512000D01*
X119323944Y-110512000D01*
X119265971Y-110506290D01*
X119216122Y-110491169D01*
X119170190Y-110466618D01*
X119129926Y-110433574D01*
X119096882Y-110393310D01*
X119072331Y-110347378D01*
X119057210Y-110297529D01*
X119051500Y-110239556D01*
X119051500Y-109234444D01*
X119057210Y-109176471D01*
X119072331Y-109126622D01*
X119096882Y-109080690D01*
X119129926Y-109040426D01*
X119170190Y-109007382D01*
X119216122Y-108982831D01*
X119265971Y-108967710D01*
X119323944Y-108962000D01*
X120579056Y-108962000D01*
X120637029Y-108967710D01*
X120637029Y-108967710D01*
G37*
G36*
X117271529Y-108777210D02*
G01*
X117321378Y-108792331D01*
X117367310Y-108816882D01*
X117407574Y-108849926D01*
X117440618Y-108890190D01*
X117465169Y-108936122D01*
X117480290Y-108985971D01*
X117486000Y-109043944D01*
X117486000Y-110049056D01*
X117480290Y-110107029D01*
X117465169Y-110156878D01*
X117440618Y-110202810D01*
X117407574Y-110243074D01*
X117367310Y-110276118D01*
X117321378Y-110300669D01*
X117271529Y-110315790D01*
X117213556Y-110321500D01*
X115958444Y-110321500D01*
X115900471Y-110315790D01*
X115850622Y-110300669D01*
X115804690Y-110276118D01*
X115764426Y-110243074D01*
X115731382Y-110202810D01*
X115706831Y-110156878D01*
X115691710Y-110107029D01*
X115686000Y-110049056D01*
X115686000Y-109043944D01*
X115691710Y-108985971D01*
X115706831Y-108936122D01*
X115731382Y-108890190D01*
X115764426Y-108849926D01*
X115804690Y-108816882D01*
X115850622Y-108792331D01*
X115900471Y-108777210D01*
X115958444Y-108771500D01*
X117213556Y-108771500D01*
X117271529Y-108777210D01*
X117271529Y-108777210D01*
G37*
G36*
X113842529Y-108269210D02*
G01*
X113892378Y-108284331D01*
X113938310Y-108308882D01*
X113978574Y-108341926D01*
X114011618Y-108382190D01*
X114036169Y-108428122D01*
X114051290Y-108477971D01*
X114057000Y-108535944D01*
X114057000Y-109541056D01*
X114051290Y-109599029D01*
X114036169Y-109648878D01*
X114011618Y-109694810D01*
X113978574Y-109735074D01*
X113938310Y-109768118D01*
X113892378Y-109792669D01*
X113842529Y-109807790D01*
X113784556Y-109813500D01*
X112529444Y-109813500D01*
X112471471Y-109807790D01*
X112421622Y-109792669D01*
X112375690Y-109768118D01*
X112335426Y-109735074D01*
X112302382Y-109694810D01*
X112277831Y-109648878D01*
X112262710Y-109599029D01*
X112257000Y-109541056D01*
X112257000Y-108535944D01*
X112262710Y-108477971D01*
X112277831Y-108428122D01*
X112302382Y-108382190D01*
X112335426Y-108341926D01*
X112375690Y-108308882D01*
X112421622Y-108284331D01*
X112471471Y-108269210D01*
X112529444Y-108263500D01*
X113784556Y-108263500D01*
X113842529Y-108269210D01*
X113842529Y-108269210D01*
G37*
G36*
X111505729Y-107596110D02*
G01*
X111555578Y-107611231D01*
X111601510Y-107635782D01*
X111641774Y-107668826D01*
X111674818Y-107709090D01*
X111699369Y-107755022D01*
X111714490Y-107804871D01*
X111720200Y-107862844D01*
X111720200Y-108867956D01*
X111714490Y-108925929D01*
X111699369Y-108975778D01*
X111674818Y-109021710D01*
X111641774Y-109061974D01*
X111601510Y-109095018D01*
X111555578Y-109119569D01*
X111505729Y-109134690D01*
X111447756Y-109140400D01*
X110192644Y-109140400D01*
X110134671Y-109134690D01*
X110084822Y-109119569D01*
X110038890Y-109095018D01*
X109998626Y-109061974D01*
X109965582Y-109021710D01*
X109941031Y-108975778D01*
X109925910Y-108925929D01*
X109920200Y-108867956D01*
X109920200Y-107862844D01*
X109925910Y-107804871D01*
X109941031Y-107755022D01*
X109965582Y-107709090D01*
X109998626Y-107668826D01*
X110038890Y-107635782D01*
X110084822Y-107611231D01*
X110134671Y-107596110D01*
X110192644Y-107590400D01*
X111447756Y-107590400D01*
X111505729Y-107596110D01*
X111505729Y-107596110D01*
G37*
G36*
X124066029Y-106917710D02*
G01*
X124115878Y-106932831D01*
X124161810Y-106957382D01*
X124202074Y-106990426D01*
X124235118Y-107030690D01*
X124259669Y-107076622D01*
X124274790Y-107126471D01*
X124280500Y-107184444D01*
X124280500Y-108189556D01*
X124274790Y-108247529D01*
X124259669Y-108297378D01*
X124235118Y-108343310D01*
X124202074Y-108383574D01*
X124161810Y-108416618D01*
X124115878Y-108441169D01*
X124066029Y-108456290D01*
X124008056Y-108462000D01*
X122752944Y-108462000D01*
X122694971Y-108456290D01*
X122645122Y-108441169D01*
X122599190Y-108416618D01*
X122558926Y-108383574D01*
X122525882Y-108343310D01*
X122501331Y-108297378D01*
X122486210Y-108247529D01*
X122480500Y-108189556D01*
X122480500Y-107184444D01*
X122486210Y-107126471D01*
X122501331Y-107076622D01*
X122525882Y-107030690D01*
X122558926Y-106990426D01*
X122599190Y-106957382D01*
X122645122Y-106932831D01*
X122694971Y-106917710D01*
X122752944Y-106912000D01*
X124008056Y-106912000D01*
X124066029Y-106917710D01*
X124066029Y-106917710D01*
G37*
G36*
X120637029Y-106917710D02*
G01*
X120686878Y-106932831D01*
X120732810Y-106957382D01*
X120773074Y-106990426D01*
X120806118Y-107030690D01*
X120830669Y-107076622D01*
X120845790Y-107126471D01*
X120851500Y-107184444D01*
X120851500Y-108189556D01*
X120845790Y-108247529D01*
X120830669Y-108297378D01*
X120806118Y-108343310D01*
X120773074Y-108383574D01*
X120732810Y-108416618D01*
X120686878Y-108441169D01*
X120637029Y-108456290D01*
X120579056Y-108462000D01*
X119323944Y-108462000D01*
X119265971Y-108456290D01*
X119216122Y-108441169D01*
X119170190Y-108416618D01*
X119129926Y-108383574D01*
X119096882Y-108343310D01*
X119072331Y-108297378D01*
X119057210Y-108247529D01*
X119051500Y-108189556D01*
X119051500Y-107184444D01*
X119057210Y-107126471D01*
X119072331Y-107076622D01*
X119096882Y-107030690D01*
X119129926Y-106990426D01*
X119170190Y-106957382D01*
X119216122Y-106932831D01*
X119265971Y-106917710D01*
X119323944Y-106912000D01*
X120579056Y-106912000D01*
X120637029Y-106917710D01*
X120637029Y-106917710D01*
G37*
G36*
X117271529Y-106727210D02*
G01*
X117321378Y-106742331D01*
X117367310Y-106766882D01*
X117407574Y-106799926D01*
X117440618Y-106840190D01*
X117465169Y-106886122D01*
X117480290Y-106935971D01*
X117486000Y-106993944D01*
X117486000Y-107999056D01*
X117480290Y-108057029D01*
X117465169Y-108106878D01*
X117440618Y-108152810D01*
X117407574Y-108193074D01*
X117367310Y-108226118D01*
X117321378Y-108250669D01*
X117271529Y-108265790D01*
X117213556Y-108271500D01*
X115958444Y-108271500D01*
X115900471Y-108265790D01*
X115850622Y-108250669D01*
X115804690Y-108226118D01*
X115764426Y-108193074D01*
X115731382Y-108152810D01*
X115706831Y-108106878D01*
X115691710Y-108057029D01*
X115686000Y-107999056D01*
X115686000Y-106993944D01*
X115691710Y-106935971D01*
X115706831Y-106886122D01*
X115731382Y-106840190D01*
X115764426Y-106799926D01*
X115804690Y-106766882D01*
X115850622Y-106742331D01*
X115900471Y-106727210D01*
X115958444Y-106721500D01*
X117213556Y-106721500D01*
X117271529Y-106727210D01*
X117271529Y-106727210D01*
G37*
G36*
X157117129Y-106141310D02*
G01*
X157166978Y-106156431D01*
X157212910Y-106180982D01*
X157253174Y-106214026D01*
X157286218Y-106254290D01*
X157310769Y-106300222D01*
X157325890Y-106350071D01*
X157331600Y-106408044D01*
X157331600Y-107663156D01*
X157325890Y-107721129D01*
X157310769Y-107770978D01*
X157286218Y-107816910D01*
X157253174Y-107857174D01*
X157212910Y-107890218D01*
X157166978Y-107914769D01*
X157117129Y-107929890D01*
X157059156Y-107935600D01*
X156054044Y-107935600D01*
X155996071Y-107929890D01*
X155946222Y-107914769D01*
X155900290Y-107890218D01*
X155860026Y-107857174D01*
X155826982Y-107816910D01*
X155802431Y-107770978D01*
X155787310Y-107721129D01*
X155781600Y-107663156D01*
X155781600Y-106408044D01*
X155787310Y-106350071D01*
X155802431Y-106300222D01*
X155826982Y-106254290D01*
X155860026Y-106214026D01*
X155900290Y-106180982D01*
X155946222Y-106156431D01*
X155996071Y-106141310D01*
X156054044Y-106135600D01*
X157059156Y-106135600D01*
X157117129Y-106141310D01*
X157117129Y-106141310D01*
G37*
G36*
X159167129Y-106141310D02*
G01*
X159216978Y-106156431D01*
X159262910Y-106180982D01*
X159303174Y-106214026D01*
X159336218Y-106254290D01*
X159360769Y-106300222D01*
X159375890Y-106350071D01*
X159381600Y-106408044D01*
X159381600Y-107663156D01*
X159375890Y-107721129D01*
X159360769Y-107770978D01*
X159336218Y-107816910D01*
X159303174Y-107857174D01*
X159262910Y-107890218D01*
X159216978Y-107914769D01*
X159167129Y-107929890D01*
X159109156Y-107935600D01*
X158104044Y-107935600D01*
X158046071Y-107929890D01*
X157996222Y-107914769D01*
X157950290Y-107890218D01*
X157910026Y-107857174D01*
X157876982Y-107816910D01*
X157852431Y-107770978D01*
X157837310Y-107721129D01*
X157831600Y-107663156D01*
X157831600Y-106408044D01*
X157837310Y-106350071D01*
X157852431Y-106300222D01*
X157876982Y-106254290D01*
X157910026Y-106214026D01*
X157950290Y-106180982D01*
X157996222Y-106156431D01*
X158046071Y-106141310D01*
X158104044Y-106135600D01*
X159109156Y-106135600D01*
X159167129Y-106141310D01*
X159167129Y-106141310D01*
G37*
G36*
X113842529Y-106219210D02*
G01*
X113892378Y-106234331D01*
X113938310Y-106258882D01*
X113978574Y-106291926D01*
X114011618Y-106332190D01*
X114036169Y-106378122D01*
X114051290Y-106427971D01*
X114057000Y-106485944D01*
X114057000Y-107491056D01*
X114051290Y-107549029D01*
X114036169Y-107598878D01*
X114011618Y-107644810D01*
X113978574Y-107685074D01*
X113938310Y-107718118D01*
X113892378Y-107742669D01*
X113842529Y-107757790D01*
X113784556Y-107763500D01*
X112529444Y-107763500D01*
X112471471Y-107757790D01*
X112421622Y-107742669D01*
X112375690Y-107718118D01*
X112335426Y-107685074D01*
X112302382Y-107644810D01*
X112277831Y-107598878D01*
X112262710Y-107549029D01*
X112257000Y-107491056D01*
X112257000Y-106485944D01*
X112262710Y-106427971D01*
X112277831Y-106378122D01*
X112302382Y-106332190D01*
X112335426Y-106291926D01*
X112375690Y-106258882D01*
X112421622Y-106234331D01*
X112471471Y-106219210D01*
X112529444Y-106213500D01*
X113784556Y-106213500D01*
X113842529Y-106219210D01*
X113842529Y-106219210D01*
G37*
G36*
X111505729Y-105546110D02*
G01*
X111555578Y-105561231D01*
X111601510Y-105585782D01*
X111641774Y-105618826D01*
X111674818Y-105659090D01*
X111699369Y-105705022D01*
X111714490Y-105754871D01*
X111720200Y-105812844D01*
X111720200Y-106817956D01*
X111714490Y-106875929D01*
X111699369Y-106925778D01*
X111674818Y-106971710D01*
X111641774Y-107011974D01*
X111601510Y-107045018D01*
X111555578Y-107069569D01*
X111505729Y-107084690D01*
X111447756Y-107090400D01*
X110192644Y-107090400D01*
X110134671Y-107084690D01*
X110084822Y-107069569D01*
X110038890Y-107045018D01*
X109998626Y-107011974D01*
X109965582Y-106971710D01*
X109941031Y-106925778D01*
X109925910Y-106875929D01*
X109920200Y-106817956D01*
X109920200Y-105812844D01*
X109925910Y-105754871D01*
X109941031Y-105705022D01*
X109965582Y-105659090D01*
X109998626Y-105618826D01*
X110038890Y-105585782D01*
X110084822Y-105561231D01*
X110134671Y-105546110D01*
X110192644Y-105540400D01*
X111447756Y-105540400D01*
X111505729Y-105546110D01*
X111505729Y-105546110D01*
G37*
G36*
X147871529Y-104464910D02*
G01*
X147921378Y-104480031D01*
X147967310Y-104504582D01*
X148007574Y-104537626D01*
X148040618Y-104577890D01*
X148065169Y-104623822D01*
X148080290Y-104673671D01*
X148086000Y-104731644D01*
X148086000Y-105986756D01*
X148080290Y-106044729D01*
X148065169Y-106094578D01*
X148040618Y-106140510D01*
X148007574Y-106180774D01*
X147967310Y-106213818D01*
X147921378Y-106238369D01*
X147871529Y-106253490D01*
X147813556Y-106259200D01*
X146808444Y-106259200D01*
X146750471Y-106253490D01*
X146700622Y-106238369D01*
X146654690Y-106213818D01*
X146614426Y-106180774D01*
X146581382Y-106140510D01*
X146556831Y-106094578D01*
X146541710Y-106044729D01*
X146536000Y-105986756D01*
X146536000Y-104731644D01*
X146541710Y-104673671D01*
X146556831Y-104623822D01*
X146581382Y-104577890D01*
X146614426Y-104537626D01*
X146654690Y-104504582D01*
X146700622Y-104480031D01*
X146750471Y-104464910D01*
X146808444Y-104459200D01*
X147813556Y-104459200D01*
X147871529Y-104464910D01*
X147871529Y-104464910D01*
G37*
G36*
X149921529Y-104464910D02*
G01*
X149971378Y-104480031D01*
X150017310Y-104504582D01*
X150057574Y-104537626D01*
X150090618Y-104577890D01*
X150115169Y-104623822D01*
X150130290Y-104673671D01*
X150136000Y-104731644D01*
X150136000Y-105986756D01*
X150130290Y-106044729D01*
X150115169Y-106094578D01*
X150090618Y-106140510D01*
X150057574Y-106180774D01*
X150017310Y-106213818D01*
X149971378Y-106238369D01*
X149921529Y-106253490D01*
X149863556Y-106259200D01*
X148858444Y-106259200D01*
X148800471Y-106253490D01*
X148750622Y-106238369D01*
X148704690Y-106213818D01*
X148664426Y-106180774D01*
X148631382Y-106140510D01*
X148606831Y-106094578D01*
X148591710Y-106044729D01*
X148586000Y-105986756D01*
X148586000Y-104731644D01*
X148591710Y-104673671D01*
X148606831Y-104623822D01*
X148631382Y-104577890D01*
X148664426Y-104537626D01*
X148704690Y-104504582D01*
X148750622Y-104480031D01*
X148800471Y-104464910D01*
X148858444Y-104459200D01*
X149863556Y-104459200D01*
X149921529Y-104464910D01*
X149921529Y-104464910D01*
G37*
G36*
X165558929Y-104007710D02*
G01*
X165608778Y-104022831D01*
X165654710Y-104047382D01*
X165694974Y-104080426D01*
X165728018Y-104120690D01*
X165752569Y-104166622D01*
X165767690Y-104216471D01*
X165773400Y-104274444D01*
X165773400Y-105529556D01*
X165767690Y-105587529D01*
X165752569Y-105637378D01*
X165728018Y-105683310D01*
X165694974Y-105723574D01*
X165654710Y-105756618D01*
X165608778Y-105781169D01*
X165558929Y-105796290D01*
X165500956Y-105802000D01*
X164495844Y-105802000D01*
X164437871Y-105796290D01*
X164388022Y-105781169D01*
X164342090Y-105756618D01*
X164301826Y-105723574D01*
X164268782Y-105683310D01*
X164244231Y-105637378D01*
X164229110Y-105587529D01*
X164223400Y-105529556D01*
X164223400Y-104274444D01*
X164229110Y-104216471D01*
X164244231Y-104166622D01*
X164268782Y-104120690D01*
X164301826Y-104080426D01*
X164342090Y-104047382D01*
X164388022Y-104022831D01*
X164437871Y-104007710D01*
X164495844Y-104002000D01*
X165500956Y-104002000D01*
X165558929Y-104007710D01*
X165558929Y-104007710D01*
G37*
G36*
X163508929Y-104007710D02*
G01*
X163558778Y-104022831D01*
X163604710Y-104047382D01*
X163644974Y-104080426D01*
X163678018Y-104120690D01*
X163702569Y-104166622D01*
X163717690Y-104216471D01*
X163723400Y-104274444D01*
X163723400Y-105529556D01*
X163717690Y-105587529D01*
X163702569Y-105637378D01*
X163678018Y-105683310D01*
X163644974Y-105723574D01*
X163604710Y-105756618D01*
X163558778Y-105781169D01*
X163508929Y-105796290D01*
X163450956Y-105802000D01*
X162445844Y-105802000D01*
X162387871Y-105796290D01*
X162338022Y-105781169D01*
X162292090Y-105756618D01*
X162251826Y-105723574D01*
X162218782Y-105683310D01*
X162194231Y-105637378D01*
X162179110Y-105587529D01*
X162173400Y-105529556D01*
X162173400Y-104274444D01*
X162179110Y-104216471D01*
X162194231Y-104166622D01*
X162218782Y-104120690D01*
X162251826Y-104080426D01*
X162292090Y-104047382D01*
X162338022Y-104022831D01*
X162387871Y-104007710D01*
X162445844Y-104002000D01*
X163450956Y-104002000D01*
X163508929Y-104007710D01*
X163508929Y-104007710D01*
G37*
G36*
X153595520Y-102160065D02*
G01*
X153646117Y-102171862D01*
X153699048Y-102195845D01*
X154570717Y-102699103D01*
X154617966Y-102732962D01*
X154653471Y-102770870D01*
X154677113Y-102808890D01*
X154692030Y-102828330D01*
X154710454Y-102844487D01*
X154731675Y-102856739D01*
X154754878Y-102864616D01*
X154779173Y-102867814D01*
X154803624Y-102866211D01*
X154827294Y-102859869D01*
X154858271Y-102842874D01*
X154901406Y-102810517D01*
X154953810Y-102785381D01*
X155014516Y-102763286D01*
X155014524Y-102763282D01*
X155838917Y-102463228D01*
X155838923Y-102463227D01*
X155899627Y-102441132D01*
X155955931Y-102426702D01*
X156007799Y-102423870D01*
X156059225Y-102431212D01*
X156108230Y-102448445D01*
X156152936Y-102474911D01*
X156191614Y-102509583D01*
X156222788Y-102551141D01*
X156247922Y-102603542D01*
X156270017Y-102664248D01*
X156270021Y-102664256D01*
X156655580Y-103723572D01*
X156655581Y-103723578D01*
X156677676Y-103784282D01*
X156692106Y-103840586D01*
X156694938Y-103892454D01*
X156687596Y-103943880D01*
X156670363Y-103992885D01*
X156643897Y-104037591D01*
X156609225Y-104076269D01*
X156567667Y-104107443D01*
X156515266Y-104132577D01*
X156454560Y-104154672D01*
X156454552Y-104154676D01*
X155630159Y-104454730D01*
X155630153Y-104454731D01*
X155569449Y-104476826D01*
X155513145Y-104491256D01*
X155461277Y-104494088D01*
X155409851Y-104486746D01*
X155360846Y-104469513D01*
X155316140Y-104443047D01*
X155277462Y-104408375D01*
X155246288Y-104366817D01*
X155221154Y-104314416D01*
X155199059Y-104253710D01*
X155199055Y-104253702D01*
X154822066Y-103217932D01*
X154811470Y-103195842D01*
X154796766Y-103176240D01*
X154778520Y-103159883D01*
X154757434Y-103147400D01*
X154734318Y-103139271D01*
X154710059Y-103135808D01*
X154685592Y-103137144D01*
X154661855Y-103143227D01*
X154639761Y-103153825D01*
X154620159Y-103168529D01*
X154603802Y-103186775D01*
X154596361Y-103198180D01*
X154364369Y-103600001D01*
X154041929Y-104158485D01*
X154008072Y-104205732D01*
X153970161Y-104241240D01*
X153926042Y-104268675D01*
X153877425Y-104286974D01*
X153826173Y-104295435D01*
X153774252Y-104293735D01*
X153723655Y-104281938D01*
X153670724Y-104257955D01*
X152799055Y-103754697D01*
X152751806Y-103720838D01*
X152716301Y-103682930D01*
X152688864Y-103638807D01*
X152670566Y-103590192D01*
X152662105Y-103538940D01*
X152663805Y-103487019D01*
X152675602Y-103436425D01*
X152699589Y-103383485D01*
X152731889Y-103327541D01*
X152731891Y-103327535D01*
X153045557Y-102784249D01*
X153327843Y-102295315D01*
X153361700Y-102248068D01*
X153399611Y-102212560D01*
X153443730Y-102185125D01*
X153492347Y-102166826D01*
X153543599Y-102158365D01*
X153595520Y-102160065D01*
X153595520Y-102160065D01*
G37*
G36*
X121363349Y-101619926D02*
G01*
X121411964Y-101638224D01*
X121456087Y-101665661D01*
X121493997Y-101701168D01*
X121527854Y-101748415D01*
X121827299Y-102267070D01*
X122123806Y-102780635D01*
X122123808Y-102780641D01*
X122156108Y-102836585D01*
X122180095Y-102889525D01*
X122191892Y-102940120D01*
X122193592Y-102992041D01*
X122185131Y-103043293D01*
X122166832Y-103091910D01*
X122139397Y-103136029D01*
X122103891Y-103173938D01*
X122056642Y-103207797D01*
X121184973Y-103711055D01*
X121132042Y-103735038D01*
X121081446Y-103746835D01*
X121029525Y-103748535D01*
X120978273Y-103740074D01*
X120929658Y-103721776D01*
X120885535Y-103694339D01*
X120847625Y-103658832D01*
X120813768Y-103611585D01*
X120471284Y-103018384D01*
X120217816Y-102579365D01*
X120217814Y-102579359D01*
X120185514Y-102523415D01*
X120161527Y-102470475D01*
X120149730Y-102419880D01*
X120148030Y-102367959D01*
X120156491Y-102316707D01*
X120174790Y-102268090D01*
X120202225Y-102223971D01*
X120237731Y-102186062D01*
X120284980Y-102152203D01*
X121156649Y-101648945D01*
X121209580Y-101624962D01*
X121260176Y-101613165D01*
X121312097Y-101611465D01*
X121363349Y-101619926D01*
X121363349Y-101619926D01*
G37*
G36*
X118686638Y-101660804D02*
G01*
X118742942Y-101675234D01*
X118803646Y-101697329D01*
X118803652Y-101697330D01*
X119628045Y-101997384D01*
X119628053Y-101997388D01*
X119688759Y-102019483D01*
X119741160Y-102044617D01*
X119782718Y-102075791D01*
X119817390Y-102114469D01*
X119843856Y-102159175D01*
X119861089Y-102208180D01*
X119868431Y-102259606D01*
X119865599Y-102311474D01*
X119851169Y-102367778D01*
X119829074Y-102428482D01*
X119829073Y-102428488D01*
X119443514Y-103487804D01*
X119443510Y-103487812D01*
X119421415Y-103548518D01*
X119396281Y-103600919D01*
X119365107Y-103642477D01*
X119326429Y-103677149D01*
X119281723Y-103703615D01*
X119232718Y-103720848D01*
X119181292Y-103728190D01*
X119129424Y-103725358D01*
X119073120Y-103710928D01*
X119012416Y-103688833D01*
X119012410Y-103688832D01*
X118188017Y-103388778D01*
X118188009Y-103388774D01*
X118127303Y-103366679D01*
X118074902Y-103341545D01*
X118033344Y-103310371D01*
X117998672Y-103271693D01*
X117972206Y-103226987D01*
X117954973Y-103177982D01*
X117947631Y-103126556D01*
X117950463Y-103074688D01*
X117964893Y-103018384D01*
X117986988Y-102957680D01*
X117986989Y-102957674D01*
X118372548Y-101898358D01*
X118372552Y-101898350D01*
X118394647Y-101837644D01*
X118419781Y-101785243D01*
X118450955Y-101743685D01*
X118489633Y-101709013D01*
X118534339Y-101682547D01*
X118583344Y-101665314D01*
X118634770Y-101657972D01*
X118686638Y-101660804D01*
X118686638Y-101660804D01*
G37*
G36*
X159860981Y-100223208D02*
G01*
X159911575Y-100235005D01*
X159964515Y-100258992D01*
X160020459Y-100291292D01*
X160020465Y-100291294D01*
X160484194Y-100559028D01*
X161052685Y-100887246D01*
X161099932Y-100921103D01*
X161135440Y-100959014D01*
X161162875Y-101003133D01*
X161181174Y-101051750D01*
X161189635Y-101103002D01*
X161187935Y-101154923D01*
X161176138Y-101205520D01*
X161152155Y-101258451D01*
X160648897Y-102130120D01*
X160615038Y-102177369D01*
X160577130Y-102212874D01*
X160533007Y-102240311D01*
X160484392Y-102258609D01*
X160433140Y-102267070D01*
X160381219Y-102265370D01*
X160330625Y-102253573D01*
X160277685Y-102229586D01*
X160221741Y-102197287D01*
X160221735Y-102197284D01*
X159703055Y-101897824D01*
X159275451Y-101650947D01*
X159253132Y-101640834D01*
X159229268Y-101635269D01*
X159204777Y-101634468D01*
X159180600Y-101638459D01*
X159157666Y-101647091D01*
X159136857Y-101660031D01*
X159118973Y-101676781D01*
X159104700Y-101696700D01*
X159094587Y-101719019D01*
X159089022Y-101742883D01*
X159088221Y-101767374D01*
X159095490Y-101801945D01*
X159427673Y-102714612D01*
X159427674Y-102714618D01*
X159449769Y-102775322D01*
X159464199Y-102831626D01*
X159467031Y-102883494D01*
X159459689Y-102934920D01*
X159442456Y-102983925D01*
X159415990Y-103028631D01*
X159381318Y-103067309D01*
X159339760Y-103098483D01*
X159287359Y-103123617D01*
X159226653Y-103145712D01*
X159226645Y-103145716D01*
X158402252Y-103445770D01*
X158402246Y-103445771D01*
X158341542Y-103467866D01*
X158285238Y-103482296D01*
X158233370Y-103485128D01*
X158181944Y-103477786D01*
X158132939Y-103460553D01*
X158088233Y-103434087D01*
X158049555Y-103399415D01*
X158018381Y-103357857D01*
X157993247Y-103305456D01*
X157971152Y-103244750D01*
X157971148Y-103244742D01*
X157585589Y-102185426D01*
X157585588Y-102185420D01*
X157563493Y-102124716D01*
X157549063Y-102068412D01*
X157546231Y-102016544D01*
X157553573Y-101965118D01*
X157570806Y-101916113D01*
X157597272Y-101871407D01*
X157631944Y-101832729D01*
X157673502Y-101801555D01*
X157725903Y-101776421D01*
X157786609Y-101754326D01*
X157786617Y-101754322D01*
X158611010Y-101454268D01*
X158611016Y-101454267D01*
X158671720Y-101432172D01*
X158728024Y-101417742D01*
X158779892Y-101414910D01*
X158831319Y-101422252D01*
X158888038Y-101442198D01*
X158911840Y-101448022D01*
X158936321Y-101449091D01*
X158960540Y-101445363D01*
X158983566Y-101436982D01*
X159004515Y-101424270D01*
X159022581Y-101407715D01*
X159037070Y-101387954D01*
X159047426Y-101365746D01*
X159053250Y-101341944D01*
X159053802Y-101335643D01*
X159066062Y-101283058D01*
X159090045Y-101230127D01*
X159593303Y-100358458D01*
X159627162Y-100311209D01*
X159665070Y-100275704D01*
X159709193Y-100248267D01*
X159757808Y-100229969D01*
X159809060Y-100221508D01*
X159860981Y-100223208D01*
X159860981Y-100223208D01*
G37*
G36*
X150095680Y-99395204D02*
G01*
X150144685Y-99412437D01*
X150189391Y-99438903D01*
X150228069Y-99473575D01*
X150259243Y-99515133D01*
X150284377Y-99567534D01*
X150306472Y-99628240D01*
X150306476Y-99628248D01*
X150606530Y-100452641D01*
X150606531Y-100452647D01*
X150628626Y-100513351D01*
X150643056Y-100569655D01*
X150646013Y-100623807D01*
X150645142Y-100643743D01*
X150648870Y-100667962D01*
X150657251Y-100690989D01*
X150669963Y-100711937D01*
X150686518Y-100730003D01*
X150706279Y-100744493D01*
X150728488Y-100754848D01*
X150752290Y-100760672D01*
X150776770Y-100761741D01*
X150800989Y-100758013D01*
X150824016Y-100749632D01*
X150835963Y-100743077D01*
X150888953Y-100710125D01*
X150937572Y-100691826D01*
X150988824Y-100683365D01*
X151040745Y-100685065D01*
X151091342Y-100696862D01*
X151144273Y-100720845D01*
X152015942Y-101224103D01*
X152063191Y-101257962D01*
X152098696Y-101295870D01*
X152126133Y-101339993D01*
X152144431Y-101388608D01*
X152152892Y-101439860D01*
X152151192Y-101491781D01*
X152139395Y-101542375D01*
X152115408Y-101595315D01*
X152083108Y-101651259D01*
X152083106Y-101651265D01*
X151813870Y-102117596D01*
X151487154Y-102683485D01*
X151453297Y-102730732D01*
X151415386Y-102766240D01*
X151371267Y-102793675D01*
X151322650Y-102811974D01*
X151271398Y-102820435D01*
X151219477Y-102818735D01*
X151168880Y-102806938D01*
X151115949Y-102782955D01*
X150244280Y-102279697D01*
X150197031Y-102245838D01*
X150161526Y-102207930D01*
X150134089Y-102163807D01*
X150115791Y-102115192D01*
X150107330Y-102063940D01*
X150109030Y-102012019D01*
X150120827Y-101961425D01*
X150144814Y-101908485D01*
X150177113Y-101852541D01*
X150177116Y-101852535D01*
X150655530Y-101023898D01*
X150665643Y-101001579D01*
X150671208Y-100977715D01*
X150672009Y-100953224D01*
X150668018Y-100929047D01*
X150659386Y-100906113D01*
X150646446Y-100885304D01*
X150629696Y-100867420D01*
X150609777Y-100853147D01*
X150587458Y-100843034D01*
X150563594Y-100837469D01*
X150539103Y-100836668D01*
X150514926Y-100840659D01*
X150493219Y-100848694D01*
X150466216Y-100861646D01*
X150405510Y-100883741D01*
X150405502Y-100883745D01*
X149346186Y-101269304D01*
X149346180Y-101269305D01*
X149285476Y-101291400D01*
X149229172Y-101305830D01*
X149177304Y-101308662D01*
X149125878Y-101301320D01*
X149076873Y-101284087D01*
X149032167Y-101257621D01*
X148993489Y-101222949D01*
X148962315Y-101181391D01*
X148937181Y-101128990D01*
X148915086Y-101068284D01*
X148915082Y-101068276D01*
X148615028Y-100243883D01*
X148615027Y-100243877D01*
X148592932Y-100183173D01*
X148578502Y-100126869D01*
X148575670Y-100075001D01*
X148583012Y-100023575D01*
X148600245Y-99974570D01*
X148626711Y-99929864D01*
X148661383Y-99891186D01*
X148702941Y-99860012D01*
X148755342Y-99834878D01*
X148816048Y-99812783D01*
X148816056Y-99812779D01*
X149875372Y-99427220D01*
X149875378Y-99427219D01*
X149936082Y-99405124D01*
X149992386Y-99390694D01*
X150044254Y-99387862D01*
X150095680Y-99395204D01*
X150095680Y-99395204D01*
G37*
G36*
X115058293Y-99152766D02*
G01*
X115106910Y-99171065D01*
X115151029Y-99198500D01*
X115188938Y-99234006D01*
X115222797Y-99281255D01*
X115726055Y-100152924D01*
X115750038Y-100205855D01*
X115761835Y-100256451D01*
X115763535Y-100308372D01*
X115755074Y-100359624D01*
X115736776Y-100408239D01*
X115704169Y-100460675D01*
X115701128Y-100464638D01*
X115690288Y-100486614D01*
X115683944Y-100510282D01*
X115682339Y-100534734D01*
X115685535Y-100559028D01*
X115693409Y-100582233D01*
X115705659Y-100603455D01*
X115721814Y-100621880D01*
X115741253Y-100636799D01*
X115763229Y-100647639D01*
X115786897Y-100653983D01*
X115811349Y-100655588D01*
X115824938Y-100654400D01*
X115862677Y-100649012D01*
X115914545Y-100651844D01*
X115970849Y-100666274D01*
X116031553Y-100688369D01*
X116031559Y-100688370D01*
X116855952Y-100988424D01*
X116855960Y-100988428D01*
X116916666Y-101010523D01*
X116969067Y-101035657D01*
X117010625Y-101066831D01*
X117045297Y-101105509D01*
X117071763Y-101150215D01*
X117088996Y-101199220D01*
X117096338Y-101250646D01*
X117093506Y-101302514D01*
X117079076Y-101358818D01*
X117056981Y-101419522D01*
X117056980Y-101419528D01*
X116671421Y-102478844D01*
X116671417Y-102478852D01*
X116649322Y-102539558D01*
X116624188Y-102591959D01*
X116593014Y-102633517D01*
X116554336Y-102668189D01*
X116509630Y-102694655D01*
X116460625Y-102711888D01*
X116409199Y-102719230D01*
X116357331Y-102716398D01*
X116301027Y-102701968D01*
X116240323Y-102679873D01*
X116240317Y-102679872D01*
X115415924Y-102379818D01*
X115415916Y-102379814D01*
X115355210Y-102357719D01*
X115302809Y-102332585D01*
X115261251Y-102301411D01*
X115226579Y-102262733D01*
X115200113Y-102218027D01*
X115182880Y-102169022D01*
X115175538Y-102117596D01*
X115178370Y-102065728D01*
X115192800Y-102009424D01*
X115214894Y-101948720D01*
X115214896Y-101948714D01*
X115600455Y-100889398D01*
X115600460Y-100889389D01*
X115622556Y-100828679D01*
X115648267Y-100775076D01*
X115656648Y-100752050D01*
X115660376Y-100727831D01*
X115659307Y-100703350D01*
X115653483Y-100679548D01*
X115643127Y-100657340D01*
X115628638Y-100637579D01*
X115610572Y-100621024D01*
X115589623Y-100608312D01*
X115566597Y-100599931D01*
X115542378Y-100596203D01*
X115517897Y-100597272D01*
X115494095Y-100603096D01*
X115473064Y-100612764D01*
X115247355Y-100743077D01*
X114594365Y-101120081D01*
X114594359Y-101120084D01*
X114538415Y-101152383D01*
X114485475Y-101176370D01*
X114434880Y-101188167D01*
X114382959Y-101189867D01*
X114331707Y-101181406D01*
X114283090Y-101163107D01*
X114238971Y-101135672D01*
X114201062Y-101100166D01*
X114167203Y-101052917D01*
X113663945Y-100181248D01*
X113639962Y-100128317D01*
X113628165Y-100077721D01*
X113626465Y-100025800D01*
X113634926Y-99974548D01*
X113653224Y-99925933D01*
X113680661Y-99881810D01*
X113716168Y-99843900D01*
X113763415Y-99810043D01*
X114406068Y-99439008D01*
X114795635Y-99214091D01*
X114795641Y-99214089D01*
X114851585Y-99181789D01*
X114904525Y-99157802D01*
X114955120Y-99146005D01*
X115007041Y-99144305D01*
X115058293Y-99152766D01*
X115058293Y-99152766D01*
G37*
G36*
X124891409Y-98890245D02*
G01*
X124953816Y-98906967D01*
X124953823Y-98906968D01*
X125803677Y-99134686D01*
X126105123Y-99215458D01*
X126159510Y-99235928D01*
X126203626Y-99263361D01*
X126241542Y-99298872D01*
X126271803Y-99341102D01*
X126293239Y-99388412D01*
X126305036Y-99439008D01*
X126306736Y-99490930D01*
X126297271Y-99548263D01*
X126036761Y-100520497D01*
X126016291Y-100574884D01*
X125988856Y-100619003D01*
X125953348Y-100656914D01*
X125911121Y-100687174D01*
X125863805Y-100708612D01*
X125813210Y-100720409D01*
X125761289Y-100722109D01*
X125703955Y-100712643D01*
X125641548Y-100695921D01*
X125641541Y-100695920D01*
X124695381Y-100442397D01*
X124490241Y-100387430D01*
X124435855Y-100366961D01*
X124392815Y-100340196D01*
X124370838Y-100329358D01*
X124347169Y-100323016D01*
X124322718Y-100321413D01*
X124298423Y-100324611D01*
X124275219Y-100332487D01*
X124253998Y-100344739D01*
X124235575Y-100360896D01*
X124220657Y-100380336D01*
X124209819Y-100402313D01*
X124203477Y-100425982D01*
X124201874Y-100450433D01*
X124205072Y-100474728D01*
X124212948Y-100497932D01*
X124218554Y-100508844D01*
X124379393Y-100787426D01*
X124678581Y-101305635D01*
X124678583Y-101305640D01*
X124710883Y-101361585D01*
X124734870Y-101414525D01*
X124746667Y-101465120D01*
X124748367Y-101517041D01*
X124739906Y-101568293D01*
X124721607Y-101616910D01*
X124694172Y-101661029D01*
X124658666Y-101698938D01*
X124611417Y-101732797D01*
X123739748Y-102236055D01*
X123686817Y-102260038D01*
X123636221Y-102271835D01*
X123584300Y-102273535D01*
X123533048Y-102265074D01*
X123484433Y-102246776D01*
X123440310Y-102219339D01*
X123402400Y-102183832D01*
X123368543Y-102136585D01*
X123025476Y-101542375D01*
X122772591Y-101104365D01*
X122772589Y-101104359D01*
X122740289Y-101048415D01*
X122716302Y-100995475D01*
X122704505Y-100944880D01*
X122702805Y-100892959D01*
X122711266Y-100841707D01*
X122729565Y-100793090D01*
X122757000Y-100748971D01*
X122792506Y-100711062D01*
X122839755Y-100677203D01*
X123711424Y-100173945D01*
X123764355Y-100149962D01*
X123814951Y-100138165D01*
X123866872Y-100136465D01*
X123918124Y-100144926D01*
X123966739Y-100163224D01*
X124010862Y-100190661D01*
X124048772Y-100226168D01*
X124064009Y-100247431D01*
X124080166Y-100265854D01*
X124099606Y-100280771D01*
X124121583Y-100291609D01*
X124145252Y-100297951D01*
X124169704Y-100299554D01*
X124193998Y-100296356D01*
X124217202Y-100288479D01*
X124238423Y-100276227D01*
X124256846Y-100260070D01*
X124271763Y-100240630D01*
X124282601Y-100218653D01*
X124288943Y-100194984D01*
X124290546Y-100170531D01*
X124288628Y-100111957D01*
X124298093Y-100054625D01*
X124558603Y-99082391D01*
X124579073Y-99028004D01*
X124606508Y-98983885D01*
X124642016Y-98945974D01*
X124684243Y-98915714D01*
X124731559Y-98894276D01*
X124782154Y-98882479D01*
X124834075Y-98880779D01*
X124891409Y-98890245D01*
X124891409Y-98890245D01*
G37*
G36*
X157178499Y-99384896D02*
G01*
X157228209Y-99399976D01*
X157274019Y-99424462D01*
X157314179Y-99457421D01*
X157347138Y-99497581D01*
X157371624Y-99543391D01*
X157386704Y-99593101D01*
X157392400Y-99650940D01*
X157392400Y-100907460D01*
X157386704Y-100965299D01*
X157371624Y-101015009D01*
X157347138Y-101060819D01*
X157314179Y-101100979D01*
X157274019Y-101133938D01*
X157228209Y-101158424D01*
X157178499Y-101173504D01*
X157120660Y-101179200D01*
X156114140Y-101179200D01*
X156056301Y-101173504D01*
X156006591Y-101158424D01*
X155960781Y-101133938D01*
X155920621Y-101100979D01*
X155887662Y-101060819D01*
X155863176Y-101015009D01*
X155848096Y-100965299D01*
X155842400Y-100907460D01*
X155842400Y-99650940D01*
X155848096Y-99593101D01*
X155863176Y-99543391D01*
X155887662Y-99497581D01*
X155920621Y-99457421D01*
X155960781Y-99424462D01*
X156006591Y-99399976D01*
X156056301Y-99384896D01*
X156114140Y-99379200D01*
X157120660Y-99379200D01*
X157178499Y-99384896D01*
X157178499Y-99384896D01*
G37*
G36*
X154228499Y-99384896D02*
G01*
X154278209Y-99399976D01*
X154324019Y-99424462D01*
X154364179Y-99457421D01*
X154397138Y-99497581D01*
X154421624Y-99543391D01*
X154436704Y-99593101D01*
X154442400Y-99650940D01*
X154442400Y-100907460D01*
X154436704Y-100965299D01*
X154421624Y-101015009D01*
X154397138Y-101060819D01*
X154364179Y-101100979D01*
X154324019Y-101133938D01*
X154278209Y-101158424D01*
X154228499Y-101173504D01*
X154170660Y-101179200D01*
X153164140Y-101179200D01*
X153106301Y-101173504D01*
X153056591Y-101158424D01*
X153010781Y-101133938D01*
X152970621Y-101100979D01*
X152937662Y-101060819D01*
X152913176Y-101015009D01*
X152898096Y-100965299D01*
X152892400Y-100907460D01*
X152892400Y-99650940D01*
X152898096Y-99593101D01*
X152913176Y-99543391D01*
X152937662Y-99497581D01*
X152970621Y-99457421D01*
X153010781Y-99424462D01*
X153056591Y-99399976D01*
X153106301Y-99384896D01*
X153164140Y-99379200D01*
X154170660Y-99379200D01*
X154228499Y-99384896D01*
X154228499Y-99384896D01*
G37*
G36*
X146481529Y-99620510D02*
G01*
X146531378Y-99635631D01*
X146577310Y-99660182D01*
X146617574Y-99693226D01*
X146650618Y-99733490D01*
X146675169Y-99779422D01*
X146690290Y-99829271D01*
X146696000Y-99887244D01*
X146696000Y-100892356D01*
X146690290Y-100950329D01*
X146675169Y-101000178D01*
X146650618Y-101046110D01*
X146617574Y-101086374D01*
X146577310Y-101119418D01*
X146531378Y-101143969D01*
X146481529Y-101159090D01*
X146423556Y-101164800D01*
X145168444Y-101164800D01*
X145110471Y-101159090D01*
X145060622Y-101143969D01*
X145014690Y-101119418D01*
X144974426Y-101086374D01*
X144941382Y-101046110D01*
X144916831Y-101000178D01*
X144901710Y-100950329D01*
X144896000Y-100892356D01*
X144896000Y-99887244D01*
X144901710Y-99829271D01*
X144916831Y-99779422D01*
X144941382Y-99733490D01*
X144974426Y-99693226D01*
X145014690Y-99660182D01*
X145060622Y-99635631D01*
X145110471Y-99620510D01*
X145168444Y-99614800D01*
X146423556Y-99614800D01*
X146481529Y-99620510D01*
X146481529Y-99620510D01*
G37*
G36*
X121466099Y-98673696D02*
G01*
X121515809Y-98688776D01*
X121561619Y-98713262D01*
X121601779Y-98746221D01*
X121634738Y-98786381D01*
X121659224Y-98832191D01*
X121674304Y-98881901D01*
X121680000Y-98939740D01*
X121680000Y-100196260D01*
X121674304Y-100254099D01*
X121659224Y-100303809D01*
X121634738Y-100349619D01*
X121601779Y-100389779D01*
X121561619Y-100422738D01*
X121515809Y-100447224D01*
X121466099Y-100462304D01*
X121408260Y-100468000D01*
X120401740Y-100468000D01*
X120343901Y-100462304D01*
X120294191Y-100447224D01*
X120248381Y-100422738D01*
X120208221Y-100389779D01*
X120175262Y-100349619D01*
X120150776Y-100303809D01*
X120135696Y-100254099D01*
X120130000Y-100196260D01*
X120130000Y-98939740D01*
X120135696Y-98881901D01*
X120150776Y-98832191D01*
X120175262Y-98786381D01*
X120208221Y-98746221D01*
X120248381Y-98713262D01*
X120294191Y-98688776D01*
X120343901Y-98673696D01*
X120401740Y-98668000D01*
X121408260Y-98668000D01*
X121466099Y-98673696D01*
X121466099Y-98673696D01*
G37*
G36*
X118516099Y-98673696D02*
G01*
X118565809Y-98688776D01*
X118611619Y-98713262D01*
X118651779Y-98746221D01*
X118684738Y-98786381D01*
X118709224Y-98832191D01*
X118724304Y-98881901D01*
X118730000Y-98939740D01*
X118730000Y-100196260D01*
X118724304Y-100254099D01*
X118709224Y-100303809D01*
X118684738Y-100349619D01*
X118651779Y-100389779D01*
X118611619Y-100422738D01*
X118565809Y-100447224D01*
X118516099Y-100462304D01*
X118458260Y-100468000D01*
X117451740Y-100468000D01*
X117393901Y-100462304D01*
X117344191Y-100447224D01*
X117298381Y-100422738D01*
X117258221Y-100389779D01*
X117225262Y-100349619D01*
X117200776Y-100303809D01*
X117185696Y-100254099D01*
X117180000Y-100196260D01*
X117180000Y-98939740D01*
X117185696Y-98881901D01*
X117200776Y-98832191D01*
X117225262Y-98786381D01*
X117258221Y-98746221D01*
X117298381Y-98713262D01*
X117344191Y-98688776D01*
X117393901Y-98673696D01*
X117451740Y-98668000D01*
X118458260Y-98668000D01*
X118516099Y-98673696D01*
X118516099Y-98673696D01*
G37*
G36*
X162433299Y-95905696D02*
G01*
X162483009Y-95920776D01*
X162528819Y-95945262D01*
X162568979Y-95978221D01*
X162601938Y-96018381D01*
X162626424Y-96064191D01*
X162641504Y-96113901D01*
X162647200Y-96171740D01*
X162647200Y-97178260D01*
X162641504Y-97236099D01*
X162626424Y-97285809D01*
X162601938Y-97331619D01*
X162568979Y-97371779D01*
X162528819Y-97404738D01*
X162483009Y-97429224D01*
X162433299Y-97444304D01*
X162375460Y-97450000D01*
X161457201Y-97450000D01*
X161432815Y-97452402D01*
X161409366Y-97459515D01*
X161387755Y-97471066D01*
X161368813Y-97486611D01*
X161353268Y-97505553D01*
X161341717Y-97527164D01*
X161334604Y-97550613D01*
X161332202Y-97574999D01*
X161334604Y-97599385D01*
X161341717Y-97622834D01*
X161353268Y-97644445D01*
X161368813Y-97663387D01*
X161387755Y-97678932D01*
X161405613Y-97688856D01*
X161439515Y-97704217D01*
X161495459Y-97736517D01*
X161495465Y-97736519D01*
X161983600Y-98018344D01*
X162527685Y-98332471D01*
X162574932Y-98366328D01*
X162610440Y-98404239D01*
X162637875Y-98448358D01*
X162656174Y-98496975D01*
X162664635Y-98548227D01*
X162662935Y-98600148D01*
X162651138Y-98650745D01*
X162627155Y-98703676D01*
X162123897Y-99575345D01*
X162090038Y-99622594D01*
X162052130Y-99658099D01*
X162008007Y-99685536D01*
X161959392Y-99703834D01*
X161908140Y-99712295D01*
X161856219Y-99710595D01*
X161805625Y-99698798D01*
X161752685Y-99674811D01*
X161696741Y-99642511D01*
X161696735Y-99642509D01*
X161106702Y-99301853D01*
X160664515Y-99046557D01*
X160617268Y-99012700D01*
X160581760Y-98974789D01*
X160554325Y-98930670D01*
X160536026Y-98882053D01*
X160527565Y-98830801D01*
X160529265Y-98778880D01*
X160541062Y-98728283D01*
X160565045Y-98675352D01*
X161068303Y-97803683D01*
X161102162Y-97756434D01*
X161140070Y-97720929D01*
X161184193Y-97693492D01*
X161188194Y-97691986D01*
X161210171Y-97681148D01*
X161229612Y-97666231D01*
X161245768Y-97647808D01*
X161258020Y-97626587D01*
X161265897Y-97603383D01*
X161269095Y-97579088D01*
X161267492Y-97554637D01*
X161261150Y-97530968D01*
X161250312Y-97508991D01*
X161235395Y-97489550D01*
X161216972Y-97473394D01*
X161195751Y-97461142D01*
X161172547Y-97453265D01*
X161144163Y-97450000D01*
X161118940Y-97450000D01*
X161061101Y-97444304D01*
X161011391Y-97429224D01*
X160965581Y-97404738D01*
X160925421Y-97371779D01*
X160892462Y-97331619D01*
X160867976Y-97285809D01*
X160852896Y-97236099D01*
X160847200Y-97178260D01*
X160847200Y-96171740D01*
X160852896Y-96113901D01*
X160867976Y-96064191D01*
X160892462Y-96018381D01*
X160925421Y-95978221D01*
X160965581Y-95945262D01*
X161011391Y-95920776D01*
X161061101Y-95905696D01*
X161118940Y-95900000D01*
X162375460Y-95900000D01*
X162433299Y-95905696D01*
X162433299Y-95905696D01*
G37*
G36*
X146481529Y-97570510D02*
G01*
X146531378Y-97585631D01*
X146577310Y-97610182D01*
X146617574Y-97643226D01*
X146650618Y-97683490D01*
X146675169Y-97729422D01*
X146690290Y-97779271D01*
X146696000Y-97837242D01*
X146696000Y-98842356D01*
X146690290Y-98900329D01*
X146675169Y-98950178D01*
X146650618Y-98996110D01*
X146617574Y-99036374D01*
X146577310Y-99069418D01*
X146531378Y-99093969D01*
X146481529Y-99109090D01*
X146423556Y-99114800D01*
X145168444Y-99114800D01*
X145110471Y-99109090D01*
X145060622Y-99093969D01*
X145014690Y-99069418D01*
X144974426Y-99036374D01*
X144941382Y-98996110D01*
X144916831Y-98950178D01*
X144901710Y-98900329D01*
X144896000Y-98842356D01*
X144896000Y-97837242D01*
X144901710Y-97779271D01*
X144916831Y-97729422D01*
X144941382Y-97683490D01*
X144974426Y-97643226D01*
X145014690Y-97610182D01*
X145060622Y-97585631D01*
X145110471Y-97570510D01*
X145168444Y-97564800D01*
X146423556Y-97564800D01*
X146481529Y-97570510D01*
X146481529Y-97570510D01*
G37*
G36*
X151459899Y-96870296D02*
G01*
X151509609Y-96885376D01*
X151555419Y-96909862D01*
X151595579Y-96942821D01*
X151628538Y-96982981D01*
X151653024Y-97028791D01*
X151668104Y-97078501D01*
X151673800Y-97136340D01*
X151673800Y-98392860D01*
X151668104Y-98450699D01*
X151653024Y-98500409D01*
X151628538Y-98546219D01*
X151595579Y-98586379D01*
X151555419Y-98619338D01*
X151509609Y-98643824D01*
X151459899Y-98658904D01*
X151402060Y-98664600D01*
X150395540Y-98664600D01*
X150337701Y-98658904D01*
X150287991Y-98643824D01*
X150242181Y-98619338D01*
X150202021Y-98586379D01*
X150169062Y-98546219D01*
X150144576Y-98500409D01*
X150129496Y-98450699D01*
X150123800Y-98392860D01*
X150123800Y-97136340D01*
X150129496Y-97078501D01*
X150144576Y-97028791D01*
X150169062Y-96982981D01*
X150202021Y-96942821D01*
X150242181Y-96909862D01*
X150287991Y-96885376D01*
X150337701Y-96870296D01*
X150395540Y-96864600D01*
X151402060Y-96864600D01*
X151459899Y-96870296D01*
X151459899Y-96870296D01*
G37*
G36*
X154409899Y-96870296D02*
G01*
X154459609Y-96885376D01*
X154505419Y-96909862D01*
X154545579Y-96942821D01*
X154578538Y-96982981D01*
X154603024Y-97028791D01*
X154618104Y-97078501D01*
X154623800Y-97136340D01*
X154623800Y-98392860D01*
X154618104Y-98450699D01*
X154603024Y-98500409D01*
X154578538Y-98546219D01*
X154545579Y-98586379D01*
X154505419Y-98619338D01*
X154459609Y-98643824D01*
X154409899Y-98658904D01*
X154352060Y-98664600D01*
X153345540Y-98664600D01*
X153287701Y-98658904D01*
X153237991Y-98643824D01*
X153192181Y-98619338D01*
X153152021Y-98586379D01*
X153119062Y-98546219D01*
X153094576Y-98500409D01*
X153079496Y-98450699D01*
X153073800Y-98392860D01*
X153073800Y-97136340D01*
X153079496Y-97078501D01*
X153094576Y-97028791D01*
X153119062Y-96982981D01*
X153152021Y-96942821D01*
X153192181Y-96909862D01*
X153237991Y-96885376D01*
X153287701Y-96870296D01*
X153345540Y-96864600D01*
X154352060Y-96864600D01*
X154409899Y-96870296D01*
X154409899Y-96870296D01*
G37*
G36*
X115722099Y-95943196D02*
G01*
X115771809Y-95958276D01*
X115817619Y-95982762D01*
X115857779Y-96015721D01*
X115890738Y-96055881D01*
X115915224Y-96101691D01*
X115930304Y-96151401D01*
X115936000Y-96209240D01*
X115936000Y-97465760D01*
X115930304Y-97523599D01*
X115915224Y-97573309D01*
X115890738Y-97619119D01*
X115857779Y-97659279D01*
X115817619Y-97692238D01*
X115771809Y-97716724D01*
X115722099Y-97731804D01*
X115664260Y-97737500D01*
X114657740Y-97737500D01*
X114599901Y-97731804D01*
X114550191Y-97716724D01*
X114504378Y-97692236D01*
X114490572Y-97680906D01*
X114470198Y-97667293D01*
X114447559Y-97657915D01*
X114423526Y-97653135D01*
X114399022Y-97653135D01*
X114374989Y-97657915D01*
X114352350Y-97667293D01*
X114331975Y-97680907D01*
X114314648Y-97698234D01*
X114301035Y-97718608D01*
X114291657Y-97741247D01*
X114287944Y-97757171D01*
X114280072Y-97804853D01*
X114261776Y-97853464D01*
X114234339Y-97897587D01*
X114198832Y-97935497D01*
X114151585Y-97969354D01*
X113607500Y-98283481D01*
X113119365Y-98565306D01*
X113119359Y-98565308D01*
X113063415Y-98597608D01*
X113010475Y-98621595D01*
X112959880Y-98633392D01*
X112907959Y-98635092D01*
X112856707Y-98626631D01*
X112808090Y-98608332D01*
X112763971Y-98580897D01*
X112726062Y-98545391D01*
X112692203Y-98498142D01*
X112188945Y-97626473D01*
X112164962Y-97573542D01*
X112153165Y-97522946D01*
X112151465Y-97471025D01*
X112159926Y-97419773D01*
X112178224Y-97371158D01*
X112205661Y-97327035D01*
X112241168Y-97289125D01*
X112288415Y-97255268D01*
X112982522Y-96854526D01*
X113320635Y-96659316D01*
X113320641Y-96659314D01*
X113376585Y-96627014D01*
X113429525Y-96603027D01*
X113480120Y-96591230D01*
X113532042Y-96589530D01*
X113583288Y-96597991D01*
X113631912Y-96616291D01*
X113676029Y-96643725D01*
X113713938Y-96679231D01*
X113747797Y-96726480D01*
X114152749Y-97427877D01*
X114167022Y-97447795D01*
X114184906Y-97464545D01*
X114205715Y-97477485D01*
X114228649Y-97486117D01*
X114252826Y-97490108D01*
X114277317Y-97489307D01*
X114301181Y-97483742D01*
X114323501Y-97473629D01*
X114343419Y-97459356D01*
X114360169Y-97441472D01*
X114373109Y-97420663D01*
X114381741Y-97397729D01*
X114386000Y-97365377D01*
X114386000Y-96209240D01*
X114391696Y-96151401D01*
X114406776Y-96101691D01*
X114431262Y-96055881D01*
X114464221Y-96015721D01*
X114504381Y-95982762D01*
X114550191Y-95958276D01*
X114599901Y-95943196D01*
X114657740Y-95937500D01*
X115664260Y-95937500D01*
X115722099Y-95943196D01*
X115722099Y-95943196D01*
G37*
G36*
X148652627Y-94897438D02*
G01*
X148715034Y-94914160D01*
X148715041Y-94914161D01*
X149518901Y-95129555D01*
X149866341Y-95222651D01*
X149920728Y-95243121D01*
X149964844Y-95270554D01*
X150002760Y-95306065D01*
X150033021Y-95348295D01*
X150054457Y-95395605D01*
X150066254Y-95446201D01*
X150067954Y-95498123D01*
X150058489Y-95555456D01*
X149797979Y-96527690D01*
X149777509Y-96582077D01*
X149750074Y-96626196D01*
X149714566Y-96664107D01*
X149672339Y-96694367D01*
X149625023Y-96715805D01*
X149574428Y-96727602D01*
X149522507Y-96729302D01*
X149465173Y-96719836D01*
X149456362Y-96717475D01*
X149432186Y-96713483D01*
X149407695Y-96714284D01*
X149383831Y-96719848D01*
X149361510Y-96729960D01*
X149341592Y-96744233D01*
X149324841Y-96762117D01*
X149311900Y-96782925D01*
X149303268Y-96805859D01*
X149299276Y-96830035D01*
X149300077Y-96854526D01*
X149306545Y-96880962D01*
X149597570Y-97680548D01*
X149597571Y-97680553D01*
X149619666Y-97741258D01*
X149634096Y-97797562D01*
X149636928Y-97849430D01*
X149629586Y-97900856D01*
X149612353Y-97949861D01*
X149585887Y-97994567D01*
X149551215Y-98033245D01*
X149509657Y-98064419D01*
X149457256Y-98089553D01*
X149396550Y-98111648D01*
X149396542Y-98111652D01*
X148337226Y-98497211D01*
X148337220Y-98497212D01*
X148276516Y-98519307D01*
X148220212Y-98533737D01*
X148168344Y-98536569D01*
X148116918Y-98529227D01*
X148067913Y-98511994D01*
X148023207Y-98485528D01*
X147984529Y-98450856D01*
X147953355Y-98409298D01*
X147928221Y-98356897D01*
X147906126Y-98296191D01*
X147906122Y-98296183D01*
X147606068Y-97471790D01*
X147606067Y-97471784D01*
X147583972Y-97411080D01*
X147569542Y-97354776D01*
X147566710Y-97302908D01*
X147574052Y-97251482D01*
X147591285Y-97202477D01*
X147617751Y-97157771D01*
X147652423Y-97119093D01*
X147693981Y-97087919D01*
X147746382Y-97062785D01*
X147807088Y-97040690D01*
X147807096Y-97040686D01*
X148645366Y-96735581D01*
X148667456Y-96724985D01*
X148687058Y-96710281D01*
X148703415Y-96692035D01*
X148715898Y-96670949D01*
X148724027Y-96647833D01*
X148727490Y-96623574D01*
X148726154Y-96599107D01*
X148720071Y-96575370D01*
X148709473Y-96553276D01*
X148694769Y-96533674D01*
X148676523Y-96517317D01*
X148655437Y-96504834D01*
X148634964Y-96497383D01*
X148388269Y-96431281D01*
X148251459Y-96394623D01*
X148197072Y-96374153D01*
X148152956Y-96346720D01*
X148115040Y-96311209D01*
X148084779Y-96268979D01*
X148063343Y-96221669D01*
X148051546Y-96171073D01*
X148049846Y-96119151D01*
X148059311Y-96061818D01*
X148319821Y-95089584D01*
X148340291Y-95035197D01*
X148367726Y-94991078D01*
X148403234Y-94953167D01*
X148445461Y-94922907D01*
X148492777Y-94901469D01*
X148543372Y-94889672D01*
X148595293Y-94887972D01*
X148652627Y-94897438D01*
X148652627Y-94897438D01*
G37*
G36*
X126774482Y-93925926D02*
G01*
X126824808Y-93938824D01*
X126871645Y-93961289D01*
X126913203Y-93992463D01*
X126947875Y-94031141D01*
X126977482Y-94081152D01*
X127004784Y-94139702D01*
X127004789Y-94139710D01*
X127375552Y-94934814D01*
X127375558Y-94934830D01*
X127402858Y-94993376D01*
X127422137Y-95048198D01*
X127429479Y-95099624D01*
X127426647Y-95151492D01*
X127413749Y-95201818D01*
X127391284Y-95248655D01*
X127360109Y-95290214D01*
X127321434Y-95324885D01*
X127271418Y-95354493D01*
X127212874Y-95381793D01*
X127212863Y-95381799D01*
X126191182Y-95858217D01*
X126191165Y-95858223D01*
X126132620Y-95885523D01*
X126077799Y-95904802D01*
X126075725Y-95905098D01*
X126051923Y-95910923D01*
X126029715Y-95921279D01*
X126009954Y-95935769D01*
X125993400Y-95953836D01*
X125980688Y-95974785D01*
X125972308Y-95997811D01*
X125968581Y-96022030D01*
X125969650Y-96046511D01*
X125975475Y-96070313D01*
X125985831Y-96092521D01*
X126000321Y-96112282D01*
X126018388Y-96128836D01*
X126039337Y-96141548D01*
X126061037Y-96149580D01*
X126524818Y-96273850D01*
X126868641Y-96365977D01*
X126923028Y-96386447D01*
X126967144Y-96413880D01*
X127005060Y-96449391D01*
X127035321Y-96491621D01*
X127056757Y-96538931D01*
X127068554Y-96589527D01*
X127070254Y-96641449D01*
X127060789Y-96698782D01*
X126800279Y-97671016D01*
X126779809Y-97725403D01*
X126752374Y-97769522D01*
X126716866Y-97807433D01*
X126674639Y-97837693D01*
X126627323Y-97859131D01*
X126576728Y-97870928D01*
X126524807Y-97872628D01*
X126467473Y-97863162D01*
X126405066Y-97846440D01*
X126405059Y-97846439D01*
X125431711Y-97585631D01*
X125253759Y-97537949D01*
X125199372Y-97517479D01*
X125155256Y-97490046D01*
X125117340Y-97454535D01*
X125087079Y-97412305D01*
X125065643Y-97364995D01*
X125053846Y-97314399D01*
X125052146Y-97262477D01*
X125061611Y-97205144D01*
X125322121Y-96232910D01*
X125342591Y-96178523D01*
X125370026Y-96134404D01*
X125405534Y-96096493D01*
X125447761Y-96066233D01*
X125495077Y-96044795D01*
X125545672Y-96032998D01*
X125597593Y-96031298D01*
X125654924Y-96040763D01*
X125717330Y-96057485D01*
X125717341Y-96057487D01*
X125722106Y-96058764D01*
X125746272Y-96062753D01*
X125770763Y-96061952D01*
X125794627Y-96056387D01*
X125816947Y-96046275D01*
X125836865Y-96032001D01*
X125853616Y-96014117D01*
X125866556Y-95993308D01*
X125875188Y-95970375D01*
X125879179Y-95946198D01*
X125878378Y-95921707D01*
X125872813Y-95897843D01*
X125862701Y-95875523D01*
X125848427Y-95855605D01*
X125841683Y-95849357D01*
X125801111Y-95804097D01*
X125771504Y-95754086D01*
X125744202Y-95695536D01*
X125744197Y-95695528D01*
X125373434Y-94900424D01*
X125373428Y-94900408D01*
X125346128Y-94841862D01*
X125326849Y-94787040D01*
X125319507Y-94735614D01*
X125322339Y-94683746D01*
X125335237Y-94633420D01*
X125357702Y-94586583D01*
X125388877Y-94545024D01*
X125427552Y-94510353D01*
X125477568Y-94480745D01*
X125536112Y-94453445D01*
X125536123Y-94453439D01*
X126557804Y-93977021D01*
X126557821Y-93977015D01*
X126616366Y-93949715D01*
X126671188Y-93930436D01*
X126722614Y-93923094D01*
X126774482Y-93925926D01*
X126774482Y-93925926D01*
G37*
G36*
X118672099Y-95943196D02*
G01*
X118721809Y-95958276D01*
X118767619Y-95982762D01*
X118807779Y-96015721D01*
X118840738Y-96055881D01*
X118865224Y-96101691D01*
X118880304Y-96151401D01*
X118886000Y-96209240D01*
X118886000Y-97465760D01*
X118880304Y-97523599D01*
X118865224Y-97573309D01*
X118840738Y-97619119D01*
X118807779Y-97659279D01*
X118767619Y-97692238D01*
X118721809Y-97716724D01*
X118672099Y-97731804D01*
X118614260Y-97737500D01*
X117607740Y-97737500D01*
X117549901Y-97731804D01*
X117500191Y-97716724D01*
X117454381Y-97692238D01*
X117414221Y-97659279D01*
X117381262Y-97619119D01*
X117356776Y-97573309D01*
X117341696Y-97523599D01*
X117336000Y-97465760D01*
X117336000Y-96209240D01*
X117341696Y-96151401D01*
X117356776Y-96101691D01*
X117381262Y-96055881D01*
X117414221Y-96015721D01*
X117454381Y-95982762D01*
X117500191Y-95958276D01*
X117549901Y-95943196D01*
X117607740Y-95937500D01*
X118614260Y-95937500D01*
X118672099Y-95943196D01*
X118672099Y-95943196D01*
G37*
G36*
X165429929Y-95759710D02*
G01*
X165479778Y-95774831D01*
X165525710Y-95799382D01*
X165565974Y-95832426D01*
X165599018Y-95872690D01*
X165623569Y-95918622D01*
X165638690Y-95968471D01*
X165644400Y-96026444D01*
X165644400Y-97031556D01*
X165638690Y-97089529D01*
X165623569Y-97139378D01*
X165599018Y-97185310D01*
X165565974Y-97225574D01*
X165525710Y-97258618D01*
X165479778Y-97283169D01*
X165429929Y-97298290D01*
X165371956Y-97304000D01*
X164116844Y-97304000D01*
X164058871Y-97298290D01*
X164009022Y-97283169D01*
X163963090Y-97258618D01*
X163922826Y-97225574D01*
X163889782Y-97185310D01*
X163865231Y-97139378D01*
X163850110Y-97089529D01*
X163844400Y-97031556D01*
X163844400Y-96026444D01*
X163850110Y-95968471D01*
X163865231Y-95918622D01*
X163889782Y-95872690D01*
X163922826Y-95832426D01*
X163963090Y-95799382D01*
X164009022Y-95774831D01*
X164058871Y-95759710D01*
X164116844Y-95754000D01*
X165371956Y-95754000D01*
X165429929Y-95759710D01*
X165429929Y-95759710D01*
G37*
G36*
X157154514Y-95087334D02*
G01*
X157204224Y-95102414D01*
X157250034Y-95126900D01*
X157294965Y-95163774D01*
X158006680Y-95875489D01*
X158043554Y-95920420D01*
X158068040Y-95966230D01*
X158083120Y-96015940D01*
X158088211Y-96067639D01*
X158083120Y-96119338D01*
X158068040Y-96169048D01*
X158043554Y-96214858D01*
X158006680Y-96259789D01*
X157118189Y-97148280D01*
X157073258Y-97185154D01*
X157027448Y-97209640D01*
X156977738Y-97224720D01*
X156926039Y-97229811D01*
X156874340Y-97224720D01*
X156824630Y-97209640D01*
X156778820Y-97185154D01*
X156733889Y-97148280D01*
X156022174Y-96436565D01*
X155985300Y-96391634D01*
X155960814Y-96345824D01*
X155945734Y-96296114D01*
X155940643Y-96244415D01*
X155945734Y-96192716D01*
X155960814Y-96143006D01*
X155985300Y-96097196D01*
X156022174Y-96052265D01*
X156910665Y-95163774D01*
X156955596Y-95126900D01*
X157001406Y-95102414D01*
X157051116Y-95087334D01*
X157102815Y-95082243D01*
X157154514Y-95087334D01*
X157154514Y-95087334D01*
G37*
G36*
X112864027Y-94541838D02*
G01*
X112926434Y-94558560D01*
X112926441Y-94558561D01*
X113776295Y-94786279D01*
X114077741Y-94867051D01*
X114132128Y-94887521D01*
X114176244Y-94914954D01*
X114214160Y-94950465D01*
X114244421Y-94992695D01*
X114265857Y-95040005D01*
X114277654Y-95090601D01*
X114279354Y-95142523D01*
X114269889Y-95199856D01*
X114009379Y-96172090D01*
X113988909Y-96226477D01*
X113961474Y-96270596D01*
X113925966Y-96308507D01*
X113883739Y-96338767D01*
X113836423Y-96360205D01*
X113785828Y-96372002D01*
X113733907Y-96373702D01*
X113676567Y-96364235D01*
X113654546Y-96358335D01*
X113646449Y-96356998D01*
X113641413Y-96354815D01*
X113614166Y-96347514D01*
X113614159Y-96347513D01*
X112679964Y-96097196D01*
X112462859Y-96039023D01*
X112408472Y-96018553D01*
X112364356Y-95991120D01*
X112326440Y-95955609D01*
X112296179Y-95913379D01*
X112274743Y-95866069D01*
X112262946Y-95815473D01*
X112261246Y-95763551D01*
X112270711Y-95706218D01*
X112531221Y-94733984D01*
X112551691Y-94679597D01*
X112579126Y-94635478D01*
X112614634Y-94597567D01*
X112656861Y-94567307D01*
X112704177Y-94545869D01*
X112754772Y-94534072D01*
X112806693Y-94532372D01*
X112864027Y-94541838D01*
X112864027Y-94541838D01*
G37*
G36*
X123220114Y-92648934D02*
G01*
X123269824Y-92664014D01*
X123315634Y-92688500D01*
X123360565Y-92725374D01*
X124072280Y-93437089D01*
X124109154Y-93482020D01*
X124133640Y-93527830D01*
X124148720Y-93577540D01*
X124153811Y-93629239D01*
X124148720Y-93680938D01*
X124133640Y-93730648D01*
X124109154Y-93776458D01*
X124072280Y-93821389D01*
X123183789Y-94709880D01*
X123138858Y-94746754D01*
X123093048Y-94771240D01*
X123043338Y-94786320D01*
X122991638Y-94791411D01*
X122959729Y-94788269D01*
X122935225Y-94788269D01*
X122911191Y-94793050D01*
X122888553Y-94802427D01*
X122868178Y-94816041D01*
X122850852Y-94833369D01*
X122837238Y-94853743D01*
X122827861Y-94876382D01*
X122823081Y-94900415D01*
X122823081Y-94924919D01*
X122827863Y-94948957D01*
X122827920Y-94949145D01*
X122833011Y-95000839D01*
X122827920Y-95052538D01*
X122812840Y-95102248D01*
X122788354Y-95148058D01*
X122751480Y-95192989D01*
X121862989Y-96081480D01*
X121818058Y-96118354D01*
X121772248Y-96142840D01*
X121722538Y-96157920D01*
X121670839Y-96163011D01*
X121619140Y-96157920D01*
X121569430Y-96142840D01*
X121523620Y-96118354D01*
X121478689Y-96081480D01*
X120766974Y-95369765D01*
X120730100Y-95324834D01*
X120705614Y-95279024D01*
X120690534Y-95229314D01*
X120685443Y-95177615D01*
X120690534Y-95125916D01*
X120705614Y-95076206D01*
X120730100Y-95030396D01*
X120766974Y-94985465D01*
X121655465Y-94096974D01*
X121700396Y-94060100D01*
X121746206Y-94035614D01*
X121795916Y-94020534D01*
X121847616Y-94015443D01*
X121879525Y-94018585D01*
X121904029Y-94018585D01*
X121928063Y-94013804D01*
X121950701Y-94004427D01*
X121971076Y-93990813D01*
X121988402Y-93973485D01*
X122002016Y-93953111D01*
X122011393Y-93930472D01*
X122016173Y-93906439D01*
X122016173Y-93881935D01*
X122011391Y-93857897D01*
X122011334Y-93857709D01*
X122006243Y-93806015D01*
X122011334Y-93754316D01*
X122026414Y-93704606D01*
X122050900Y-93658796D01*
X122087774Y-93613865D01*
X122976265Y-92725374D01*
X123021196Y-92688500D01*
X123067006Y-92664014D01*
X123116716Y-92648934D01*
X123168415Y-92643843D01*
X123220114Y-92648934D01*
X123220114Y-92648934D01*
G37*
G36*
X158678514Y-93512534D02*
G01*
X158728224Y-93527614D01*
X158774034Y-93552100D01*
X158818965Y-93588974D01*
X159530680Y-94300689D01*
X159567554Y-94345620D01*
X159592040Y-94391430D01*
X159607120Y-94441140D01*
X159612211Y-94492839D01*
X159607120Y-94544538D01*
X159592040Y-94594248D01*
X159567554Y-94640058D01*
X159530680Y-94684989D01*
X158642189Y-95573480D01*
X158597258Y-95610354D01*
X158551448Y-95634840D01*
X158501738Y-95649920D01*
X158450039Y-95655011D01*
X158398340Y-95649920D01*
X158348630Y-95634840D01*
X158302820Y-95610354D01*
X158257889Y-95573480D01*
X157546174Y-94861765D01*
X157509300Y-94816834D01*
X157484814Y-94771024D01*
X157469734Y-94721314D01*
X157464643Y-94669615D01*
X157469734Y-94617916D01*
X157484814Y-94568206D01*
X157509300Y-94522396D01*
X157546174Y-94477465D01*
X158434665Y-93588974D01*
X158479596Y-93552100D01*
X158525406Y-93527614D01*
X158575116Y-93512534D01*
X158626815Y-93507443D01*
X158678514Y-93512534D01*
X158678514Y-93512534D01*
G37*
G36*
X133083029Y-93981710D02*
G01*
X133132878Y-93996831D01*
X133178810Y-94021382D01*
X133219074Y-94054426D01*
X133252118Y-94094690D01*
X133276669Y-94140622D01*
X133291790Y-94190471D01*
X133297500Y-94248444D01*
X133297500Y-95253556D01*
X133291790Y-95311529D01*
X133276669Y-95361378D01*
X133252118Y-95407310D01*
X133219074Y-95447574D01*
X133178810Y-95480618D01*
X133132878Y-95505169D01*
X133083029Y-95520290D01*
X133025056Y-95526000D01*
X131769944Y-95526000D01*
X131711971Y-95520290D01*
X131662122Y-95505169D01*
X131616190Y-95480618D01*
X131575926Y-95447574D01*
X131542882Y-95407310D01*
X131518331Y-95361378D01*
X131503210Y-95311529D01*
X131497500Y-95253556D01*
X131497500Y-94248444D01*
X131503210Y-94190471D01*
X131518331Y-94140622D01*
X131542882Y-94094690D01*
X131575926Y-94054426D01*
X131616190Y-94021382D01*
X131662122Y-93996831D01*
X131711971Y-93981710D01*
X131769944Y-93976000D01*
X133025056Y-93976000D01*
X133083029Y-93981710D01*
X133083029Y-93981710D01*
G37*
G36*
X165429929Y-93709710D02*
G01*
X165479778Y-93724831D01*
X165525710Y-93749382D01*
X165565974Y-93782426D01*
X165599018Y-93822690D01*
X165623569Y-93868622D01*
X165638690Y-93918471D01*
X165644400Y-93976444D01*
X165644400Y-94981556D01*
X165638690Y-95039529D01*
X165623569Y-95089378D01*
X165599018Y-95135310D01*
X165565974Y-95175574D01*
X165525710Y-95208618D01*
X165479778Y-95233169D01*
X165429929Y-95248290D01*
X165371956Y-95254000D01*
X164116844Y-95254000D01*
X164058871Y-95248290D01*
X164009022Y-95233169D01*
X163963090Y-95208618D01*
X163922826Y-95175574D01*
X163889782Y-95135310D01*
X163865231Y-95089378D01*
X163850110Y-95039529D01*
X163844400Y-94981556D01*
X163844400Y-93976444D01*
X163850110Y-93918471D01*
X163865231Y-93868622D01*
X163889782Y-93822690D01*
X163922826Y-93782426D01*
X163963090Y-93749382D01*
X164009022Y-93724831D01*
X164058871Y-93709710D01*
X164116844Y-93704000D01*
X165371956Y-93704000D01*
X165429929Y-93709710D01*
X165429929Y-93709710D01*
G37*
G36*
X155068550Y-93001370D02*
G01*
X155118260Y-93016450D01*
X155164070Y-93040936D01*
X155209001Y-93077810D01*
X155920716Y-93789525D01*
X155957590Y-93834456D01*
X155982076Y-93880266D01*
X155997156Y-93929976D01*
X156002247Y-93981675D01*
X155997156Y-94033374D01*
X155982076Y-94083084D01*
X155957590Y-94128894D01*
X155920716Y-94173825D01*
X155032225Y-95062316D01*
X154987294Y-95099190D01*
X154941484Y-95123676D01*
X154891774Y-95138756D01*
X154840075Y-95143847D01*
X154788376Y-95138756D01*
X154738666Y-95123676D01*
X154692856Y-95099190D01*
X154647925Y-95062316D01*
X153936210Y-94350601D01*
X153899336Y-94305670D01*
X153874850Y-94259860D01*
X153859770Y-94210150D01*
X153854679Y-94158451D01*
X153859770Y-94106752D01*
X153874850Y-94057042D01*
X153899336Y-94011232D01*
X153936210Y-93966301D01*
X154824701Y-93077810D01*
X154869632Y-93040936D01*
X154915442Y-93016450D01*
X154965152Y-93001370D01*
X155016851Y-92996279D01*
X155068550Y-93001370D01*
X155068550Y-93001370D01*
G37*
G36*
X160472630Y-91140217D02*
G01*
X160523466Y-91150906D01*
X160571235Y-91171306D01*
X160619207Y-91204122D01*
X160668694Y-91245646D01*
X160668702Y-91245652D01*
X161340753Y-91809570D01*
X161340760Y-91809577D01*
X161390251Y-91851105D01*
X161430888Y-91892638D01*
X161459280Y-91936149D01*
X161478634Y-91984354D01*
X161488212Y-92035409D01*
X161487644Y-92087359D01*
X161476956Y-92138192D01*
X161456552Y-92185971D01*
X161423745Y-92233929D01*
X161382219Y-92283418D01*
X161382210Y-92283431D01*
X160993224Y-92747006D01*
X160979394Y-92767224D01*
X160969770Y-92789759D01*
X160964728Y-92813739D01*
X160964461Y-92838242D01*
X160968979Y-92862325D01*
X160978109Y-92885065D01*
X160991499Y-92905587D01*
X161008636Y-92923102D01*
X161028861Y-92936937D01*
X161051396Y-92946561D01*
X161075376Y-92951603D01*
X161101238Y-92951744D01*
X161118943Y-92950000D01*
X162375460Y-92950000D01*
X162433299Y-92955696D01*
X162483009Y-92970776D01*
X162528819Y-92995262D01*
X162568979Y-93028221D01*
X162601938Y-93068381D01*
X162626424Y-93114191D01*
X162641504Y-93163901D01*
X162647200Y-93221740D01*
X162647200Y-94228260D01*
X162641504Y-94286099D01*
X162626424Y-94335809D01*
X162601938Y-94381619D01*
X162568979Y-94421779D01*
X162528819Y-94454738D01*
X162483009Y-94479224D01*
X162433299Y-94494304D01*
X162375460Y-94500000D01*
X161118940Y-94500000D01*
X161061101Y-94494304D01*
X161011391Y-94479224D01*
X160965581Y-94454738D01*
X160925421Y-94421779D01*
X160892462Y-94381619D01*
X160867976Y-94335809D01*
X160852896Y-94286099D01*
X160847200Y-94228260D01*
X160847200Y-93264463D01*
X160844798Y-93240077D01*
X160837685Y-93216628D01*
X160826134Y-93195017D01*
X160810589Y-93176075D01*
X160791647Y-93160530D01*
X160770036Y-93148979D01*
X160746587Y-93141866D01*
X160722201Y-93139464D01*
X160697815Y-93141866D01*
X160674366Y-93148979D01*
X160652755Y-93160530D01*
X160626447Y-93184114D01*
X160616061Y-93196491D01*
X160574525Y-93237130D01*
X160531019Y-93265519D01*
X160482812Y-93284873D01*
X160431753Y-93294453D01*
X160379806Y-93293885D01*
X160328970Y-93283196D01*
X160281201Y-93262796D01*
X160233229Y-93229980D01*
X160183742Y-93188456D01*
X160183734Y-93188450D01*
X159511683Y-92624532D01*
X159511676Y-92624525D01*
X159462185Y-92582997D01*
X159421548Y-92541464D01*
X159393156Y-92497953D01*
X159373802Y-92449748D01*
X159364224Y-92398693D01*
X159364792Y-92346743D01*
X159375480Y-92295910D01*
X159395884Y-92248131D01*
X159428691Y-92200173D01*
X159470217Y-92150684D01*
X159470226Y-92150671D01*
X160194841Y-91287109D01*
X160194844Y-91287106D01*
X160236376Y-91237610D01*
X160277911Y-91196972D01*
X160321417Y-91168583D01*
X160369624Y-91149229D01*
X160420683Y-91139649D01*
X160472630Y-91140217D01*
X160472630Y-91140217D01*
G37*
G36*
X122886499Y-89224896D02*
G01*
X122936209Y-89239976D01*
X122982019Y-89264462D01*
X123022179Y-89297421D01*
X123055138Y-89337581D01*
X123079624Y-89383391D01*
X123094704Y-89433101D01*
X123100400Y-89490940D01*
X123100400Y-90747460D01*
X123094704Y-90805299D01*
X123079624Y-90855009D01*
X123055138Y-90900819D01*
X123022179Y-90940979D01*
X122982019Y-90973938D01*
X122936209Y-90998424D01*
X122886499Y-91013504D01*
X122828660Y-91019200D01*
X121956166Y-91019200D01*
X121931780Y-91021602D01*
X121908331Y-91028715D01*
X121886720Y-91040266D01*
X121867778Y-91055811D01*
X121852233Y-91074753D01*
X121840682Y-91096364D01*
X121833569Y-91119813D01*
X121831167Y-91144199D01*
X121833569Y-91168585D01*
X121840682Y-91192034D01*
X121852233Y-91213645D01*
X121867778Y-91232587D01*
X121986316Y-91351125D01*
X122023190Y-91396056D01*
X122047676Y-91441866D01*
X122062756Y-91491576D01*
X122067847Y-91543275D01*
X122062756Y-91594974D01*
X122047676Y-91644684D01*
X122023190Y-91690494D01*
X121986316Y-91735425D01*
X121097825Y-92623916D01*
X121052894Y-92660790D01*
X121007084Y-92685276D01*
X120957374Y-92700356D01*
X120905674Y-92705447D01*
X120873765Y-92702305D01*
X120849261Y-92702305D01*
X120825227Y-92707086D01*
X120802589Y-92716463D01*
X120782214Y-92730077D01*
X120764888Y-92747405D01*
X120751274Y-92767779D01*
X120741897Y-92790418D01*
X120737117Y-92814451D01*
X120737117Y-92838955D01*
X120741899Y-92862993D01*
X120741956Y-92863181D01*
X120747047Y-92914875D01*
X120741956Y-92966574D01*
X120726876Y-93016284D01*
X120702390Y-93062094D01*
X120665516Y-93107025D01*
X119777025Y-93995516D01*
X119732094Y-94032390D01*
X119686284Y-94056876D01*
X119636574Y-94071956D01*
X119584875Y-94077047D01*
X119533176Y-94071956D01*
X119483466Y-94056876D01*
X119437656Y-94032390D01*
X119392725Y-93995516D01*
X118681010Y-93283801D01*
X118644136Y-93238870D01*
X118619650Y-93193060D01*
X118604570Y-93143350D01*
X118599479Y-93091651D01*
X118604570Y-93039952D01*
X118619650Y-92990242D01*
X118644136Y-92944432D01*
X118681010Y-92899501D01*
X119569501Y-92011010D01*
X119614432Y-91974136D01*
X119660242Y-91949650D01*
X119709952Y-91934570D01*
X119761652Y-91929479D01*
X119793561Y-91932621D01*
X119818065Y-91932621D01*
X119842099Y-91927840D01*
X119864737Y-91918463D01*
X119885112Y-91904849D01*
X119902438Y-91887521D01*
X119916052Y-91867147D01*
X119925429Y-91844508D01*
X119930209Y-91820475D01*
X119930209Y-91795971D01*
X119925427Y-91771933D01*
X119925370Y-91771745D01*
X119920279Y-91720051D01*
X119925370Y-91668352D01*
X119940450Y-91618642D01*
X119964936Y-91572832D01*
X120001810Y-91527901D01*
X120890301Y-90639410D01*
X120935232Y-90602536D01*
X120981042Y-90578050D01*
X121030752Y-90562970D01*
X121082451Y-90557879D01*
X121134150Y-90562970D01*
X121183860Y-90578050D01*
X121229670Y-90602536D01*
X121274601Y-90639410D01*
X121337013Y-90701822D01*
X121355955Y-90717367D01*
X121377566Y-90728918D01*
X121401015Y-90736031D01*
X121425401Y-90738433D01*
X121449787Y-90736031D01*
X121473236Y-90728918D01*
X121494847Y-90717367D01*
X121513789Y-90701822D01*
X121529334Y-90682880D01*
X121540885Y-90661269D01*
X121547998Y-90637820D01*
X121550400Y-90613434D01*
X121550400Y-89490940D01*
X121556096Y-89433101D01*
X121571176Y-89383391D01*
X121595662Y-89337581D01*
X121628621Y-89297421D01*
X121668781Y-89264462D01*
X121714591Y-89239976D01*
X121764301Y-89224896D01*
X121822140Y-89219200D01*
X122828660Y-89219200D01*
X122886499Y-89224896D01*
X122886499Y-89224896D01*
G37*
G36*
X149455713Y-92026445D02*
G01*
X149471258Y-92045387D01*
X149490200Y-92060932D01*
X149511811Y-92072483D01*
X149527287Y-92077737D01*
X150206218Y-92259656D01*
X150629859Y-92373170D01*
X150684246Y-92393640D01*
X150728362Y-92421073D01*
X150766278Y-92456584D01*
X150796539Y-92498814D01*
X150817975Y-92546124D01*
X150829772Y-92596720D01*
X150831472Y-92648642D01*
X150822007Y-92705975D01*
X150561497Y-93678209D01*
X150541027Y-93732596D01*
X150513592Y-93776715D01*
X150478084Y-93814626D01*
X150435857Y-93844886D01*
X150388541Y-93866324D01*
X150337946Y-93878121D01*
X150286025Y-93879821D01*
X150228691Y-93870355D01*
X150166284Y-93853633D01*
X150166277Y-93853632D01*
X149316423Y-93625914D01*
X149014977Y-93545142D01*
X148960590Y-93524672D01*
X148916474Y-93497239D01*
X148878558Y-93461728D01*
X148848297Y-93419498D01*
X148826861Y-93372188D01*
X148815064Y-93321592D01*
X148813364Y-93269670D01*
X148822829Y-93212337D01*
X149083339Y-92240103D01*
X149103809Y-92185716D01*
X149131244Y-92141597D01*
X149166752Y-92103686D01*
X149208979Y-92073426D01*
X149256295Y-92051988D01*
X149306890Y-92040191D01*
X149358939Y-92038487D01*
X149383122Y-92040072D01*
X149407417Y-92036875D01*
X149430621Y-92028999D01*
X149450839Y-92017327D01*
X149455713Y-92026445D01*
X149455713Y-92026445D01*
G37*
G36*
X156592550Y-91426570D02*
G01*
X156642260Y-91441650D01*
X156688070Y-91466136D01*
X156733001Y-91503010D01*
X157444716Y-92214725D01*
X157481590Y-92259656D01*
X157506076Y-92305466D01*
X157521156Y-92355176D01*
X157526247Y-92406875D01*
X157521156Y-92458574D01*
X157506076Y-92508284D01*
X157481590Y-92554094D01*
X157444716Y-92599025D01*
X156556225Y-93487516D01*
X156511294Y-93524390D01*
X156465484Y-93548876D01*
X156415774Y-93563956D01*
X156364075Y-93569047D01*
X156312376Y-93563956D01*
X156262666Y-93548876D01*
X156216856Y-93524390D01*
X156171925Y-93487516D01*
X155460210Y-92775801D01*
X155423336Y-92730870D01*
X155398850Y-92685060D01*
X155383770Y-92635350D01*
X155378679Y-92583651D01*
X155383770Y-92531952D01*
X155398850Y-92482242D01*
X155423336Y-92436432D01*
X155460210Y-92391501D01*
X156348701Y-91503010D01*
X156393632Y-91466136D01*
X156439442Y-91441650D01*
X156489152Y-91426570D01*
X156540851Y-91421479D01*
X156592550Y-91426570D01*
X156592550Y-91426570D01*
G37*
G36*
X114706099Y-89720196D02*
G01*
X114755809Y-89735276D01*
X114801619Y-89759762D01*
X114841779Y-89792721D01*
X114874738Y-89832881D01*
X114899224Y-89878691D01*
X114914304Y-89928401D01*
X114920000Y-89986240D01*
X114920000Y-91242760D01*
X114914304Y-91300599D01*
X114899224Y-91350309D01*
X114874738Y-91396119D01*
X114841779Y-91436279D01*
X114801619Y-91469238D01*
X114755809Y-91493724D01*
X114706099Y-91508804D01*
X114648260Y-91514500D01*
X113913237Y-91514500D01*
X113888851Y-91516902D01*
X113865402Y-91524015D01*
X113843791Y-91535566D01*
X113824849Y-91551111D01*
X113809304Y-91570053D01*
X113797753Y-91591664D01*
X113790640Y-91615113D01*
X113788238Y-91639499D01*
X113790640Y-91663885D01*
X113797753Y-91687334D01*
X113809304Y-91708945D01*
X113824849Y-91727887D01*
X113843791Y-91743432D01*
X113865402Y-91754983D01*
X113880878Y-91760237D01*
X114440884Y-91910290D01*
X114841259Y-92017570D01*
X114895646Y-92038040D01*
X114939762Y-92065473D01*
X114977678Y-92100984D01*
X115007939Y-92143214D01*
X115029375Y-92190524D01*
X115041172Y-92241120D01*
X115042872Y-92293042D01*
X115033407Y-92350375D01*
X114772897Y-93322609D01*
X114752427Y-93376996D01*
X114724992Y-93421115D01*
X114689484Y-93459026D01*
X114647257Y-93489286D01*
X114599941Y-93510724D01*
X114549346Y-93522521D01*
X114497425Y-93524221D01*
X114440091Y-93514755D01*
X114377684Y-93498033D01*
X114377677Y-93498032D01*
X113490066Y-93260197D01*
X113226377Y-93189542D01*
X113171990Y-93169072D01*
X113127874Y-93141639D01*
X113089958Y-93106128D01*
X113059697Y-93063898D01*
X113038261Y-93016588D01*
X113026464Y-92965992D01*
X113024764Y-92914070D01*
X113034229Y-92856737D01*
X113294739Y-91884503D01*
X113315209Y-91830116D01*
X113342644Y-91785997D01*
X113378152Y-91748086D01*
X113420379Y-91717826D01*
X113478013Y-91691713D01*
X113499234Y-91679461D01*
X113517657Y-91663305D01*
X113532574Y-91643864D01*
X113543412Y-91621887D01*
X113549754Y-91598218D01*
X113551357Y-91573766D01*
X113548159Y-91549472D01*
X113540282Y-91526268D01*
X113528030Y-91505047D01*
X113511874Y-91486624D01*
X113493677Y-91473584D01*
X113448221Y-91436279D01*
X113415262Y-91396119D01*
X113390776Y-91350309D01*
X113375696Y-91300599D01*
X113370000Y-91242760D01*
X113370000Y-89986240D01*
X113375696Y-89928401D01*
X113390776Y-89878691D01*
X113415262Y-89832881D01*
X113448221Y-89792721D01*
X113488381Y-89759762D01*
X113534191Y-89735276D01*
X113583901Y-89720196D01*
X113641740Y-89714500D01*
X114648260Y-89714500D01*
X114706099Y-89720196D01*
X114706099Y-89720196D01*
G37*
G36*
X133083029Y-91931710D02*
G01*
X133132878Y-91946831D01*
X133178810Y-91971382D01*
X133219074Y-92004426D01*
X133252118Y-92044690D01*
X133276669Y-92090622D01*
X133291790Y-92140471D01*
X133297500Y-92198444D01*
X133297500Y-93203556D01*
X133291790Y-93261529D01*
X133276669Y-93311378D01*
X133252118Y-93357310D01*
X133219074Y-93397574D01*
X133178810Y-93430618D01*
X133132878Y-93455169D01*
X133083029Y-93470290D01*
X133025056Y-93476000D01*
X131769944Y-93476000D01*
X131711971Y-93470290D01*
X131662122Y-93455169D01*
X131616190Y-93430618D01*
X131575926Y-93397574D01*
X131542882Y-93357310D01*
X131518331Y-93311378D01*
X131503210Y-93261529D01*
X131497500Y-93203556D01*
X131497500Y-92198444D01*
X131503210Y-92140471D01*
X131518331Y-92090622D01*
X131542882Y-92044690D01*
X131575926Y-92004426D01*
X131616190Y-91971382D01*
X131662122Y-91946831D01*
X131711971Y-91931710D01*
X131769944Y-91926000D01*
X133025056Y-91926000D01*
X133083029Y-91931710D01*
X133083029Y-91931710D01*
G37*
G36*
X147243529Y-91797310D02*
G01*
X147293378Y-91812431D01*
X147339310Y-91836982D01*
X147379574Y-91870026D01*
X147412618Y-91910290D01*
X147437169Y-91956222D01*
X147452290Y-92006071D01*
X147458000Y-92064044D01*
X147458000Y-93069156D01*
X147452290Y-93127129D01*
X147437169Y-93176978D01*
X147412618Y-93222910D01*
X147379574Y-93263174D01*
X147339310Y-93296218D01*
X147293378Y-93320769D01*
X147243529Y-93335890D01*
X147185556Y-93341600D01*
X145930444Y-93341600D01*
X145872471Y-93335890D01*
X145822622Y-93320769D01*
X145776690Y-93296218D01*
X145736426Y-93263174D01*
X145703382Y-93222910D01*
X145678831Y-93176978D01*
X145663710Y-93127129D01*
X145658000Y-93069156D01*
X145658000Y-92064044D01*
X145663710Y-92006071D01*
X145678831Y-91956222D01*
X145703382Y-91910290D01*
X145736426Y-91870026D01*
X145776690Y-91836982D01*
X145822622Y-91812431D01*
X145872471Y-91797310D01*
X145930444Y-91791600D01*
X147185556Y-91791600D01*
X147243529Y-91797310D01*
X147243529Y-91797310D01*
G37*
G36*
X125493899Y-91192034D02*
G01*
X125505450Y-91213645D01*
X125520995Y-91232587D01*
X125539937Y-91248132D01*
X125561548Y-91259683D01*
X125577943Y-91265149D01*
X125624921Y-91287682D01*
X125666479Y-91318856D01*
X125701151Y-91357534D01*
X125730758Y-91407545D01*
X125758060Y-91466095D01*
X125758065Y-91466103D01*
X126128828Y-92261207D01*
X126128834Y-92261223D01*
X126156134Y-92319769D01*
X126175413Y-92374591D01*
X126182755Y-92426017D01*
X126179923Y-92477885D01*
X126167025Y-92528211D01*
X126144560Y-92575048D01*
X126113385Y-92616607D01*
X126074710Y-92651278D01*
X126024694Y-92680886D01*
X125966150Y-92708186D01*
X125966139Y-92708192D01*
X124944458Y-93184610D01*
X124944441Y-93184616D01*
X124885896Y-93211916D01*
X124831074Y-93231195D01*
X124779648Y-93238537D01*
X124727780Y-93235705D01*
X124677454Y-93222807D01*
X124630617Y-93200342D01*
X124589059Y-93169168D01*
X124554387Y-93130490D01*
X124524780Y-93080479D01*
X124497478Y-93021929D01*
X124497473Y-93021921D01*
X124126710Y-92226817D01*
X124126704Y-92226801D01*
X124099404Y-92168255D01*
X124080125Y-92113433D01*
X124072783Y-92062007D01*
X124075615Y-92010139D01*
X124088513Y-91959813D01*
X124110978Y-91912976D01*
X124142153Y-91871417D01*
X124180828Y-91836746D01*
X124230844Y-91807138D01*
X124289388Y-91779838D01*
X124289399Y-91779832D01*
X125311080Y-91303414D01*
X125311097Y-91303408D01*
X125369642Y-91276108D01*
X125409421Y-91262119D01*
X125431629Y-91251763D01*
X125451390Y-91237274D01*
X125467945Y-91219208D01*
X125480657Y-91198259D01*
X125488910Y-91175586D01*
X125493899Y-91192034D01*
X125493899Y-91192034D01*
G37*
G36*
X150621699Y-90037696D02*
G01*
X150671409Y-90052776D01*
X150717219Y-90077262D01*
X150757379Y-90110221D01*
X150790338Y-90150381D01*
X150814824Y-90196191D01*
X150829904Y-90245901D01*
X150835600Y-90303740D01*
X150835600Y-91560260D01*
X150829904Y-91618099D01*
X150814824Y-91667809D01*
X150790338Y-91713619D01*
X150757379Y-91753779D01*
X150717219Y-91786738D01*
X150671409Y-91811224D01*
X150621699Y-91826304D01*
X150563860Y-91832000D01*
X149559646Y-91832000D01*
X149535260Y-91834402D01*
X149511811Y-91841515D01*
X149490200Y-91853066D01*
X149487920Y-91854937D01*
X149480645Y-91842335D01*
X149464489Y-91823911D01*
X149437962Y-91804901D01*
X149403979Y-91786737D01*
X149363821Y-91753779D01*
X149330862Y-91713619D01*
X149306376Y-91667809D01*
X149291296Y-91618099D01*
X149285600Y-91560260D01*
X149285600Y-90303740D01*
X149291296Y-90245901D01*
X149306376Y-90196191D01*
X149330862Y-90150381D01*
X149363821Y-90110221D01*
X149403981Y-90077262D01*
X149449791Y-90052776D01*
X149499501Y-90037696D01*
X149557340Y-90032000D01*
X150563860Y-90032000D01*
X150621699Y-90037696D01*
X150621699Y-90037696D01*
G37*
G36*
X153571699Y-90037696D02*
G01*
X153621409Y-90052776D01*
X153667219Y-90077262D01*
X153707379Y-90110221D01*
X153740338Y-90150381D01*
X153764824Y-90196191D01*
X153779904Y-90245901D01*
X153785600Y-90303740D01*
X153785600Y-91560260D01*
X153779904Y-91618099D01*
X153764824Y-91667809D01*
X153740338Y-91713619D01*
X153707379Y-91753779D01*
X153667219Y-91786738D01*
X153621409Y-91811224D01*
X153571699Y-91826304D01*
X153513860Y-91832000D01*
X152507340Y-91832000D01*
X152449501Y-91826304D01*
X152399791Y-91811224D01*
X152353981Y-91786738D01*
X152313821Y-91753779D01*
X152280862Y-91713619D01*
X152256376Y-91667809D01*
X152241296Y-91618099D01*
X152235600Y-91560260D01*
X152235600Y-90303740D01*
X152241296Y-90245901D01*
X152256376Y-90196191D01*
X152280862Y-90150381D01*
X152313821Y-90110221D01*
X152353981Y-90077262D01*
X152399791Y-90052776D01*
X152449501Y-90037696D01*
X152507340Y-90032000D01*
X153513860Y-90032000D01*
X153571699Y-90037696D01*
X153571699Y-90037696D01*
G37*
G36*
X117656099Y-89720196D02*
G01*
X117705809Y-89735276D01*
X117751619Y-89759762D01*
X117791779Y-89792721D01*
X117824738Y-89832881D01*
X117849224Y-89878691D01*
X117864304Y-89928401D01*
X117870000Y-89986240D01*
X117870000Y-91242760D01*
X117864304Y-91300599D01*
X117849224Y-91350309D01*
X117824738Y-91396119D01*
X117791779Y-91436279D01*
X117751619Y-91469238D01*
X117705809Y-91493724D01*
X117656099Y-91508804D01*
X117598260Y-91514500D01*
X116591740Y-91514500D01*
X116533901Y-91508804D01*
X116484191Y-91493724D01*
X116438381Y-91469238D01*
X116398221Y-91436279D01*
X116365262Y-91396119D01*
X116340776Y-91350309D01*
X116325696Y-91300599D01*
X116320000Y-91242760D01*
X116320000Y-89986240D01*
X116325696Y-89928401D01*
X116340776Y-89878691D01*
X116365262Y-89832881D01*
X116398221Y-89792721D01*
X116438381Y-89759762D01*
X116484191Y-89735276D01*
X116533901Y-89720196D01*
X116591740Y-89714500D01*
X117598260Y-89714500D01*
X117656099Y-89720196D01*
X117656099Y-89720196D01*
G37*
G36*
X158212798Y-89243994D02*
G01*
X158263634Y-89254683D01*
X158311403Y-89275083D01*
X158359375Y-89307899D01*
X158408862Y-89349423D01*
X158408870Y-89349429D01*
X159080921Y-89913347D01*
X159080928Y-89913354D01*
X159130419Y-89954882D01*
X159171056Y-89996415D01*
X159199448Y-90039926D01*
X159218802Y-90088131D01*
X159228380Y-90139186D01*
X159227812Y-90191136D01*
X159217124Y-90241969D01*
X159196720Y-90289748D01*
X159163913Y-90337706D01*
X159122387Y-90387195D01*
X159122378Y-90387208D01*
X158397763Y-91250770D01*
X158356228Y-91300269D01*
X158314693Y-91340907D01*
X158271187Y-91369296D01*
X158222980Y-91388650D01*
X158171921Y-91398230D01*
X158119974Y-91397662D01*
X158069138Y-91386973D01*
X158021369Y-91366573D01*
X157973397Y-91333757D01*
X157923910Y-91292233D01*
X157923902Y-91292227D01*
X157251851Y-90728309D01*
X157251844Y-90728302D01*
X157202353Y-90686774D01*
X157161716Y-90645241D01*
X157133324Y-90601730D01*
X157113970Y-90553525D01*
X157104392Y-90502470D01*
X157104960Y-90450520D01*
X157115648Y-90399687D01*
X157136052Y-90351908D01*
X157168859Y-90303950D01*
X157210385Y-90254461D01*
X157210394Y-90254448D01*
X157935009Y-89390886D01*
X157935012Y-89390883D01*
X157976544Y-89341387D01*
X158018079Y-89300749D01*
X158061585Y-89272360D01*
X158109792Y-89253006D01*
X158160851Y-89243426D01*
X158212798Y-89243994D01*
X158212798Y-89243994D01*
G37*
G36*
X163601129Y-89816110D02*
G01*
X163650978Y-89831231D01*
X163696910Y-89855782D01*
X163737174Y-89888826D01*
X163770218Y-89929090D01*
X163794769Y-89975022D01*
X163809890Y-90024871D01*
X163815600Y-90082844D01*
X163815600Y-91087956D01*
X163809890Y-91145929D01*
X163794769Y-91195778D01*
X163770218Y-91241710D01*
X163737174Y-91281974D01*
X163696910Y-91315018D01*
X163650978Y-91339569D01*
X163601129Y-91354690D01*
X163543156Y-91360400D01*
X162288044Y-91360400D01*
X162230071Y-91354690D01*
X162180222Y-91339569D01*
X162134290Y-91315018D01*
X162094026Y-91281974D01*
X162060982Y-91241710D01*
X162036431Y-91195778D01*
X162021310Y-91145929D01*
X162015600Y-91087956D01*
X162015600Y-90082844D01*
X162021310Y-90024871D01*
X162036431Y-89975022D01*
X162060982Y-89929090D01*
X162094026Y-89888826D01*
X162134290Y-89855782D01*
X162180222Y-89831231D01*
X162230071Y-89816110D01*
X162288044Y-89810400D01*
X163543156Y-89810400D01*
X163601129Y-89816110D01*
X163601129Y-89816110D01*
G37*
G36*
X147243529Y-89747310D02*
G01*
X147293378Y-89762431D01*
X147339310Y-89786982D01*
X147379574Y-89820026D01*
X147412618Y-89860290D01*
X147437169Y-89906222D01*
X147452290Y-89956071D01*
X147458000Y-90014044D01*
X147458000Y-91019156D01*
X147452290Y-91077129D01*
X147437169Y-91126978D01*
X147412618Y-91172910D01*
X147379574Y-91213174D01*
X147339310Y-91246218D01*
X147293378Y-91270769D01*
X147243529Y-91285890D01*
X147185556Y-91291600D01*
X145930444Y-91291600D01*
X145872471Y-91285890D01*
X145822622Y-91270769D01*
X145776690Y-91246218D01*
X145736426Y-91213174D01*
X145703382Y-91172910D01*
X145678831Y-91126978D01*
X145663710Y-91077129D01*
X145658000Y-91019156D01*
X145658000Y-90014044D01*
X145663710Y-89956071D01*
X145678831Y-89906222D01*
X145703382Y-89860290D01*
X145736426Y-89820026D01*
X145776690Y-89786982D01*
X145822622Y-89762431D01*
X145872471Y-89747310D01*
X145930444Y-89741600D01*
X147185556Y-89741600D01*
X147243529Y-89747310D01*
X147243529Y-89747310D01*
G37*
G36*
X125836499Y-89224896D02*
G01*
X125886209Y-89239976D01*
X125932019Y-89264462D01*
X125972179Y-89297421D01*
X126005138Y-89337581D01*
X126029624Y-89383391D01*
X126044704Y-89433101D01*
X126050400Y-89490940D01*
X126050400Y-90747460D01*
X126044704Y-90805299D01*
X126029624Y-90855009D01*
X126005138Y-90900819D01*
X125972179Y-90940979D01*
X125932019Y-90973938D01*
X125886209Y-90998424D01*
X125836499Y-91013504D01*
X125778660Y-91019200D01*
X125609383Y-91019200D01*
X125584997Y-91021602D01*
X125561548Y-91028715D01*
X125539937Y-91040266D01*
X125520995Y-91055811D01*
X125505450Y-91074753D01*
X125493899Y-91096364D01*
X125488594Y-91113852D01*
X125485873Y-91102731D01*
X125475517Y-91080523D01*
X125461028Y-91060762D01*
X125442962Y-91044207D01*
X125422013Y-91031495D01*
X125398987Y-91023114D01*
X125367953Y-91019200D01*
X124772140Y-91019200D01*
X124714301Y-91013504D01*
X124664591Y-90998424D01*
X124618781Y-90973938D01*
X124578621Y-90940979D01*
X124545662Y-90900819D01*
X124521176Y-90855009D01*
X124506096Y-90805299D01*
X124500400Y-90747460D01*
X124500400Y-89490940D01*
X124506096Y-89433101D01*
X124521176Y-89383391D01*
X124545662Y-89337581D01*
X124578621Y-89297421D01*
X124618781Y-89264462D01*
X124664591Y-89239976D01*
X124714301Y-89224896D01*
X124772140Y-89219200D01*
X125778660Y-89219200D01*
X125836499Y-89224896D01*
X125836499Y-89224896D01*
G37*
G36*
X130860529Y-89282710D02*
G01*
X130910378Y-89297831D01*
X130956310Y-89322382D01*
X130996574Y-89355426D01*
X131029618Y-89395690D01*
X131054169Y-89441622D01*
X131069290Y-89491471D01*
X131075000Y-89549444D01*
X131075000Y-90554556D01*
X131069290Y-90612529D01*
X131054169Y-90662378D01*
X131029618Y-90708310D01*
X130996574Y-90748574D01*
X130956310Y-90781618D01*
X130910378Y-90806169D01*
X130860529Y-90821290D01*
X130802556Y-90827000D01*
X129547444Y-90827000D01*
X129489471Y-90821290D01*
X129439622Y-90806169D01*
X129393690Y-90781618D01*
X129353426Y-90748574D01*
X129320382Y-90708310D01*
X129295831Y-90662378D01*
X129280710Y-90612529D01*
X129275000Y-90554556D01*
X129275000Y-89549444D01*
X129280710Y-89491471D01*
X129295831Y-89441622D01*
X129320382Y-89395690D01*
X129353426Y-89355426D01*
X129393690Y-89322382D01*
X129439622Y-89297831D01*
X129489471Y-89282710D01*
X129547444Y-89277000D01*
X130802556Y-89277000D01*
X130860529Y-89282710D01*
X130860529Y-89282710D01*
G37*
G36*
X163601129Y-87766110D02*
G01*
X163650978Y-87781231D01*
X163696910Y-87805782D01*
X163737174Y-87838826D01*
X163770218Y-87879090D01*
X163794769Y-87925022D01*
X163809890Y-87974871D01*
X163815600Y-88032844D01*
X163815600Y-89037956D01*
X163809890Y-89095929D01*
X163794769Y-89145778D01*
X163770218Y-89191710D01*
X163737174Y-89231974D01*
X163696910Y-89265018D01*
X163650978Y-89289569D01*
X163601129Y-89304690D01*
X163543156Y-89310400D01*
X162288044Y-89310400D01*
X162230071Y-89304690D01*
X162180222Y-89289569D01*
X162134290Y-89265018D01*
X162094026Y-89231974D01*
X162060982Y-89191710D01*
X162036431Y-89145778D01*
X162021310Y-89095929D01*
X162015600Y-89037956D01*
X162015600Y-88032844D01*
X162021310Y-87974871D01*
X162036431Y-87925022D01*
X162060982Y-87879090D01*
X162094026Y-87838826D01*
X162134290Y-87805782D01*
X162180222Y-87781231D01*
X162230071Y-87766110D01*
X162288044Y-87760400D01*
X163543156Y-87760400D01*
X163601129Y-87766110D01*
X163601129Y-87766110D01*
G37*
G36*
X130860529Y-87232710D02*
G01*
X130910378Y-87247831D01*
X130956310Y-87272382D01*
X130996574Y-87305426D01*
X131029618Y-87345690D01*
X131054169Y-87391622D01*
X131069290Y-87441471D01*
X131075000Y-87499444D01*
X131075000Y-88504556D01*
X131069290Y-88562529D01*
X131054169Y-88612378D01*
X131029618Y-88658310D01*
X130996574Y-88698574D01*
X130956310Y-88731618D01*
X130910378Y-88756169D01*
X130860529Y-88771290D01*
X130802556Y-88777000D01*
X129547444Y-88777000D01*
X129489471Y-88771290D01*
X129439622Y-88756169D01*
X129393690Y-88731618D01*
X129353426Y-88698574D01*
X129320382Y-88658310D01*
X129295831Y-88612378D01*
X129280710Y-88562529D01*
X129275000Y-88504556D01*
X129275000Y-87499444D01*
X129280710Y-87441471D01*
X129295831Y-87391622D01*
X129320382Y-87345690D01*
X129353426Y-87305426D01*
X129393690Y-87272382D01*
X129439622Y-87247831D01*
X129489471Y-87232710D01*
X129547444Y-87227000D01*
X130802556Y-87227000D01*
X130860529Y-87232710D01*
X130860529Y-87232710D01*
G37*
G36*
X150850329Y-86158510D02*
G01*
X150900178Y-86173631D01*
X150946110Y-86198182D01*
X150986374Y-86231226D01*
X151019418Y-86271490D01*
X151043969Y-86317422D01*
X151059090Y-86367271D01*
X151064800Y-86425244D01*
X151064800Y-87430356D01*
X151059090Y-87488329D01*
X151043969Y-87538178D01*
X151019418Y-87584110D01*
X150986374Y-87624374D01*
X150946110Y-87657418D01*
X150900178Y-87681969D01*
X150850329Y-87697090D01*
X150792356Y-87702800D01*
X149537244Y-87702800D01*
X149479271Y-87697090D01*
X149429422Y-87681969D01*
X149383490Y-87657418D01*
X149343226Y-87624374D01*
X149310182Y-87584110D01*
X149285631Y-87538178D01*
X149270510Y-87488329D01*
X149264800Y-87430356D01*
X149264800Y-86425244D01*
X149270510Y-86367271D01*
X149285631Y-86317422D01*
X149310182Y-86271490D01*
X149343226Y-86231226D01*
X149383490Y-86198182D01*
X149429422Y-86173631D01*
X149479271Y-86158510D01*
X149537244Y-86152800D01*
X150792356Y-86152800D01*
X150850329Y-86158510D01*
X150850329Y-86158510D01*
G37*
G36*
X128384029Y-85028210D02*
G01*
X128433878Y-85043331D01*
X128479810Y-85067882D01*
X128520074Y-85100926D01*
X128553118Y-85141190D01*
X128577669Y-85187122D01*
X128592790Y-85236971D01*
X128598500Y-85294944D01*
X128598500Y-86300056D01*
X128592790Y-86358029D01*
X128577669Y-86407878D01*
X128553118Y-86453810D01*
X128520074Y-86494074D01*
X128479810Y-86527118D01*
X128433878Y-86551669D01*
X128384029Y-86566790D01*
X128326056Y-86572500D01*
X127070944Y-86572500D01*
X127012971Y-86566790D01*
X126963122Y-86551669D01*
X126917190Y-86527118D01*
X126876926Y-86494074D01*
X126843882Y-86453810D01*
X126819331Y-86407878D01*
X126804210Y-86358029D01*
X126798500Y-86300056D01*
X126798500Y-85294944D01*
X126804210Y-85236971D01*
X126819331Y-85187122D01*
X126843882Y-85141190D01*
X126876926Y-85100926D01*
X126917190Y-85067882D01*
X126963122Y-85043331D01*
X127012971Y-85028210D01*
X127070944Y-85022500D01*
X128326056Y-85022500D01*
X128384029Y-85028210D01*
X128384029Y-85028210D01*
G37*
G36*
X116382529Y-84964710D02*
G01*
X116432378Y-84979831D01*
X116478310Y-85004382D01*
X116518574Y-85037426D01*
X116551618Y-85077690D01*
X116576169Y-85123622D01*
X116591290Y-85173471D01*
X116597000Y-85231444D01*
X116597000Y-86236556D01*
X116591290Y-86294529D01*
X116576169Y-86344378D01*
X116551618Y-86390310D01*
X116518574Y-86430574D01*
X116478310Y-86463618D01*
X116432378Y-86488169D01*
X116382529Y-86503290D01*
X116324556Y-86509000D01*
X115069444Y-86509000D01*
X115011471Y-86503290D01*
X114961622Y-86488169D01*
X114915690Y-86463618D01*
X114875426Y-86430574D01*
X114842382Y-86390310D01*
X114817831Y-86344378D01*
X114802710Y-86294529D01*
X114797000Y-86236556D01*
X114797000Y-85231444D01*
X114802710Y-85173471D01*
X114817831Y-85123622D01*
X114842382Y-85077690D01*
X114875426Y-85037426D01*
X114915690Y-85004382D01*
X114961622Y-84979831D01*
X115011471Y-84964710D01*
X115069444Y-84959000D01*
X116324556Y-84959000D01*
X116382529Y-84964710D01*
X116382529Y-84964710D01*
G37*
G36*
X142848000Y-77181501D02*
G01*
X142850402Y-77205887D01*
X142857515Y-77229336D01*
X142869066Y-77250947D01*
X142884611Y-77269889D01*
X142903553Y-77285434D01*
X142925164Y-77296985D01*
X142948613Y-77304098D01*
X142972999Y-77306500D01*
X144823000Y-77306500D01*
X144823000Y-83856500D01*
X142972999Y-83856500D01*
X142948613Y-83858902D01*
X142925164Y-83866015D01*
X142903553Y-83877566D01*
X142884611Y-83893111D01*
X142869066Y-83912053D01*
X142857515Y-83933664D01*
X142850402Y-83957113D01*
X142848000Y-83981499D01*
X142848000Y-85831500D01*
X136298000Y-85831500D01*
X136298000Y-83981499D01*
X136295598Y-83957113D01*
X136288485Y-83933664D01*
X136276934Y-83912053D01*
X136261389Y-83893111D01*
X136242447Y-83877566D01*
X136220836Y-83866015D01*
X136197387Y-83858902D01*
X136173001Y-83856500D01*
X134323000Y-83856500D01*
X134323000Y-77456499D01*
X136323000Y-77456499D01*
X136323000Y-83706501D01*
X136325402Y-83730887D01*
X136332515Y-83754336D01*
X136344066Y-83775947D01*
X136359611Y-83794889D01*
X136378553Y-83810434D01*
X136400164Y-83821985D01*
X136423613Y-83829098D01*
X136447999Y-83831500D01*
X142698001Y-83831500D01*
X142722387Y-83829098D01*
X142745836Y-83821985D01*
X142767447Y-83810434D01*
X142786389Y-83794889D01*
X142801934Y-83775947D01*
X142813485Y-83754336D01*
X142820598Y-83730887D01*
X142823000Y-83706501D01*
X142823000Y-77456499D01*
X142820598Y-77432113D01*
X142813485Y-77408664D01*
X142801934Y-77387053D01*
X142786389Y-77368111D01*
X142767447Y-77352566D01*
X142745836Y-77341015D01*
X142722387Y-77333902D01*
X142698001Y-77331500D01*
X136447999Y-77331500D01*
X136423613Y-77333902D01*
X136400164Y-77341015D01*
X136378553Y-77352566D01*
X136359611Y-77368111D01*
X136344066Y-77387053D01*
X136332515Y-77408664D01*
X136325402Y-77432113D01*
X136323000Y-77456499D01*
X134323000Y-77456499D01*
X134323000Y-77306500D01*
X136173001Y-77306500D01*
X136197387Y-77304098D01*
X136220836Y-77296985D01*
X136242447Y-77285434D01*
X136261389Y-77269889D01*
X136276934Y-77250947D01*
X136288485Y-77229336D01*
X136295598Y-77205887D01*
X136298000Y-77181501D01*
X136298000Y-75331500D01*
X142848000Y-75331500D01*
X142848000Y-77181501D01*
X142848000Y-77181501D01*
G37*
G36*
X150850329Y-84108510D02*
G01*
X150900178Y-84123631D01*
X150946110Y-84148182D01*
X150986374Y-84181226D01*
X151019418Y-84221490D01*
X151043969Y-84267422D01*
X151059090Y-84317271D01*
X151064800Y-84375244D01*
X151064800Y-85380356D01*
X151059090Y-85438329D01*
X151043969Y-85488178D01*
X151019418Y-85534110D01*
X150986374Y-85574374D01*
X150946110Y-85607418D01*
X150900178Y-85631969D01*
X150850329Y-85647090D01*
X150792356Y-85652800D01*
X149537244Y-85652800D01*
X149479271Y-85647090D01*
X149429422Y-85631969D01*
X149383490Y-85607418D01*
X149343226Y-85574374D01*
X149310182Y-85534110D01*
X149285631Y-85488178D01*
X149270510Y-85438329D01*
X149264800Y-85380356D01*
X149264800Y-84375244D01*
X149270510Y-84317271D01*
X149285631Y-84267422D01*
X149310182Y-84221490D01*
X149343226Y-84181226D01*
X149383490Y-84148182D01*
X149429422Y-84123631D01*
X149479271Y-84108510D01*
X149537244Y-84102800D01*
X150792356Y-84102800D01*
X150850329Y-84108510D01*
X150850329Y-84108510D01*
G37*
G36*
X160299129Y-83364510D02*
G01*
X160348978Y-83379631D01*
X160394910Y-83404182D01*
X160435174Y-83437226D01*
X160468218Y-83477490D01*
X160492769Y-83523422D01*
X160507890Y-83573271D01*
X160513600Y-83631244D01*
X160513600Y-84636356D01*
X160507890Y-84694329D01*
X160492769Y-84744178D01*
X160468218Y-84790110D01*
X160435174Y-84830374D01*
X160394910Y-84863418D01*
X160348978Y-84887969D01*
X160299129Y-84903090D01*
X160241156Y-84908800D01*
X158986044Y-84908800D01*
X158928071Y-84903090D01*
X158878222Y-84887969D01*
X158832290Y-84863418D01*
X158792026Y-84830374D01*
X158758982Y-84790110D01*
X158734431Y-84744178D01*
X158719310Y-84694329D01*
X158713600Y-84636356D01*
X158713600Y-83631244D01*
X158719310Y-83573271D01*
X158734431Y-83523422D01*
X158758982Y-83477490D01*
X158792026Y-83437226D01*
X158832290Y-83404182D01*
X158878222Y-83379631D01*
X158928071Y-83364510D01*
X158986044Y-83358800D01*
X160241156Y-83358800D01*
X160299129Y-83364510D01*
X160299129Y-83364510D01*
G37*
G36*
X158013129Y-83161310D02*
G01*
X158062978Y-83176431D01*
X158108910Y-83200982D01*
X158149174Y-83234026D01*
X158182218Y-83274290D01*
X158206769Y-83320222D01*
X158221890Y-83370071D01*
X158227600Y-83428044D01*
X158227600Y-84433156D01*
X158221890Y-84491129D01*
X158206769Y-84540978D01*
X158182218Y-84586910D01*
X158149174Y-84627174D01*
X158108910Y-84660218D01*
X158062978Y-84684769D01*
X158013129Y-84699890D01*
X157955156Y-84705600D01*
X156700044Y-84705600D01*
X156642071Y-84699890D01*
X156592222Y-84684769D01*
X156546290Y-84660218D01*
X156506026Y-84627174D01*
X156472982Y-84586910D01*
X156448431Y-84540978D01*
X156433310Y-84491129D01*
X156427600Y-84433156D01*
X156427600Y-83428044D01*
X156433310Y-83370071D01*
X156448431Y-83320222D01*
X156472982Y-83274290D01*
X156506026Y-83234026D01*
X156546290Y-83200982D01*
X156592222Y-83176431D01*
X156642071Y-83161310D01*
X156700044Y-83155600D01*
X157955156Y-83155600D01*
X158013129Y-83161310D01*
X158013129Y-83161310D01*
G37*
G36*
X153491929Y-83059710D02*
G01*
X153541778Y-83074831D01*
X153587710Y-83099382D01*
X153627974Y-83132426D01*
X153661018Y-83172690D01*
X153685569Y-83218622D01*
X153700690Y-83268471D01*
X153706400Y-83326444D01*
X153706400Y-84331556D01*
X153700690Y-84389529D01*
X153685569Y-84439378D01*
X153661018Y-84485310D01*
X153627974Y-84525574D01*
X153587710Y-84558618D01*
X153541778Y-84583169D01*
X153491929Y-84598290D01*
X153433956Y-84604000D01*
X152178844Y-84604000D01*
X152120871Y-84598290D01*
X152071022Y-84583169D01*
X152025090Y-84558618D01*
X151984826Y-84525574D01*
X151951782Y-84485310D01*
X151927231Y-84439378D01*
X151912110Y-84389529D01*
X151906400Y-84331556D01*
X151906400Y-83326444D01*
X151912110Y-83268471D01*
X151927231Y-83218622D01*
X151951782Y-83172690D01*
X151984826Y-83132426D01*
X152025090Y-83099382D01*
X152071022Y-83074831D01*
X152120871Y-83059710D01*
X152178844Y-83054000D01*
X153433956Y-83054000D01*
X153491929Y-83059710D01*
X153491929Y-83059710D01*
G37*
G36*
X155777929Y-83059710D02*
G01*
X155827778Y-83074831D01*
X155873710Y-83099382D01*
X155913974Y-83132426D01*
X155947018Y-83172690D01*
X155971569Y-83218622D01*
X155986690Y-83268471D01*
X155992400Y-83326444D01*
X155992400Y-84331556D01*
X155986690Y-84389529D01*
X155971569Y-84439378D01*
X155947018Y-84485310D01*
X155913974Y-84525574D01*
X155873710Y-84558618D01*
X155827778Y-84583169D01*
X155777929Y-84598290D01*
X155719956Y-84604000D01*
X154464844Y-84604000D01*
X154406871Y-84598290D01*
X154357022Y-84583169D01*
X154311090Y-84558618D01*
X154270826Y-84525574D01*
X154237782Y-84485310D01*
X154213231Y-84439378D01*
X154198110Y-84389529D01*
X154192400Y-84331556D01*
X154192400Y-83326444D01*
X154198110Y-83268471D01*
X154213231Y-83218622D01*
X154237782Y-83172690D01*
X154270826Y-83132426D01*
X154311090Y-83099382D01*
X154357022Y-83074831D01*
X154406871Y-83059710D01*
X154464844Y-83054000D01*
X155719956Y-83054000D01*
X155777929Y-83059710D01*
X155777929Y-83059710D01*
G37*
G36*
X128384029Y-82978210D02*
G01*
X128433878Y-82993331D01*
X128479810Y-83017882D01*
X128520074Y-83050926D01*
X128553118Y-83091190D01*
X128577669Y-83137122D01*
X128592790Y-83186971D01*
X128598500Y-83244944D01*
X128598500Y-84250056D01*
X128592790Y-84308029D01*
X128577669Y-84357878D01*
X128553118Y-84403810D01*
X128520074Y-84444074D01*
X128479810Y-84477118D01*
X128433878Y-84501669D01*
X128384029Y-84516790D01*
X128326056Y-84522500D01*
X127070944Y-84522500D01*
X127012971Y-84516790D01*
X126963122Y-84501669D01*
X126917190Y-84477118D01*
X126876926Y-84444074D01*
X126843882Y-84403810D01*
X126819331Y-84357878D01*
X126804210Y-84308029D01*
X126798500Y-84250056D01*
X126798500Y-83244944D01*
X126804210Y-83186971D01*
X126819331Y-83137122D01*
X126843882Y-83091190D01*
X126876926Y-83050926D01*
X126917190Y-83017882D01*
X126963122Y-82993331D01*
X127012971Y-82978210D01*
X127070944Y-82972500D01*
X128326056Y-82972500D01*
X128384029Y-82978210D01*
X128384029Y-82978210D01*
G37*
G36*
X116382529Y-82914710D02*
G01*
X116432378Y-82929831D01*
X116478310Y-82954382D01*
X116518574Y-82987426D01*
X116551618Y-83027690D01*
X116576169Y-83073622D01*
X116591290Y-83123471D01*
X116597000Y-83181444D01*
X116597000Y-84186556D01*
X116591290Y-84244529D01*
X116576169Y-84294378D01*
X116551618Y-84340310D01*
X116518574Y-84380574D01*
X116478310Y-84413618D01*
X116432378Y-84438169D01*
X116382529Y-84453290D01*
X116324556Y-84459000D01*
X115069444Y-84459000D01*
X115011471Y-84453290D01*
X114961622Y-84438169D01*
X114915690Y-84413618D01*
X114875426Y-84380574D01*
X114842382Y-84340310D01*
X114817831Y-84294378D01*
X114802710Y-84244529D01*
X114797000Y-84186556D01*
X114797000Y-83181444D01*
X114802710Y-83123471D01*
X114817831Y-83073622D01*
X114842382Y-83027690D01*
X114875426Y-82987426D01*
X114915690Y-82954382D01*
X114961622Y-82929831D01*
X115011471Y-82914710D01*
X115069444Y-82909000D01*
X116324556Y-82909000D01*
X116382529Y-82914710D01*
X116382529Y-82914710D01*
G37*
G36*
X122288029Y-81916710D02*
G01*
X122337878Y-81931831D01*
X122383810Y-81956382D01*
X122424074Y-81989426D01*
X122457118Y-82029690D01*
X122481669Y-82075622D01*
X122496790Y-82125471D01*
X122502500Y-82183444D01*
X122502500Y-83188556D01*
X122496790Y-83246529D01*
X122481669Y-83296378D01*
X122457118Y-83342310D01*
X122424074Y-83382574D01*
X122383810Y-83415618D01*
X122337878Y-83440169D01*
X122288029Y-83455290D01*
X122230056Y-83461000D01*
X120974944Y-83461000D01*
X120916971Y-83455290D01*
X120867122Y-83440169D01*
X120821190Y-83415618D01*
X120780926Y-83382574D01*
X120747882Y-83342310D01*
X120723331Y-83296378D01*
X120708210Y-83246529D01*
X120702500Y-83188556D01*
X120702500Y-82183444D01*
X120708210Y-82125471D01*
X120723331Y-82075622D01*
X120747882Y-82029690D01*
X120780926Y-81989426D01*
X120821190Y-81956382D01*
X120867122Y-81931831D01*
X120916971Y-81916710D01*
X120974944Y-81911000D01*
X122230056Y-81911000D01*
X122288029Y-81916710D01*
X122288029Y-81916710D01*
G37*
G36*
X119176529Y-81916710D02*
G01*
X119226378Y-81931831D01*
X119272310Y-81956382D01*
X119312574Y-81989426D01*
X119345618Y-82029690D01*
X119370169Y-82075622D01*
X119385290Y-82125471D01*
X119391000Y-82183444D01*
X119391000Y-83188556D01*
X119385290Y-83246529D01*
X119370169Y-83296378D01*
X119345618Y-83342310D01*
X119312574Y-83382574D01*
X119272310Y-83415618D01*
X119226378Y-83440169D01*
X119176529Y-83455290D01*
X119118556Y-83461000D01*
X117863444Y-83461000D01*
X117805471Y-83455290D01*
X117755622Y-83440169D01*
X117709690Y-83415618D01*
X117669426Y-83382574D01*
X117636382Y-83342310D01*
X117611831Y-83296378D01*
X117596710Y-83246529D01*
X117591000Y-83188556D01*
X117591000Y-82183444D01*
X117596710Y-82125471D01*
X117611831Y-82075622D01*
X117636382Y-82029690D01*
X117669426Y-81989426D01*
X117709690Y-81956382D01*
X117755622Y-81931831D01*
X117805471Y-81916710D01*
X117863444Y-81911000D01*
X119118556Y-81911000D01*
X119176529Y-81916710D01*
X119176529Y-81916710D01*
G37*
G36*
X125399529Y-81726210D02*
G01*
X125449378Y-81741331D01*
X125495310Y-81765882D01*
X125535574Y-81798926D01*
X125568618Y-81839190D01*
X125593169Y-81885122D01*
X125608290Y-81934971D01*
X125614000Y-81992944D01*
X125614000Y-82998056D01*
X125608290Y-83056029D01*
X125593169Y-83105878D01*
X125568618Y-83151810D01*
X125535574Y-83192074D01*
X125495310Y-83225118D01*
X125449378Y-83249669D01*
X125399529Y-83264790D01*
X125341556Y-83270500D01*
X124086444Y-83270500D01*
X124028471Y-83264790D01*
X123978622Y-83249669D01*
X123932690Y-83225118D01*
X123892426Y-83192074D01*
X123859382Y-83151810D01*
X123834831Y-83105878D01*
X123819710Y-83056029D01*
X123814000Y-82998056D01*
X123814000Y-81992944D01*
X123819710Y-81934971D01*
X123834831Y-81885122D01*
X123859382Y-81839190D01*
X123892426Y-81798926D01*
X123932690Y-81765882D01*
X123978622Y-81741331D01*
X124028471Y-81726210D01*
X124086444Y-81720500D01*
X125341556Y-81720500D01*
X125399529Y-81726210D01*
X125399529Y-81726210D01*
G37*
G36*
X160299129Y-81314510D02*
G01*
X160348978Y-81329631D01*
X160394910Y-81354182D01*
X160435174Y-81387226D01*
X160468218Y-81427490D01*
X160492769Y-81473422D01*
X160507890Y-81523271D01*
X160513600Y-81581244D01*
X160513600Y-82586356D01*
X160507890Y-82644329D01*
X160492769Y-82694178D01*
X160468218Y-82740110D01*
X160435174Y-82780374D01*
X160394910Y-82813418D01*
X160348978Y-82837969D01*
X160299129Y-82853090D01*
X160241156Y-82858800D01*
X158986044Y-82858800D01*
X158928071Y-82853090D01*
X158878222Y-82837969D01*
X158832290Y-82813418D01*
X158792026Y-82780374D01*
X158758982Y-82740110D01*
X158734431Y-82694178D01*
X158719310Y-82644329D01*
X158713600Y-82586356D01*
X158713600Y-81581244D01*
X158719310Y-81523271D01*
X158734431Y-81473422D01*
X158758982Y-81427490D01*
X158792026Y-81387226D01*
X158832290Y-81354182D01*
X158878222Y-81329631D01*
X158928071Y-81314510D01*
X158986044Y-81308800D01*
X160241156Y-81308800D01*
X160299129Y-81314510D01*
X160299129Y-81314510D01*
G37*
G36*
X158013129Y-81111310D02*
G01*
X158062978Y-81126431D01*
X158108910Y-81150982D01*
X158149174Y-81184026D01*
X158182218Y-81224290D01*
X158206769Y-81270222D01*
X158221890Y-81320071D01*
X158227600Y-81378044D01*
X158227600Y-82383156D01*
X158221890Y-82441129D01*
X158206769Y-82490978D01*
X158182218Y-82536910D01*
X158149174Y-82577174D01*
X158108910Y-82610218D01*
X158062978Y-82634769D01*
X158013129Y-82649890D01*
X157955156Y-82655600D01*
X156700044Y-82655600D01*
X156642071Y-82649890D01*
X156592222Y-82634769D01*
X156546290Y-82610218D01*
X156506026Y-82577174D01*
X156472982Y-82536910D01*
X156448431Y-82490978D01*
X156433310Y-82441129D01*
X156427600Y-82383156D01*
X156427600Y-81378044D01*
X156433310Y-81320071D01*
X156448431Y-81270222D01*
X156472982Y-81224290D01*
X156506026Y-81184026D01*
X156546290Y-81150982D01*
X156592222Y-81126431D01*
X156642071Y-81111310D01*
X156700044Y-81105600D01*
X157955156Y-81105600D01*
X158013129Y-81111310D01*
X158013129Y-81111310D01*
G37*
G36*
X153491929Y-81009710D02*
G01*
X153541778Y-81024831D01*
X153587710Y-81049382D01*
X153627974Y-81082426D01*
X153661018Y-81122690D01*
X153685569Y-81168622D01*
X153700690Y-81218471D01*
X153706400Y-81276444D01*
X153706400Y-82281556D01*
X153700690Y-82339529D01*
X153685569Y-82389378D01*
X153661018Y-82435310D01*
X153627974Y-82475574D01*
X153587710Y-82508618D01*
X153541778Y-82533169D01*
X153491929Y-82548290D01*
X153433956Y-82554000D01*
X152178844Y-82554000D01*
X152120871Y-82548290D01*
X152071022Y-82533169D01*
X152025090Y-82508618D01*
X151984826Y-82475574D01*
X151951782Y-82435310D01*
X151927231Y-82389378D01*
X151912110Y-82339529D01*
X151906400Y-82281556D01*
X151906400Y-81276444D01*
X151912110Y-81218471D01*
X151927231Y-81168622D01*
X151951782Y-81122690D01*
X151984826Y-81082426D01*
X152025090Y-81049382D01*
X152071022Y-81024831D01*
X152120871Y-81009710D01*
X152178844Y-81004000D01*
X153433956Y-81004000D01*
X153491929Y-81009710D01*
X153491929Y-81009710D01*
G37*
G36*
X155777929Y-81009710D02*
G01*
X155827778Y-81024831D01*
X155873710Y-81049382D01*
X155913974Y-81082426D01*
X155947018Y-81122690D01*
X155971569Y-81168622D01*
X155986690Y-81218471D01*
X155992400Y-81276444D01*
X155992400Y-82281556D01*
X155986690Y-82339529D01*
X155971569Y-82389378D01*
X155947018Y-82435310D01*
X155913974Y-82475574D01*
X155873710Y-82508618D01*
X155827778Y-82533169D01*
X155777929Y-82548290D01*
X155719956Y-82554000D01*
X154464844Y-82554000D01*
X154406871Y-82548290D01*
X154357022Y-82533169D01*
X154311090Y-82508618D01*
X154270826Y-82475574D01*
X154237782Y-82435310D01*
X154213231Y-82389378D01*
X154198110Y-82339529D01*
X154192400Y-82281556D01*
X154192400Y-81276444D01*
X154198110Y-81218471D01*
X154213231Y-81168622D01*
X154237782Y-81122690D01*
X154270826Y-81082426D01*
X154311090Y-81049382D01*
X154357022Y-81024831D01*
X154406871Y-81009710D01*
X154464844Y-81004000D01*
X155719956Y-81004000D01*
X155777929Y-81009710D01*
X155777929Y-81009710D01*
G37*
G36*
X122288029Y-79866710D02*
G01*
X122337878Y-79881831D01*
X122383810Y-79906382D01*
X122424074Y-79939426D01*
X122457118Y-79979690D01*
X122481669Y-80025622D01*
X122496790Y-80075471D01*
X122502500Y-80133444D01*
X122502500Y-81138556D01*
X122496790Y-81196529D01*
X122481669Y-81246378D01*
X122457118Y-81292310D01*
X122424074Y-81332574D01*
X122383810Y-81365618D01*
X122337878Y-81390169D01*
X122288029Y-81405290D01*
X122230056Y-81411000D01*
X120974944Y-81411000D01*
X120916971Y-81405290D01*
X120867122Y-81390169D01*
X120821190Y-81365618D01*
X120780926Y-81332574D01*
X120747882Y-81292310D01*
X120723331Y-81246378D01*
X120708210Y-81196529D01*
X120702500Y-81138556D01*
X120702500Y-80133444D01*
X120708210Y-80075471D01*
X120723331Y-80025622D01*
X120747882Y-79979690D01*
X120780926Y-79939426D01*
X120821190Y-79906382D01*
X120867122Y-79881831D01*
X120916971Y-79866710D01*
X120974944Y-79861000D01*
X122230056Y-79861000D01*
X122288029Y-79866710D01*
X122288029Y-79866710D01*
G37*
G36*
X119176529Y-79866710D02*
G01*
X119226378Y-79881831D01*
X119272310Y-79906382D01*
X119312574Y-79939426D01*
X119345618Y-79979690D01*
X119370169Y-80025622D01*
X119385290Y-80075471D01*
X119391000Y-80133444D01*
X119391000Y-81138556D01*
X119385290Y-81196529D01*
X119370169Y-81246378D01*
X119345618Y-81292310D01*
X119312574Y-81332574D01*
X119272310Y-81365618D01*
X119226378Y-81390169D01*
X119176529Y-81405290D01*
X119118556Y-81411000D01*
X117863444Y-81411000D01*
X117805471Y-81405290D01*
X117755622Y-81390169D01*
X117709690Y-81365618D01*
X117669426Y-81332574D01*
X117636382Y-81292310D01*
X117611831Y-81246378D01*
X117596710Y-81196529D01*
X117591000Y-81138556D01*
X117591000Y-80133444D01*
X117596710Y-80075471D01*
X117611831Y-80025622D01*
X117636382Y-79979690D01*
X117669426Y-79939426D01*
X117709690Y-79906382D01*
X117755622Y-79881831D01*
X117805471Y-79866710D01*
X117863444Y-79861000D01*
X119118556Y-79861000D01*
X119176529Y-79866710D01*
X119176529Y-79866710D01*
G37*
G36*
X125399529Y-79676210D02*
G01*
X125449378Y-79691331D01*
X125495310Y-79715882D01*
X125535574Y-79748926D01*
X125568618Y-79789190D01*
X125593169Y-79835122D01*
X125608290Y-79884971D01*
X125614000Y-79942944D01*
X125614000Y-80948056D01*
X125608290Y-81006029D01*
X125593169Y-81055878D01*
X125568618Y-81101810D01*
X125535574Y-81142074D01*
X125495310Y-81175118D01*
X125449378Y-81199669D01*
X125399529Y-81214790D01*
X125341556Y-81220500D01*
X124086444Y-81220500D01*
X124028471Y-81214790D01*
X123978622Y-81199669D01*
X123932690Y-81175118D01*
X123892426Y-81142074D01*
X123859382Y-81101810D01*
X123834831Y-81055878D01*
X123819710Y-81006029D01*
X123814000Y-80948056D01*
X123814000Y-79942944D01*
X123819710Y-79884971D01*
X123834831Y-79835122D01*
X123859382Y-79789190D01*
X123892426Y-79748926D01*
X123932690Y-79715882D01*
X123978622Y-79691331D01*
X124028471Y-79676210D01*
X124086444Y-79670500D01*
X125341556Y-79670500D01*
X125399529Y-79676210D01*
X125399529Y-79676210D01*
G37*
G36*
X158059600Y-72296000D02*
G01*
X154859600Y-72296000D01*
X154859600Y-70896000D01*
X158059600Y-70896000D01*
X158059600Y-72296000D01*
X158059600Y-72296000D01*
G37*
G36*
X163859600Y-72296000D02*
G01*
X160659600Y-72296000D01*
X160659600Y-70896000D01*
X163859600Y-70896000D01*
X163859600Y-72296000D01*
X163859600Y-72296000D01*
G37*
G36*
X163859600Y-68296000D02*
G01*
X160659600Y-68296000D01*
X160659600Y-66896000D01*
X163859600Y-66896000D01*
X163859600Y-68296000D01*
X163859600Y-68296000D01*
G37*
G36*
X158059600Y-68296000D02*
G01*
X154859600Y-68296000D01*
X154859600Y-66896000D01*
X158059600Y-66896000D01*
X158059600Y-68296000D01*
X158059600Y-68296000D01*
G37*
G36*
X162585129Y-62587310D02*
G01*
X162634978Y-62602431D01*
X162680910Y-62626982D01*
X162721174Y-62660026D01*
X162754218Y-62700290D01*
X162778769Y-62746222D01*
X162793890Y-62796071D01*
X162799600Y-62854044D01*
X162799600Y-63859156D01*
X162793890Y-63917129D01*
X162778769Y-63966978D01*
X162754218Y-64012910D01*
X162721174Y-64053174D01*
X162680910Y-64086218D01*
X162634978Y-64110769D01*
X162585129Y-64125890D01*
X162527156Y-64131600D01*
X161272044Y-64131600D01*
X161214071Y-64125890D01*
X161164222Y-64110769D01*
X161118290Y-64086218D01*
X161078026Y-64053174D01*
X161044982Y-64012910D01*
X161020431Y-63966978D01*
X161005310Y-63917129D01*
X160999600Y-63859156D01*
X160999600Y-62854044D01*
X161005310Y-62796071D01*
X161020431Y-62746222D01*
X161044982Y-62700290D01*
X161078026Y-62660026D01*
X161118290Y-62626982D01*
X161164222Y-62602431D01*
X161214071Y-62587310D01*
X161272044Y-62581600D01*
X162527156Y-62581600D01*
X162585129Y-62587310D01*
X162585129Y-62587310D01*
G37*
G36*
X162585129Y-60537310D02*
G01*
X162634978Y-60552431D01*
X162680910Y-60576982D01*
X162721174Y-60610026D01*
X162754218Y-60650290D01*
X162778769Y-60696222D01*
X162793890Y-60746071D01*
X162799600Y-60804044D01*
X162799600Y-61809156D01*
X162793890Y-61867129D01*
X162778769Y-61916978D01*
X162754218Y-61962910D01*
X162721174Y-62003174D01*
X162680910Y-62036218D01*
X162634978Y-62060769D01*
X162585129Y-62075890D01*
X162527156Y-62081600D01*
X161272044Y-62081600D01*
X161214071Y-62075890D01*
X161164222Y-62060769D01*
X161118290Y-62036218D01*
X161078026Y-62003174D01*
X161044982Y-61962910D01*
X161020431Y-61916978D01*
X161005310Y-61867129D01*
X160999600Y-61809156D01*
X160999600Y-60804044D01*
X161005310Y-60746071D01*
X161020431Y-60696222D01*
X161044982Y-60650290D01*
X161078026Y-60610026D01*
X161118290Y-60576982D01*
X161164222Y-60552431D01*
X161214071Y-60537310D01*
X161272044Y-60531600D01*
X162527156Y-60531600D01*
X162585129Y-60537310D01*
X162585129Y-60537310D01*
G37*
M02*
