G04 #@! TF.GenerationSoftware,KiCad,Pcbnew,(5.1.2)-1*
G04 #@! TF.CreationDate,2019-06-26T23:30:14+01:00*
G04 #@! TF.ProjectId,Real Raw Avocato cut,5265616c-2052-4617-9720-41766f636174,rev?*
G04 #@! TF.SameCoordinates,Original*
G04 #@! TF.FileFunction,Copper,L1,Top*
G04 #@! TF.FilePolarity,Positive*
%FSLAX46Y46*%
G04 Gerber Fmt 4.6, Leading zero omitted, Abs format (unit mm)*
G04 Created by KiCad (PCBNEW (5.1.2)-1) date 2019-06-26 23:30:14*
%MOMM*%
%LPD*%
G04 APERTURE LIST*
%ADD10C,0.010000*%
%ADD11C,1.700000*%
%ADD12O,1.700000X1.700000*%
G04 APERTURE END LIST*
D10*
G36*
X130702649Y-116045343D02*
G01*
X130758999Y-116100230D01*
X130831462Y-116189615D01*
X130918687Y-116311788D01*
X131019322Y-116465036D01*
X131057083Y-116525088D01*
X131241861Y-116807777D01*
X131426989Y-117060834D01*
X131621604Y-117296040D01*
X131825513Y-117515637D01*
X132124401Y-117802971D01*
X132425925Y-118054131D01*
X132738038Y-118274943D01*
X133068694Y-118471230D01*
X133276416Y-118578246D01*
X133501358Y-118684459D01*
X133708431Y-118772989D01*
X133904676Y-118845302D01*
X134097135Y-118902866D01*
X134292852Y-118947148D01*
X134498869Y-118979614D01*
X134722228Y-119001733D01*
X134969971Y-119014970D01*
X135249141Y-119020793D01*
X135403666Y-119021382D01*
X135708790Y-119018101D01*
X135979376Y-119008005D01*
X136222817Y-118990096D01*
X136446509Y-118963378D01*
X136657844Y-118926854D01*
X136864217Y-118879526D01*
X137073021Y-118820396D01*
X137202833Y-118778744D01*
X137685388Y-118598145D01*
X138173317Y-118376456D01*
X138665412Y-118114403D01*
X139160464Y-117812714D01*
X139657267Y-117472117D01*
X140154611Y-117093340D01*
X140559191Y-116757177D01*
X140733723Y-116609354D01*
X140887819Y-116484308D01*
X141019626Y-116383389D01*
X141127293Y-116307949D01*
X141208966Y-116259342D01*
X141262795Y-116238917D01*
X141269998Y-116238334D01*
X141340150Y-116253453D01*
X141383287Y-116295082D01*
X141393833Y-116340536D01*
X141382327Y-116386310D01*
X141346566Y-116447328D01*
X141284680Y-116525775D01*
X141194803Y-116623839D01*
X141075066Y-116743707D01*
X140938750Y-116873423D01*
X140448759Y-117308090D01*
X139950385Y-117703660D01*
X139444441Y-118059648D01*
X138931737Y-118375567D01*
X138413087Y-118650932D01*
X137889301Y-118885257D01*
X137361192Y-119078057D01*
X137139333Y-119146231D01*
X136766659Y-119241384D01*
X136378843Y-119316054D01*
X135985971Y-119369114D01*
X135598127Y-119399435D01*
X135225395Y-119405888D01*
X134938000Y-119392570D01*
X134500347Y-119336836D01*
X134065112Y-119239529D01*
X133634219Y-119101409D01*
X133209591Y-118923233D01*
X132793152Y-118705761D01*
X132386825Y-118449749D01*
X132190548Y-118309385D01*
X131996367Y-118152612D01*
X131791884Y-117965488D01*
X131584399Y-117756163D01*
X131381211Y-117532786D01*
X131189619Y-117303507D01*
X131016925Y-117076475D01*
X130870427Y-116859840D01*
X130824638Y-116784487D01*
X130733133Y-116617884D01*
X130661951Y-116465850D01*
X130611740Y-116331441D01*
X130583150Y-116217713D01*
X130576830Y-116127725D01*
X130593427Y-116064532D01*
X130633592Y-116031192D01*
X130663762Y-116026667D01*
X130702649Y-116045343D01*
X130702649Y-116045343D01*
G37*
X130702649Y-116045343D02*
X130758999Y-116100230D01*
X130831462Y-116189615D01*
X130918687Y-116311788D01*
X131019322Y-116465036D01*
X131057083Y-116525088D01*
X131241861Y-116807777D01*
X131426989Y-117060834D01*
X131621604Y-117296040D01*
X131825513Y-117515637D01*
X132124401Y-117802971D01*
X132425925Y-118054131D01*
X132738038Y-118274943D01*
X133068694Y-118471230D01*
X133276416Y-118578246D01*
X133501358Y-118684459D01*
X133708431Y-118772989D01*
X133904676Y-118845302D01*
X134097135Y-118902866D01*
X134292852Y-118947148D01*
X134498869Y-118979614D01*
X134722228Y-119001733D01*
X134969971Y-119014970D01*
X135249141Y-119020793D01*
X135403666Y-119021382D01*
X135708790Y-119018101D01*
X135979376Y-119008005D01*
X136222817Y-118990096D01*
X136446509Y-118963378D01*
X136657844Y-118926854D01*
X136864217Y-118879526D01*
X137073021Y-118820396D01*
X137202833Y-118778744D01*
X137685388Y-118598145D01*
X138173317Y-118376456D01*
X138665412Y-118114403D01*
X139160464Y-117812714D01*
X139657267Y-117472117D01*
X140154611Y-117093340D01*
X140559191Y-116757177D01*
X140733723Y-116609354D01*
X140887819Y-116484308D01*
X141019626Y-116383389D01*
X141127293Y-116307949D01*
X141208966Y-116259342D01*
X141262795Y-116238917D01*
X141269998Y-116238334D01*
X141340150Y-116253453D01*
X141383287Y-116295082D01*
X141393833Y-116340536D01*
X141382327Y-116386310D01*
X141346566Y-116447328D01*
X141284680Y-116525775D01*
X141194803Y-116623839D01*
X141075066Y-116743707D01*
X140938750Y-116873423D01*
X140448759Y-117308090D01*
X139950385Y-117703660D01*
X139444441Y-118059648D01*
X138931737Y-118375567D01*
X138413087Y-118650932D01*
X137889301Y-118885257D01*
X137361192Y-119078057D01*
X137139333Y-119146231D01*
X136766659Y-119241384D01*
X136378843Y-119316054D01*
X135985971Y-119369114D01*
X135598127Y-119399435D01*
X135225395Y-119405888D01*
X134938000Y-119392570D01*
X134500347Y-119336836D01*
X134065112Y-119239529D01*
X133634219Y-119101409D01*
X133209591Y-118923233D01*
X132793152Y-118705761D01*
X132386825Y-118449749D01*
X132190548Y-118309385D01*
X131996367Y-118152612D01*
X131791884Y-117965488D01*
X131584399Y-117756163D01*
X131381211Y-117532786D01*
X131189619Y-117303507D01*
X131016925Y-117076475D01*
X130870427Y-116859840D01*
X130824638Y-116784487D01*
X130733133Y-116617884D01*
X130661951Y-116465850D01*
X130611740Y-116331441D01*
X130583150Y-116217713D01*
X130576830Y-116127725D01*
X130593427Y-116064532D01*
X130633592Y-116031192D01*
X130663762Y-116026667D01*
X130702649Y-116045343D01*
G36*
X113929666Y-114815081D02*
G01*
X113985937Y-114864690D01*
X114030598Y-114949871D01*
X114064760Y-115072672D01*
X114087302Y-115215804D01*
X114107996Y-115339149D01*
X114140820Y-115479059D01*
X114180525Y-115613494D01*
X114185620Y-115628554D01*
X114237761Y-115768183D01*
X114301307Y-115919616D01*
X114371820Y-116073769D01*
X114444864Y-116221560D01*
X114515999Y-116353903D01*
X114580789Y-116461715D01*
X114620065Y-116517821D01*
X114733182Y-116639828D01*
X114886064Y-116765151D01*
X115076431Y-116892199D01*
X115302000Y-117019378D01*
X115432916Y-117085260D01*
X115551963Y-117144574D01*
X115665791Y-117204155D01*
X115765460Y-117259113D01*
X115842029Y-117304559D01*
X115877416Y-117328333D01*
X116015477Y-117454025D01*
X116115123Y-117597200D01*
X116176780Y-117758782D01*
X116200875Y-117939693D01*
X116199618Y-118026917D01*
X116177366Y-118200926D01*
X116128791Y-118349418D01*
X116049548Y-118483057D01*
X115979522Y-118567024D01*
X115832840Y-118695730D01*
X115665938Y-118787706D01*
X115480523Y-118842430D01*
X115278302Y-118859384D01*
X115078658Y-118841139D01*
X114923707Y-118804020D01*
X114796746Y-118750793D01*
X114701200Y-118683892D01*
X114640495Y-118605747D01*
X114618056Y-118518792D01*
X114618000Y-118514092D01*
X114626526Y-118460663D01*
X114654862Y-118431005D01*
X114707140Y-118424611D01*
X114787492Y-118440971D01*
X114899609Y-118479408D01*
X115098647Y-118544766D01*
X115272763Y-118578691D01*
X115425580Y-118581008D01*
X115560719Y-118551547D01*
X115681804Y-118490134D01*
X115747911Y-118439027D01*
X115842439Y-118331437D01*
X115900482Y-118205685D01*
X115922644Y-118059726D01*
X115909713Y-117892577D01*
X115894119Y-117811356D01*
X115874522Y-117744185D01*
X115846396Y-117687198D01*
X115805215Y-117636533D01*
X115746454Y-117588325D01*
X115665587Y-117538709D01*
X115558087Y-117483823D01*
X115419429Y-117419802D01*
X115287542Y-117361393D01*
X115166689Y-117306934D01*
X115048133Y-117251018D01*
X114942308Y-117198739D01*
X114859649Y-117155190D01*
X114829397Y-117137753D01*
X114649430Y-117008414D01*
X114474046Y-116844176D01*
X114309626Y-116652435D01*
X114162551Y-116440587D01*
X114045540Y-116229156D01*
X113963546Y-116046991D01*
X113893076Y-115862960D01*
X113834661Y-115681162D01*
X113788829Y-115505696D01*
X113756111Y-115340661D01*
X113737037Y-115190158D01*
X113732136Y-115058285D01*
X113741939Y-114949141D01*
X113766975Y-114866826D01*
X113807774Y-114815440D01*
X113860672Y-114799000D01*
X113929666Y-114815081D01*
X113929666Y-114815081D01*
G37*
X113929666Y-114815081D02*
X113985937Y-114864690D01*
X114030598Y-114949871D01*
X114064760Y-115072672D01*
X114087302Y-115215804D01*
X114107996Y-115339149D01*
X114140820Y-115479059D01*
X114180525Y-115613494D01*
X114185620Y-115628554D01*
X114237761Y-115768183D01*
X114301307Y-115919616D01*
X114371820Y-116073769D01*
X114444864Y-116221560D01*
X114515999Y-116353903D01*
X114580789Y-116461715D01*
X114620065Y-116517821D01*
X114733182Y-116639828D01*
X114886064Y-116765151D01*
X115076431Y-116892199D01*
X115302000Y-117019378D01*
X115432916Y-117085260D01*
X115551963Y-117144574D01*
X115665791Y-117204155D01*
X115765460Y-117259113D01*
X115842029Y-117304559D01*
X115877416Y-117328333D01*
X116015477Y-117454025D01*
X116115123Y-117597200D01*
X116176780Y-117758782D01*
X116200875Y-117939693D01*
X116199618Y-118026917D01*
X116177366Y-118200926D01*
X116128791Y-118349418D01*
X116049548Y-118483057D01*
X115979522Y-118567024D01*
X115832840Y-118695730D01*
X115665938Y-118787706D01*
X115480523Y-118842430D01*
X115278302Y-118859384D01*
X115078658Y-118841139D01*
X114923707Y-118804020D01*
X114796746Y-118750793D01*
X114701200Y-118683892D01*
X114640495Y-118605747D01*
X114618056Y-118518792D01*
X114618000Y-118514092D01*
X114626526Y-118460663D01*
X114654862Y-118431005D01*
X114707140Y-118424611D01*
X114787492Y-118440971D01*
X114899609Y-118479408D01*
X115098647Y-118544766D01*
X115272763Y-118578691D01*
X115425580Y-118581008D01*
X115560719Y-118551547D01*
X115681804Y-118490134D01*
X115747911Y-118439027D01*
X115842439Y-118331437D01*
X115900482Y-118205685D01*
X115922644Y-118059726D01*
X115909713Y-117892577D01*
X115894119Y-117811356D01*
X115874522Y-117744185D01*
X115846396Y-117687198D01*
X115805215Y-117636533D01*
X115746454Y-117588325D01*
X115665587Y-117538709D01*
X115558087Y-117483823D01*
X115419429Y-117419802D01*
X115287542Y-117361393D01*
X115166689Y-117306934D01*
X115048133Y-117251018D01*
X114942308Y-117198739D01*
X114859649Y-117155190D01*
X114829397Y-117137753D01*
X114649430Y-117008414D01*
X114474046Y-116844176D01*
X114309626Y-116652435D01*
X114162551Y-116440587D01*
X114045540Y-116229156D01*
X113963546Y-116046991D01*
X113893076Y-115862960D01*
X113834661Y-115681162D01*
X113788829Y-115505696D01*
X113756111Y-115340661D01*
X113737037Y-115190158D01*
X113732136Y-115058285D01*
X113741939Y-114949141D01*
X113766975Y-114866826D01*
X113807774Y-114815440D01*
X113860672Y-114799000D01*
X113929666Y-114815081D01*
G36*
X165365083Y-114234532D02*
G01*
X165626973Y-114243385D01*
X165881209Y-114257641D01*
X166132491Y-114278070D01*
X166385521Y-114305437D01*
X166644999Y-114340510D01*
X166915626Y-114384055D01*
X167202102Y-114436840D01*
X167509128Y-114499632D01*
X167841405Y-114573197D01*
X168203633Y-114658302D01*
X168600514Y-114755716D01*
X168677666Y-114775036D01*
X169013407Y-114858048D01*
X169313391Y-114929223D01*
X169582272Y-114989333D01*
X169824707Y-115039147D01*
X170045352Y-115079434D01*
X170248861Y-115110963D01*
X170439891Y-115134506D01*
X170623097Y-115150830D01*
X170803134Y-115160705D01*
X170984659Y-115164902D01*
X171037750Y-115165166D01*
X171196147Y-115164242D01*
X171325926Y-115160295D01*
X171440760Y-115152241D01*
X171554318Y-115138993D01*
X171680272Y-115119467D01*
X171737483Y-115109603D01*
X171982628Y-115068918D01*
X172211797Y-115036491D01*
X172437526Y-115011026D01*
X172672351Y-114991228D01*
X172928806Y-114975800D01*
X173112083Y-114967541D01*
X173260867Y-114961153D01*
X173401171Y-114954416D01*
X173525587Y-114947743D01*
X173626711Y-114941544D01*
X173697136Y-114936230D01*
X173720625Y-114933765D01*
X173782175Y-114927937D01*
X173812330Y-114933113D01*
X173821080Y-114951381D01*
X173821166Y-114954761D01*
X173802683Y-114979616D01*
X173751888Y-115016373D01*
X173675763Y-115061180D01*
X173581289Y-115110186D01*
X173475447Y-115159541D01*
X173370706Y-115203251D01*
X173324212Y-115223248D01*
X173245384Y-115259175D01*
X173139912Y-115308353D01*
X173013486Y-115368103D01*
X172871794Y-115435744D01*
X172720528Y-115508598D01*
X172657000Y-115539383D01*
X172353926Y-115683309D01*
X172076029Y-115808031D01*
X171813136Y-115917636D01*
X171555074Y-116016211D01*
X171291669Y-116107844D01*
X171048333Y-116185688D01*
X170859866Y-116241993D01*
X170664448Y-116296995D01*
X170469575Y-116348834D01*
X170282742Y-116395650D01*
X170111446Y-116435584D01*
X169963183Y-116466774D01*
X169845448Y-116487362D01*
X169817110Y-116491204D01*
X169598476Y-116515070D01*
X169357991Y-116536094D01*
X169103879Y-116553927D01*
X168844362Y-116568222D01*
X168587661Y-116578631D01*
X168341999Y-116584805D01*
X168115598Y-116586398D01*
X167916680Y-116583062D01*
X167788666Y-116576998D01*
X167516124Y-116553705D01*
X167254399Y-116519457D01*
X166995870Y-116472439D01*
X166732916Y-116410835D01*
X166457917Y-116332829D01*
X166163254Y-116236605D01*
X165841305Y-116120348D01*
X165788416Y-116100397D01*
X165648927Y-116046786D01*
X165521624Y-115995907D01*
X165402045Y-115945415D01*
X165285734Y-115892960D01*
X165168232Y-115836197D01*
X165045078Y-115772777D01*
X164911815Y-115700353D01*
X164763984Y-115616579D01*
X164597126Y-115519105D01*
X164406782Y-115405586D01*
X164188493Y-115273673D01*
X163998923Y-115158310D01*
X163813221Y-115044453D01*
X163661332Y-114949819D01*
X163540424Y-114872441D01*
X163447660Y-114810354D01*
X163380208Y-114761589D01*
X163335232Y-114724181D01*
X163309899Y-114696162D01*
X163301374Y-114675566D01*
X163301333Y-114674234D01*
X163321470Y-114629808D01*
X163378855Y-114580680D01*
X163468945Y-114528915D01*
X163587197Y-114476578D01*
X163729071Y-114425732D01*
X163890024Y-114378444D01*
X164023769Y-114345829D01*
X164241536Y-114301675D01*
X164451894Y-114268995D01*
X164665064Y-114246941D01*
X164891261Y-114234665D01*
X165140705Y-114231319D01*
X165365083Y-114234532D01*
X165365083Y-114234532D01*
G37*
X165365083Y-114234532D02*
X165626973Y-114243385D01*
X165881209Y-114257641D01*
X166132491Y-114278070D01*
X166385521Y-114305437D01*
X166644999Y-114340510D01*
X166915626Y-114384055D01*
X167202102Y-114436840D01*
X167509128Y-114499632D01*
X167841405Y-114573197D01*
X168203633Y-114658302D01*
X168600514Y-114755716D01*
X168677666Y-114775036D01*
X169013407Y-114858048D01*
X169313391Y-114929223D01*
X169582272Y-114989333D01*
X169824707Y-115039147D01*
X170045352Y-115079434D01*
X170248861Y-115110963D01*
X170439891Y-115134506D01*
X170623097Y-115150830D01*
X170803134Y-115160705D01*
X170984659Y-115164902D01*
X171037750Y-115165166D01*
X171196147Y-115164242D01*
X171325926Y-115160295D01*
X171440760Y-115152241D01*
X171554318Y-115138993D01*
X171680272Y-115119467D01*
X171737483Y-115109603D01*
X171982628Y-115068918D01*
X172211797Y-115036491D01*
X172437526Y-115011026D01*
X172672351Y-114991228D01*
X172928806Y-114975800D01*
X173112083Y-114967541D01*
X173260867Y-114961153D01*
X173401171Y-114954416D01*
X173525587Y-114947743D01*
X173626711Y-114941544D01*
X173697136Y-114936230D01*
X173720625Y-114933765D01*
X173782175Y-114927937D01*
X173812330Y-114933113D01*
X173821080Y-114951381D01*
X173821166Y-114954761D01*
X173802683Y-114979616D01*
X173751888Y-115016373D01*
X173675763Y-115061180D01*
X173581289Y-115110186D01*
X173475447Y-115159541D01*
X173370706Y-115203251D01*
X173324212Y-115223248D01*
X173245384Y-115259175D01*
X173139912Y-115308353D01*
X173013486Y-115368103D01*
X172871794Y-115435744D01*
X172720528Y-115508598D01*
X172657000Y-115539383D01*
X172353926Y-115683309D01*
X172076029Y-115808031D01*
X171813136Y-115917636D01*
X171555074Y-116016211D01*
X171291669Y-116107844D01*
X171048333Y-116185688D01*
X170859866Y-116241993D01*
X170664448Y-116296995D01*
X170469575Y-116348834D01*
X170282742Y-116395650D01*
X170111446Y-116435584D01*
X169963183Y-116466774D01*
X169845448Y-116487362D01*
X169817110Y-116491204D01*
X169598476Y-116515070D01*
X169357991Y-116536094D01*
X169103879Y-116553927D01*
X168844362Y-116568222D01*
X168587661Y-116578631D01*
X168341999Y-116584805D01*
X168115598Y-116586398D01*
X167916680Y-116583062D01*
X167788666Y-116576998D01*
X167516124Y-116553705D01*
X167254399Y-116519457D01*
X166995870Y-116472439D01*
X166732916Y-116410835D01*
X166457917Y-116332829D01*
X166163254Y-116236605D01*
X165841305Y-116120348D01*
X165788416Y-116100397D01*
X165648927Y-116046786D01*
X165521624Y-115995907D01*
X165402045Y-115945415D01*
X165285734Y-115892960D01*
X165168232Y-115836197D01*
X165045078Y-115772777D01*
X164911815Y-115700353D01*
X164763984Y-115616579D01*
X164597126Y-115519105D01*
X164406782Y-115405586D01*
X164188493Y-115273673D01*
X163998923Y-115158310D01*
X163813221Y-115044453D01*
X163661332Y-114949819D01*
X163540424Y-114872441D01*
X163447660Y-114810354D01*
X163380208Y-114761589D01*
X163335232Y-114724181D01*
X163309899Y-114696162D01*
X163301374Y-114675566D01*
X163301333Y-114674234D01*
X163321470Y-114629808D01*
X163378855Y-114580680D01*
X163468945Y-114528915D01*
X163587197Y-114476578D01*
X163729071Y-114425732D01*
X163890024Y-114378444D01*
X164023769Y-114345829D01*
X164241536Y-114301675D01*
X164451894Y-114268995D01*
X164665064Y-114246941D01*
X164891261Y-114234665D01*
X165140705Y-114231319D01*
X165365083Y-114234532D01*
G36*
X173186166Y-115508084D02*
G01*
X173175583Y-115518667D01*
X173165000Y-115508084D01*
X173175583Y-115497500D01*
X173186166Y-115508084D01*
X173186166Y-115508084D01*
G37*
X173186166Y-115508084D02*
X173175583Y-115518667D01*
X173165000Y-115508084D01*
X173175583Y-115497500D01*
X173186166Y-115508084D01*
G36*
X173228500Y-115486917D02*
G01*
X173217916Y-115497500D01*
X173207333Y-115486917D01*
X173217916Y-115476334D01*
X173228500Y-115486917D01*
X173228500Y-115486917D01*
G37*
X173228500Y-115486917D02*
X173217916Y-115497500D01*
X173207333Y-115486917D01*
X173217916Y-115476334D01*
X173228500Y-115486917D01*
G36*
X173365799Y-115422920D02*
G01*
X173335917Y-115443672D01*
X173334333Y-115444584D01*
X173288757Y-115466750D01*
X173260250Y-115474833D01*
X173260534Y-115466247D01*
X173290415Y-115445495D01*
X173292000Y-115444584D01*
X173337575Y-115422417D01*
X173366083Y-115414334D01*
X173365799Y-115422920D01*
X173365799Y-115422920D01*
G37*
X173365799Y-115422920D02*
X173335917Y-115443672D01*
X173334333Y-115444584D01*
X173288757Y-115466750D01*
X173260250Y-115474833D01*
X173260534Y-115466247D01*
X173290415Y-115445495D01*
X173292000Y-115444584D01*
X173337575Y-115422417D01*
X173366083Y-115414334D01*
X173365799Y-115422920D01*
G36*
X173419000Y-115402250D02*
G01*
X173408416Y-115412834D01*
X173397833Y-115402250D01*
X173408416Y-115391667D01*
X173419000Y-115402250D01*
X173419000Y-115402250D01*
G37*
X173419000Y-115402250D02*
X173408416Y-115412834D01*
X173397833Y-115402250D01*
X173408416Y-115391667D01*
X173419000Y-115402250D01*
G36*
X173461333Y-115381084D02*
G01*
X173450750Y-115391667D01*
X173440166Y-115381084D01*
X173450750Y-115370500D01*
X173461333Y-115381084D01*
X173461333Y-115381084D01*
G37*
X173461333Y-115381084D02*
X173450750Y-115391667D01*
X173440166Y-115381084D01*
X173450750Y-115370500D01*
X173461333Y-115381084D01*
G36*
X135614048Y-112176044D02*
G01*
X135814970Y-112180759D01*
X136007074Y-112189377D01*
X136195205Y-112202587D01*
X136384210Y-112221079D01*
X136578937Y-112245542D01*
X136784232Y-112276666D01*
X137004942Y-112315141D01*
X137245915Y-112361655D01*
X137511997Y-112416898D01*
X137808035Y-112481560D01*
X138138877Y-112556330D01*
X138229416Y-112577102D01*
X138456685Y-112629147D01*
X138648505Y-112672266D01*
X138810615Y-112707302D01*
X138948759Y-112735098D01*
X139068675Y-112756497D01*
X139176107Y-112772342D01*
X139276794Y-112783475D01*
X139376478Y-112790741D01*
X139480900Y-112794982D01*
X139595801Y-112797040D01*
X139726922Y-112797759D01*
X139732250Y-112797771D01*
X139913650Y-112796536D01*
X140071292Y-112790895D01*
X140213551Y-112779238D01*
X140348799Y-112759958D01*
X140485412Y-112731446D01*
X140631763Y-112692091D01*
X140796226Y-112640287D01*
X140987174Y-112574424D01*
X141093967Y-112536162D01*
X141212862Y-112494389D01*
X141300045Y-112467528D01*
X141363010Y-112454520D01*
X141409251Y-112454306D01*
X141446259Y-112465825D01*
X141473790Y-112482450D01*
X141515653Y-112531617D01*
X141520708Y-112595195D01*
X141488615Y-112673700D01*
X141419030Y-112767648D01*
X141311615Y-112877555D01*
X141166026Y-113003937D01*
X141086916Y-113067141D01*
X140782736Y-113295268D01*
X140447661Y-113529171D01*
X140091425Y-113762737D01*
X139723763Y-113989856D01*
X139354411Y-114204416D01*
X138993103Y-114400306D01*
X138832666Y-114482272D01*
X138422705Y-114676898D01*
X138013231Y-114850964D01*
X137609716Y-115002591D01*
X137217632Y-115129900D01*
X136842452Y-115231012D01*
X136489647Y-115304047D01*
X136395799Y-115319182D01*
X136316019Y-115328093D01*
X136202690Y-115336517D01*
X136063790Y-115344236D01*
X135907298Y-115351028D01*
X135741189Y-115356674D01*
X135573442Y-115360953D01*
X135412034Y-115363645D01*
X135264943Y-115364529D01*
X135140146Y-115363386D01*
X135045620Y-115359996D01*
X135012083Y-115357377D01*
X134720102Y-115319902D01*
X134454128Y-115269260D01*
X134198910Y-115201769D01*
X133939199Y-115113747D01*
X133831749Y-115072403D01*
X133696901Y-115016259D01*
X133563009Y-114954471D01*
X133424585Y-114883954D01*
X133276142Y-114801622D01*
X133112193Y-114704392D01*
X132927251Y-114589178D01*
X132715828Y-114452894D01*
X132631420Y-114397583D01*
X132463582Y-114287432D01*
X132314422Y-114190131D01*
X132176570Y-114101007D01*
X132042656Y-114015387D01*
X131905307Y-113928600D01*
X131757153Y-113835972D01*
X131590824Y-113732832D01*
X131398947Y-113614506D01*
X131303246Y-113555638D01*
X131200607Y-113491382D01*
X131100699Y-113426800D01*
X131014360Y-113369026D01*
X130952427Y-113325191D01*
X130948083Y-113321917D01*
X130947226Y-113321225D01*
X131667750Y-113321225D01*
X131668030Y-113347505D01*
X131699158Y-113388528D01*
X131754349Y-113439646D01*
X131826821Y-113496211D01*
X131909790Y-113553574D01*
X131996472Y-113607088D01*
X132080085Y-113652103D01*
X132153844Y-113683971D01*
X132210967Y-113698044D01*
X132218064Y-113698334D01*
X132265960Y-113680972D01*
X132322562Y-113633956D01*
X132335341Y-113620058D01*
X132382407Y-113554967D01*
X132435312Y-113464429D01*
X132486605Y-113363188D01*
X132518123Y-113290647D01*
X139475552Y-113290647D01*
X139494462Y-113347634D01*
X139544675Y-113432886D01*
X139604382Y-113504153D01*
X139665139Y-113553015D01*
X139718501Y-113571054D01*
X139718567Y-113571054D01*
X139762900Y-113560861D01*
X139830707Y-113534053D01*
X139909201Y-113495858D01*
X139929951Y-113484614D01*
X140021777Y-113427593D01*
X140115666Y-113359502D01*
X140191913Y-113294675D01*
X140194534Y-113292142D01*
X140303750Y-113185829D01*
X140250833Y-113164791D01*
X140204256Y-113156361D01*
X140126111Y-113152497D01*
X140026866Y-113152773D01*
X139916993Y-113156765D01*
X139806960Y-113164049D01*
X139707236Y-113174200D01*
X139628292Y-113186793D01*
X139611181Y-113190738D01*
X139529341Y-113217309D01*
X139485554Y-113248699D01*
X139475552Y-113290647D01*
X132518123Y-113290647D01*
X132528837Y-113265989D01*
X132554557Y-113187579D01*
X132555137Y-113185042D01*
X132560412Y-113146544D01*
X132545664Y-113130342D01*
X132500445Y-113126853D01*
X132491686Y-113126834D01*
X132424126Y-113131848D01*
X132331122Y-113145581D01*
X132221018Y-113166061D01*
X132102160Y-113191322D01*
X131982891Y-113219393D01*
X131871556Y-113248307D01*
X131776501Y-113276095D01*
X131706069Y-113300787D01*
X131668605Y-113320415D01*
X131667750Y-113321225D01*
X130947226Y-113321225D01*
X130889075Y-113274294D01*
X130857206Y-113237493D01*
X130844336Y-113198938D01*
X130842250Y-113158369D01*
X130846555Y-113103355D01*
X130864185Y-113072262D01*
X132842887Y-113072262D01*
X132857778Y-113089286D01*
X132880729Y-113103471D01*
X132926782Y-113119464D01*
X133007104Y-113138361D01*
X133113850Y-113158764D01*
X133239174Y-113179280D01*
X133375230Y-113198511D01*
X133498666Y-113213382D01*
X133616584Y-113223544D01*
X133772906Y-113232607D01*
X133963715Y-113240555D01*
X134185095Y-113247372D01*
X134433130Y-113253042D01*
X134703904Y-113257549D01*
X134993501Y-113260875D01*
X135298005Y-113263005D01*
X135613500Y-113263923D01*
X135936069Y-113263612D01*
X136261797Y-113262056D01*
X136586767Y-113259238D01*
X136907064Y-113255143D01*
X137218771Y-113249754D01*
X137517972Y-113243055D01*
X137800752Y-113235029D01*
X137901333Y-113231689D01*
X138120778Y-113223799D01*
X138301894Y-113216518D01*
X138448672Y-113209483D01*
X138565103Y-113202330D01*
X138655181Y-113194697D01*
X138722898Y-113186221D01*
X138772245Y-113176538D01*
X138807214Y-113165286D01*
X138831798Y-113152102D01*
X138839377Y-113146404D01*
X138885583Y-113108571D01*
X138790333Y-113066251D01*
X138734015Y-113045902D01*
X138641672Y-113018155D01*
X138518710Y-112984303D01*
X138370535Y-112945639D01*
X138202553Y-112903455D01*
X138020170Y-112859045D01*
X137828794Y-112813703D01*
X137633828Y-112768720D01*
X137440681Y-112725391D01*
X137254758Y-112685007D01*
X137081465Y-112648863D01*
X136926209Y-112618251D01*
X136884979Y-112610528D01*
X136719177Y-112581941D01*
X136559255Y-112559076D01*
X136398246Y-112541510D01*
X136229182Y-112528821D01*
X136045096Y-112520586D01*
X135839019Y-112516382D01*
X135603984Y-112515787D01*
X135360126Y-112518011D01*
X135166565Y-112520769D01*
X135001851Y-112524204D01*
X134859457Y-112529351D01*
X134732852Y-112537251D01*
X134615506Y-112548940D01*
X134500889Y-112565456D01*
X134382471Y-112587839D01*
X134253722Y-112617124D01*
X134108113Y-112654351D01*
X133939113Y-112700558D01*
X133740193Y-112756782D01*
X133592435Y-112798997D01*
X133386689Y-112858288D01*
X133218872Y-112907869D01*
X133086027Y-112949003D01*
X132985197Y-112982957D01*
X132913425Y-113010995D01*
X132867754Y-113034381D01*
X132845227Y-113054382D01*
X132842887Y-113072262D01*
X130864185Y-113072262D01*
X130866580Y-113068039D01*
X130912984Y-113035673D01*
X130924539Y-113029105D01*
X131010896Y-112994462D01*
X131130027Y-112966586D01*
X131272702Y-112946988D01*
X131429688Y-112937180D01*
X131491273Y-112936334D01*
X131600904Y-112933494D01*
X131718189Y-112924459D01*
X131846749Y-112908458D01*
X131990202Y-112884719D01*
X132152169Y-112852469D01*
X132336270Y-112810938D01*
X132546124Y-112759353D01*
X132785353Y-112696942D01*
X133057575Y-112622933D01*
X133366410Y-112536555D01*
X133367118Y-112536355D01*
X133655891Y-112455821D01*
X133909875Y-112387701D01*
X134134448Y-112331036D01*
X134334988Y-112284871D01*
X134516873Y-112248248D01*
X134685481Y-112220208D01*
X134846189Y-112199795D01*
X135004374Y-112186051D01*
X135165416Y-112178020D01*
X135334690Y-112174743D01*
X135399459Y-112174543D01*
X135614048Y-112176044D01*
X135614048Y-112176044D01*
G37*
X135614048Y-112176044D02*
X135814970Y-112180759D01*
X136007074Y-112189377D01*
X136195205Y-112202587D01*
X136384210Y-112221079D01*
X136578937Y-112245542D01*
X136784232Y-112276666D01*
X137004942Y-112315141D01*
X137245915Y-112361655D01*
X137511997Y-112416898D01*
X137808035Y-112481560D01*
X138138877Y-112556330D01*
X138229416Y-112577102D01*
X138456685Y-112629147D01*
X138648505Y-112672266D01*
X138810615Y-112707302D01*
X138948759Y-112735098D01*
X139068675Y-112756497D01*
X139176107Y-112772342D01*
X139276794Y-112783475D01*
X139376478Y-112790741D01*
X139480900Y-112794982D01*
X139595801Y-112797040D01*
X139726922Y-112797759D01*
X139732250Y-112797771D01*
X139913650Y-112796536D01*
X140071292Y-112790895D01*
X140213551Y-112779238D01*
X140348799Y-112759958D01*
X140485412Y-112731446D01*
X140631763Y-112692091D01*
X140796226Y-112640287D01*
X140987174Y-112574424D01*
X141093967Y-112536162D01*
X141212862Y-112494389D01*
X141300045Y-112467528D01*
X141363010Y-112454520D01*
X141409251Y-112454306D01*
X141446259Y-112465825D01*
X141473790Y-112482450D01*
X141515653Y-112531617D01*
X141520708Y-112595195D01*
X141488615Y-112673700D01*
X141419030Y-112767648D01*
X141311615Y-112877555D01*
X141166026Y-113003937D01*
X141086916Y-113067141D01*
X140782736Y-113295268D01*
X140447661Y-113529171D01*
X140091425Y-113762737D01*
X139723763Y-113989856D01*
X139354411Y-114204416D01*
X138993103Y-114400306D01*
X138832666Y-114482272D01*
X138422705Y-114676898D01*
X138013231Y-114850964D01*
X137609716Y-115002591D01*
X137217632Y-115129900D01*
X136842452Y-115231012D01*
X136489647Y-115304047D01*
X136395799Y-115319182D01*
X136316019Y-115328093D01*
X136202690Y-115336517D01*
X136063790Y-115344236D01*
X135907298Y-115351028D01*
X135741189Y-115356674D01*
X135573442Y-115360953D01*
X135412034Y-115363645D01*
X135264943Y-115364529D01*
X135140146Y-115363386D01*
X135045620Y-115359996D01*
X135012083Y-115357377D01*
X134720102Y-115319902D01*
X134454128Y-115269260D01*
X134198910Y-115201769D01*
X133939199Y-115113747D01*
X133831749Y-115072403D01*
X133696901Y-115016259D01*
X133563009Y-114954471D01*
X133424585Y-114883954D01*
X133276142Y-114801622D01*
X133112193Y-114704392D01*
X132927251Y-114589178D01*
X132715828Y-114452894D01*
X132631420Y-114397583D01*
X132463582Y-114287432D01*
X132314422Y-114190131D01*
X132176570Y-114101007D01*
X132042656Y-114015387D01*
X131905307Y-113928600D01*
X131757153Y-113835972D01*
X131590824Y-113732832D01*
X131398947Y-113614506D01*
X131303246Y-113555638D01*
X131200607Y-113491382D01*
X131100699Y-113426800D01*
X131014360Y-113369026D01*
X130952427Y-113325191D01*
X130948083Y-113321917D01*
X130947226Y-113321225D01*
X131667750Y-113321225D01*
X131668030Y-113347505D01*
X131699158Y-113388528D01*
X131754349Y-113439646D01*
X131826821Y-113496211D01*
X131909790Y-113553574D01*
X131996472Y-113607088D01*
X132080085Y-113652103D01*
X132153844Y-113683971D01*
X132210967Y-113698044D01*
X132218064Y-113698334D01*
X132265960Y-113680972D01*
X132322562Y-113633956D01*
X132335341Y-113620058D01*
X132382407Y-113554967D01*
X132435312Y-113464429D01*
X132486605Y-113363188D01*
X132518123Y-113290647D01*
X139475552Y-113290647D01*
X139494462Y-113347634D01*
X139544675Y-113432886D01*
X139604382Y-113504153D01*
X139665139Y-113553015D01*
X139718501Y-113571054D01*
X139718567Y-113571054D01*
X139762900Y-113560861D01*
X139830707Y-113534053D01*
X139909201Y-113495858D01*
X139929951Y-113484614D01*
X140021777Y-113427593D01*
X140115666Y-113359502D01*
X140191913Y-113294675D01*
X140194534Y-113292142D01*
X140303750Y-113185829D01*
X140250833Y-113164791D01*
X140204256Y-113156361D01*
X140126111Y-113152497D01*
X140026866Y-113152773D01*
X139916993Y-113156765D01*
X139806960Y-113164049D01*
X139707236Y-113174200D01*
X139628292Y-113186793D01*
X139611181Y-113190738D01*
X139529341Y-113217309D01*
X139485554Y-113248699D01*
X139475552Y-113290647D01*
X132518123Y-113290647D01*
X132528837Y-113265989D01*
X132554557Y-113187579D01*
X132555137Y-113185042D01*
X132560412Y-113146544D01*
X132545664Y-113130342D01*
X132500445Y-113126853D01*
X132491686Y-113126834D01*
X132424126Y-113131848D01*
X132331122Y-113145581D01*
X132221018Y-113166061D01*
X132102160Y-113191322D01*
X131982891Y-113219393D01*
X131871556Y-113248307D01*
X131776501Y-113276095D01*
X131706069Y-113300787D01*
X131668605Y-113320415D01*
X131667750Y-113321225D01*
X130947226Y-113321225D01*
X130889075Y-113274294D01*
X130857206Y-113237493D01*
X130844336Y-113198938D01*
X130842250Y-113158369D01*
X130846555Y-113103355D01*
X130864185Y-113072262D01*
X132842887Y-113072262D01*
X132857778Y-113089286D01*
X132880729Y-113103471D01*
X132926782Y-113119464D01*
X133007104Y-113138361D01*
X133113850Y-113158764D01*
X133239174Y-113179280D01*
X133375230Y-113198511D01*
X133498666Y-113213382D01*
X133616584Y-113223544D01*
X133772906Y-113232607D01*
X133963715Y-113240555D01*
X134185095Y-113247372D01*
X134433130Y-113253042D01*
X134703904Y-113257549D01*
X134993501Y-113260875D01*
X135298005Y-113263005D01*
X135613500Y-113263923D01*
X135936069Y-113263612D01*
X136261797Y-113262056D01*
X136586767Y-113259238D01*
X136907064Y-113255143D01*
X137218771Y-113249754D01*
X137517972Y-113243055D01*
X137800752Y-113235029D01*
X137901333Y-113231689D01*
X138120778Y-113223799D01*
X138301894Y-113216518D01*
X138448672Y-113209483D01*
X138565103Y-113202330D01*
X138655181Y-113194697D01*
X138722898Y-113186221D01*
X138772245Y-113176538D01*
X138807214Y-113165286D01*
X138831798Y-113152102D01*
X138839377Y-113146404D01*
X138885583Y-113108571D01*
X138790333Y-113066251D01*
X138734015Y-113045902D01*
X138641672Y-113018155D01*
X138518710Y-112984303D01*
X138370535Y-112945639D01*
X138202553Y-112903455D01*
X138020170Y-112859045D01*
X137828794Y-112813703D01*
X137633828Y-112768720D01*
X137440681Y-112725391D01*
X137254758Y-112685007D01*
X137081465Y-112648863D01*
X136926209Y-112618251D01*
X136884979Y-112610528D01*
X136719177Y-112581941D01*
X136559255Y-112559076D01*
X136398246Y-112541510D01*
X136229182Y-112528821D01*
X136045096Y-112520586D01*
X135839019Y-112516382D01*
X135603984Y-112515787D01*
X135360126Y-112518011D01*
X135166565Y-112520769D01*
X135001851Y-112524204D01*
X134859457Y-112529351D01*
X134732852Y-112537251D01*
X134615506Y-112548940D01*
X134500889Y-112565456D01*
X134382471Y-112587839D01*
X134253722Y-112617124D01*
X134108113Y-112654351D01*
X133939113Y-112700558D01*
X133740193Y-112756782D01*
X133592435Y-112798997D01*
X133386689Y-112858288D01*
X133218872Y-112907869D01*
X133086027Y-112949003D01*
X132985197Y-112982957D01*
X132913425Y-113010995D01*
X132867754Y-113034381D01*
X132845227Y-113054382D01*
X132842887Y-113072262D01*
X130864185Y-113072262D01*
X130866580Y-113068039D01*
X130912984Y-113035673D01*
X130924539Y-113029105D01*
X131010896Y-112994462D01*
X131130027Y-112966586D01*
X131272702Y-112946988D01*
X131429688Y-112937180D01*
X131491273Y-112936334D01*
X131600904Y-112933494D01*
X131718189Y-112924459D01*
X131846749Y-112908458D01*
X131990202Y-112884719D01*
X132152169Y-112852469D01*
X132336270Y-112810938D01*
X132546124Y-112759353D01*
X132785353Y-112696942D01*
X133057575Y-112622933D01*
X133366410Y-112536555D01*
X133367118Y-112536355D01*
X133655891Y-112455821D01*
X133909875Y-112387701D01*
X134134448Y-112331036D01*
X134334988Y-112284871D01*
X134516873Y-112248248D01*
X134685481Y-112220208D01*
X134846189Y-112199795D01*
X135004374Y-112186051D01*
X135165416Y-112178020D01*
X135334690Y-112174743D01*
X135399459Y-112174543D01*
X135614048Y-112176044D01*
G36*
X128363100Y-113113854D02*
G01*
X128401439Y-113145881D01*
X128407008Y-113153972D01*
X128422961Y-113183265D01*
X128429398Y-113215505D01*
X128426255Y-113261961D01*
X128413466Y-113333901D01*
X128405753Y-113371763D01*
X128382562Y-113520756D01*
X128376224Y-113669991D01*
X128387556Y-113827550D01*
X128417376Y-114001512D01*
X128466502Y-114199960D01*
X128501932Y-114322090D01*
X128538045Y-114446199D01*
X128569627Y-114563341D01*
X128594469Y-114664629D01*
X128610359Y-114741174D01*
X128615082Y-114777173D01*
X128615842Y-114836438D01*
X128606499Y-114865713D01*
X128581048Y-114877141D01*
X128564497Y-114879496D01*
X128499353Y-114866751D01*
X128441667Y-114829046D01*
X128382716Y-114761407D01*
X128321802Y-114659600D01*
X128261946Y-114531495D01*
X128206168Y-114384964D01*
X128157490Y-114227876D01*
X128118932Y-114068103D01*
X128095039Y-113925875D01*
X128083297Y-113743876D01*
X128092739Y-113563754D01*
X128121939Y-113397176D01*
X128169470Y-113255808D01*
X128179579Y-113234504D01*
X128215822Y-113167634D01*
X128245949Y-113130604D01*
X128279566Y-113113948D01*
X128306238Y-113109715D01*
X128363100Y-113113854D01*
X128363100Y-113113854D01*
G37*
X128363100Y-113113854D02*
X128401439Y-113145881D01*
X128407008Y-113153972D01*
X128422961Y-113183265D01*
X128429398Y-113215505D01*
X128426255Y-113261961D01*
X128413466Y-113333901D01*
X128405753Y-113371763D01*
X128382562Y-113520756D01*
X128376224Y-113669991D01*
X128387556Y-113827550D01*
X128417376Y-114001512D01*
X128466502Y-114199960D01*
X128501932Y-114322090D01*
X128538045Y-114446199D01*
X128569627Y-114563341D01*
X128594469Y-114664629D01*
X128610359Y-114741174D01*
X128615082Y-114777173D01*
X128615842Y-114836438D01*
X128606499Y-114865713D01*
X128581048Y-114877141D01*
X128564497Y-114879496D01*
X128499353Y-114866751D01*
X128441667Y-114829046D01*
X128382716Y-114761407D01*
X128321802Y-114659600D01*
X128261946Y-114531495D01*
X128206168Y-114384964D01*
X128157490Y-114227876D01*
X128118932Y-114068103D01*
X128095039Y-113925875D01*
X128083297Y-113743876D01*
X128092739Y-113563754D01*
X128121939Y-113397176D01*
X128169470Y-113255808D01*
X128179579Y-113234504D01*
X128215822Y-113167634D01*
X128245949Y-113130604D01*
X128279566Y-113113948D01*
X128306238Y-113109715D01*
X128363100Y-113113854D01*
G36*
X142181023Y-111607565D02*
G01*
X142228988Y-111624977D01*
X142288247Y-111659893D01*
X142368362Y-111717139D01*
X142382797Y-111727971D01*
X142494643Y-111819531D01*
X142619469Y-111933782D01*
X142748606Y-112061711D01*
X142873386Y-112194308D01*
X142985140Y-112322561D01*
X143075199Y-112437457D01*
X143101570Y-112475201D01*
X143184329Y-112605979D01*
X143242352Y-112718150D01*
X143279666Y-112824170D01*
X143300298Y-112936495D01*
X143308275Y-113067580D01*
X143308814Y-113116250D01*
X143308264Y-113221597D01*
X143304567Y-113296611D01*
X143295621Y-113353279D01*
X143279322Y-113403589D01*
X143253568Y-113459529D01*
X143245916Y-113474789D01*
X143189223Y-113570281D01*
X143117835Y-113666270D01*
X143040314Y-113753132D01*
X142965223Y-113821247D01*
X142902896Y-113860266D01*
X142846038Y-113881935D01*
X142810952Y-113886522D01*
X142781208Y-113875179D01*
X142771845Y-113869461D01*
X142751465Y-113832976D01*
X142756164Y-113770357D01*
X142784200Y-113688223D01*
X142833831Y-113593192D01*
X142852331Y-113563680D01*
X142923438Y-113446731D01*
X142969885Y-113348754D01*
X142995966Y-113257839D01*
X143005975Y-113162075D01*
X143006468Y-113136188D01*
X142993846Y-112986159D01*
X142953047Y-112835941D01*
X142882285Y-112682751D01*
X142779771Y-112523807D01*
X142643717Y-112356328D01*
X142472336Y-112177531D01*
X142269996Y-111990072D01*
X142164097Y-111888336D01*
X142088736Y-111798523D01*
X142044710Y-111722918D01*
X142032819Y-111663803D01*
X142053858Y-111623464D01*
X142108626Y-111604185D01*
X142134790Y-111602834D01*
X142181023Y-111607565D01*
X142181023Y-111607565D01*
G37*
X142181023Y-111607565D02*
X142228988Y-111624977D01*
X142288247Y-111659893D01*
X142368362Y-111717139D01*
X142382797Y-111727971D01*
X142494643Y-111819531D01*
X142619469Y-111933782D01*
X142748606Y-112061711D01*
X142873386Y-112194308D01*
X142985140Y-112322561D01*
X143075199Y-112437457D01*
X143101570Y-112475201D01*
X143184329Y-112605979D01*
X143242352Y-112718150D01*
X143279666Y-112824170D01*
X143300298Y-112936495D01*
X143308275Y-113067580D01*
X143308814Y-113116250D01*
X143308264Y-113221597D01*
X143304567Y-113296611D01*
X143295621Y-113353279D01*
X143279322Y-113403589D01*
X143253568Y-113459529D01*
X143245916Y-113474789D01*
X143189223Y-113570281D01*
X143117835Y-113666270D01*
X143040314Y-113753132D01*
X142965223Y-113821247D01*
X142902896Y-113860266D01*
X142846038Y-113881935D01*
X142810952Y-113886522D01*
X142781208Y-113875179D01*
X142771845Y-113869461D01*
X142751465Y-113832976D01*
X142756164Y-113770357D01*
X142784200Y-113688223D01*
X142833831Y-113593192D01*
X142852331Y-113563680D01*
X142923438Y-113446731D01*
X142969885Y-113348754D01*
X142995966Y-113257839D01*
X143005975Y-113162075D01*
X143006468Y-113136188D01*
X142993846Y-112986159D01*
X142953047Y-112835941D01*
X142882285Y-112682751D01*
X142779771Y-112523807D01*
X142643717Y-112356328D01*
X142472336Y-112177531D01*
X142269996Y-111990072D01*
X142164097Y-111888336D01*
X142088736Y-111798523D01*
X142044710Y-111722918D01*
X142032819Y-111663803D01*
X142053858Y-111623464D01*
X142108626Y-111604185D01*
X142134790Y-111602834D01*
X142181023Y-111607565D01*
G36*
X111321047Y-110023482D02*
G01*
X111381380Y-110040943D01*
X111436797Y-110072850D01*
X111493858Y-110125060D01*
X111559125Y-110203429D01*
X111627141Y-110296666D01*
X111754771Y-110469777D01*
X111899743Y-110652464D01*
X112055839Y-110837827D01*
X112216842Y-111018968D01*
X112376532Y-111188987D01*
X112528692Y-111340986D01*
X112667104Y-111468066D01*
X112731625Y-111522046D01*
X112822608Y-111591719D01*
X112910488Y-111650618D01*
X113003662Y-111702946D01*
X113110525Y-111752907D01*
X113239473Y-111804704D01*
X113398903Y-111862540D01*
X113441029Y-111877230D01*
X113673444Y-111959371D01*
X113868931Y-112032433D01*
X114031340Y-112098708D01*
X114164522Y-112160488D01*
X114272325Y-112220068D01*
X114358599Y-112279739D01*
X114427195Y-112341795D01*
X114481961Y-112408528D01*
X114526748Y-112482231D01*
X114554839Y-112540588D01*
X114599311Y-112687178D01*
X114611868Y-112844595D01*
X114593864Y-113002201D01*
X114546655Y-113149358D01*
X114471594Y-113275429D01*
X114459396Y-113290259D01*
X114342625Y-113398116D01*
X114189447Y-113493599D01*
X114004531Y-113574589D01*
X113792541Y-113638966D01*
X113608256Y-113676808D01*
X113381649Y-113707815D01*
X113123252Y-113731840D01*
X112843085Y-113748548D01*
X112551168Y-113757604D01*
X112257519Y-113758672D01*
X111972157Y-113751419D01*
X111749916Y-113738922D01*
X111637208Y-113729048D01*
X111499637Y-113714420D01*
X111354143Y-113696966D01*
X111217666Y-113678611D01*
X111210166Y-113677528D01*
X110921571Y-113631060D01*
X110674876Y-113581483D01*
X110470130Y-113528816D01*
X110307382Y-113473077D01*
X110186681Y-113414286D01*
X110108076Y-113352461D01*
X110071616Y-113287620D01*
X110071137Y-113240741D01*
X110096782Y-113210594D01*
X110155420Y-113205068D01*
X110245677Y-113224060D01*
X110350701Y-113261190D01*
X110415085Y-113281536D01*
X110515344Y-113306278D01*
X110645374Y-113334312D01*
X110799077Y-113364534D01*
X110970350Y-113395839D01*
X111153094Y-113427125D01*
X111341206Y-113457285D01*
X111528587Y-113485218D01*
X111709134Y-113509818D01*
X111760500Y-113516314D01*
X112177461Y-113560585D01*
X112557236Y-113585307D01*
X112900226Y-113590405D01*
X113206835Y-113575802D01*
X113477465Y-113541422D01*
X113712519Y-113487190D01*
X113912398Y-113413029D01*
X114077506Y-113318863D01*
X114208245Y-113204616D01*
X114305017Y-113070212D01*
X114324840Y-113031584D01*
X114371254Y-112903187D01*
X114379626Y-112787926D01*
X114348919Y-112679385D01*
X114278097Y-112571144D01*
X114244309Y-112532857D01*
X114158681Y-112456973D01*
X114045957Y-112384879D01*
X113902472Y-112314808D01*
X113724555Y-112244995D01*
X113508540Y-112173672D01*
X113480998Y-112165266D01*
X113251986Y-112092133D01*
X113055754Y-112020036D01*
X112883162Y-111944110D01*
X112725072Y-111859490D01*
X112572343Y-111761310D01*
X112415837Y-111644704D01*
X112256389Y-111513332D01*
X112142639Y-111412517D01*
X112033978Y-111307563D01*
X111925182Y-111192623D01*
X111811023Y-111061852D01*
X111686275Y-110909404D01*
X111545711Y-110729432D01*
X111488250Y-110654174D01*
X111393284Y-110528909D01*
X111320936Y-110432215D01*
X111268127Y-110359022D01*
X111231777Y-110304261D01*
X111208804Y-110262863D01*
X111196128Y-110229759D01*
X111190669Y-110199880D01*
X111189347Y-110168156D01*
X111189312Y-110162254D01*
X111199743Y-110080375D01*
X111232929Y-110033481D01*
X111290464Y-110019894D01*
X111321047Y-110023482D01*
X111321047Y-110023482D01*
G37*
X111321047Y-110023482D02*
X111381380Y-110040943D01*
X111436797Y-110072850D01*
X111493858Y-110125060D01*
X111559125Y-110203429D01*
X111627141Y-110296666D01*
X111754771Y-110469777D01*
X111899743Y-110652464D01*
X112055839Y-110837827D01*
X112216842Y-111018968D01*
X112376532Y-111188987D01*
X112528692Y-111340986D01*
X112667104Y-111468066D01*
X112731625Y-111522046D01*
X112822608Y-111591719D01*
X112910488Y-111650618D01*
X113003662Y-111702946D01*
X113110525Y-111752907D01*
X113239473Y-111804704D01*
X113398903Y-111862540D01*
X113441029Y-111877230D01*
X113673444Y-111959371D01*
X113868931Y-112032433D01*
X114031340Y-112098708D01*
X114164522Y-112160488D01*
X114272325Y-112220068D01*
X114358599Y-112279739D01*
X114427195Y-112341795D01*
X114481961Y-112408528D01*
X114526748Y-112482231D01*
X114554839Y-112540588D01*
X114599311Y-112687178D01*
X114611868Y-112844595D01*
X114593864Y-113002201D01*
X114546655Y-113149358D01*
X114471594Y-113275429D01*
X114459396Y-113290259D01*
X114342625Y-113398116D01*
X114189447Y-113493599D01*
X114004531Y-113574589D01*
X113792541Y-113638966D01*
X113608256Y-113676808D01*
X113381649Y-113707815D01*
X113123252Y-113731840D01*
X112843085Y-113748548D01*
X112551168Y-113757604D01*
X112257519Y-113758672D01*
X111972157Y-113751419D01*
X111749916Y-113738922D01*
X111637208Y-113729048D01*
X111499637Y-113714420D01*
X111354143Y-113696966D01*
X111217666Y-113678611D01*
X111210166Y-113677528D01*
X110921571Y-113631060D01*
X110674876Y-113581483D01*
X110470130Y-113528816D01*
X110307382Y-113473077D01*
X110186681Y-113414286D01*
X110108076Y-113352461D01*
X110071616Y-113287620D01*
X110071137Y-113240741D01*
X110096782Y-113210594D01*
X110155420Y-113205068D01*
X110245677Y-113224060D01*
X110350701Y-113261190D01*
X110415085Y-113281536D01*
X110515344Y-113306278D01*
X110645374Y-113334312D01*
X110799077Y-113364534D01*
X110970350Y-113395839D01*
X111153094Y-113427125D01*
X111341206Y-113457285D01*
X111528587Y-113485218D01*
X111709134Y-113509818D01*
X111760500Y-113516314D01*
X112177461Y-113560585D01*
X112557236Y-113585307D01*
X112900226Y-113590405D01*
X113206835Y-113575802D01*
X113477465Y-113541422D01*
X113712519Y-113487190D01*
X113912398Y-113413029D01*
X114077506Y-113318863D01*
X114208245Y-113204616D01*
X114305017Y-113070212D01*
X114324840Y-113031584D01*
X114371254Y-112903187D01*
X114379626Y-112787926D01*
X114348919Y-112679385D01*
X114278097Y-112571144D01*
X114244309Y-112532857D01*
X114158681Y-112456973D01*
X114045957Y-112384879D01*
X113902472Y-112314808D01*
X113724555Y-112244995D01*
X113508540Y-112173672D01*
X113480998Y-112165266D01*
X113251986Y-112092133D01*
X113055754Y-112020036D01*
X112883162Y-111944110D01*
X112725072Y-111859490D01*
X112572343Y-111761310D01*
X112415837Y-111644704D01*
X112256389Y-111513332D01*
X112142639Y-111412517D01*
X112033978Y-111307563D01*
X111925182Y-111192623D01*
X111811023Y-111061852D01*
X111686275Y-110909404D01*
X111545711Y-110729432D01*
X111488250Y-110654174D01*
X111393284Y-110528909D01*
X111320936Y-110432215D01*
X111268127Y-110359022D01*
X111231777Y-110304261D01*
X111208804Y-110262863D01*
X111196128Y-110229759D01*
X111190669Y-110199880D01*
X111189347Y-110168156D01*
X111189312Y-110162254D01*
X111199743Y-110080375D01*
X111232929Y-110033481D01*
X111290464Y-110019894D01*
X111321047Y-110023482D01*
G36*
X178141636Y-108546528D02*
G01*
X178420947Y-108558683D01*
X178672666Y-108582606D01*
X178892902Y-108618680D01*
X179077765Y-108667286D01*
X179119859Y-108682138D01*
X179200928Y-108718787D01*
X179277453Y-108763462D01*
X179315651Y-108792029D01*
X179363658Y-108841966D01*
X179384434Y-108891083D01*
X179388000Y-108939418D01*
X179383985Y-108998455D01*
X179369924Y-109049078D01*
X179342794Y-109092026D01*
X179299569Y-109128043D01*
X179237225Y-109157868D01*
X179152737Y-109182243D01*
X179043082Y-109201909D01*
X178905234Y-109217607D01*
X178736170Y-109230079D01*
X178532865Y-109240066D01*
X178292294Y-109248309D01*
X178107416Y-109253258D01*
X177542016Y-109273591D01*
X177014348Y-109306165D01*
X176521418Y-109351673D01*
X176060231Y-109410809D01*
X175627791Y-109484268D01*
X175221103Y-109572745D01*
X174837172Y-109676932D01*
X174473002Y-109797525D01*
X174125598Y-109935217D01*
X173791965Y-110090704D01*
X173469107Y-110264678D01*
X173294788Y-110368653D01*
X173031098Y-110539772D01*
X172763331Y-110729256D01*
X172500223Y-110930190D01*
X172250513Y-111135661D01*
X172022935Y-111338758D01*
X171833910Y-111524543D01*
X171747609Y-111606226D01*
X171660175Y-111674732D01*
X171580114Y-111724305D01*
X171515930Y-111749187D01*
X171499325Y-111751000D01*
X171468288Y-111736349D01*
X171450358Y-111719079D01*
X171432339Y-111666980D01*
X171436648Y-111586589D01*
X171462038Y-111484775D01*
X171507259Y-111368410D01*
X171518460Y-111344232D01*
X171600474Y-111196832D01*
X171713616Y-111030982D01*
X171853503Y-110851277D01*
X172015751Y-110662314D01*
X172195977Y-110468687D01*
X172389799Y-110274993D01*
X172592833Y-110085827D01*
X172800696Y-109905785D01*
X173009006Y-109739463D01*
X173143833Y-109639989D01*
X173385594Y-109485295D01*
X173656071Y-109343219D01*
X173942063Y-109220438D01*
X174054000Y-109179556D01*
X174360930Y-109080288D01*
X174686959Y-108988203D01*
X175028194Y-108903684D01*
X175380745Y-108827114D01*
X175740721Y-108758874D01*
X176104232Y-108699346D01*
X176467386Y-108648912D01*
X176826293Y-108607955D01*
X177177063Y-108576855D01*
X177515803Y-108555997D01*
X177838625Y-108545760D01*
X178141636Y-108546528D01*
X178141636Y-108546528D01*
G37*
X178141636Y-108546528D02*
X178420947Y-108558683D01*
X178672666Y-108582606D01*
X178892902Y-108618680D01*
X179077765Y-108667286D01*
X179119859Y-108682138D01*
X179200928Y-108718787D01*
X179277453Y-108763462D01*
X179315651Y-108792029D01*
X179363658Y-108841966D01*
X179384434Y-108891083D01*
X179388000Y-108939418D01*
X179383985Y-108998455D01*
X179369924Y-109049078D01*
X179342794Y-109092026D01*
X179299569Y-109128043D01*
X179237225Y-109157868D01*
X179152737Y-109182243D01*
X179043082Y-109201909D01*
X178905234Y-109217607D01*
X178736170Y-109230079D01*
X178532865Y-109240066D01*
X178292294Y-109248309D01*
X178107416Y-109253258D01*
X177542016Y-109273591D01*
X177014348Y-109306165D01*
X176521418Y-109351673D01*
X176060231Y-109410809D01*
X175627791Y-109484268D01*
X175221103Y-109572745D01*
X174837172Y-109676932D01*
X174473002Y-109797525D01*
X174125598Y-109935217D01*
X173791965Y-110090704D01*
X173469107Y-110264678D01*
X173294788Y-110368653D01*
X173031098Y-110539772D01*
X172763331Y-110729256D01*
X172500223Y-110930190D01*
X172250513Y-111135661D01*
X172022935Y-111338758D01*
X171833910Y-111524543D01*
X171747609Y-111606226D01*
X171660175Y-111674732D01*
X171580114Y-111724305D01*
X171515930Y-111749187D01*
X171499325Y-111751000D01*
X171468288Y-111736349D01*
X171450358Y-111719079D01*
X171432339Y-111666980D01*
X171436648Y-111586589D01*
X171462038Y-111484775D01*
X171507259Y-111368410D01*
X171518460Y-111344232D01*
X171600474Y-111196832D01*
X171713616Y-111030982D01*
X171853503Y-110851277D01*
X172015751Y-110662314D01*
X172195977Y-110468687D01*
X172389799Y-110274993D01*
X172592833Y-110085827D01*
X172800696Y-109905785D01*
X173009006Y-109739463D01*
X173143833Y-109639989D01*
X173385594Y-109485295D01*
X173656071Y-109343219D01*
X173942063Y-109220438D01*
X174054000Y-109179556D01*
X174360930Y-109080288D01*
X174686959Y-108988203D01*
X175028194Y-108903684D01*
X175380745Y-108827114D01*
X175740721Y-108758874D01*
X176104232Y-108699346D01*
X176467386Y-108648912D01*
X176826293Y-108607955D01*
X177177063Y-108576855D01*
X177515803Y-108555997D01*
X177838625Y-108545760D01*
X178141636Y-108546528D01*
G36*
X137180215Y-109263218D02*
G01*
X137360436Y-109270782D01*
X137524067Y-109285259D01*
X137659503Y-109306575D01*
X137679083Y-109310920D01*
X137852411Y-109356739D01*
X138026257Y-109414049D01*
X138209729Y-109486362D01*
X138411938Y-109577192D01*
X138575787Y-109656797D01*
X138817254Y-109781777D01*
X139052172Y-109912352D01*
X139275155Y-110045067D01*
X139480821Y-110176471D01*
X139663787Y-110303110D01*
X139818668Y-110421532D01*
X139940083Y-110528285D01*
X139950432Y-110538439D01*
X140008291Y-110597863D01*
X140041291Y-110640278D01*
X140055611Y-110677461D01*
X140057432Y-110721190D01*
X140056266Y-110740136D01*
X140049477Y-110797131D01*
X140033647Y-110824497D01*
X139999084Y-110834932D01*
X139982516Y-110836767D01*
X139948382Y-110837050D01*
X139910049Y-110829843D01*
X139863088Y-110812803D01*
X139803067Y-110783588D01*
X139725556Y-110739855D01*
X139626127Y-110679261D01*
X139500347Y-110599464D01*
X139351250Y-110502978D01*
X139076146Y-110327983D01*
X138826454Y-110178119D01*
X138596075Y-110050243D01*
X138378914Y-109941212D01*
X138168872Y-109847886D01*
X137959854Y-109767120D01*
X137849637Y-109729074D01*
X137576855Y-109649363D01*
X137320817Y-109598639D01*
X137076396Y-109577722D01*
X136838467Y-109587437D01*
X136601906Y-109628605D01*
X136361587Y-109702047D01*
X136112384Y-109808588D01*
X135849173Y-109949048D01*
X135625916Y-110085850D01*
X135461056Y-110188795D01*
X135315866Y-110270632D01*
X135183997Y-110331840D01*
X135059104Y-110372894D01*
X134934838Y-110394271D01*
X134804854Y-110396448D01*
X134662802Y-110379901D01*
X134502338Y-110345108D01*
X134317112Y-110292544D01*
X134100779Y-110222688D01*
X134046651Y-110204460D01*
X133818434Y-110130664D01*
X133619510Y-110074474D01*
X133441493Y-110034202D01*
X133275998Y-110008158D01*
X133114638Y-109994652D01*
X132990666Y-109991734D01*
X132706256Y-110010429D01*
X132432382Y-110067521D01*
X132166367Y-110163988D01*
X131905533Y-110300807D01*
X131647201Y-110478955D01*
X131640060Y-110484483D01*
X131477878Y-110607980D01*
X131343925Y-110704114D01*
X131235325Y-110774243D01*
X131149205Y-110819722D01*
X131082690Y-110841908D01*
X131032907Y-110842158D01*
X130996980Y-110821826D01*
X130978778Y-110796529D01*
X130966373Y-110729985D01*
X130989770Y-110649068D01*
X131046049Y-110556514D01*
X131132289Y-110455056D01*
X131245570Y-110347431D01*
X131382971Y-110236372D01*
X131541571Y-110124615D01*
X131718450Y-110014895D01*
X131910688Y-109909946D01*
X131942916Y-109893660D01*
X132191796Y-109779813D01*
X132422806Y-109697219D01*
X132644060Y-109643709D01*
X132863669Y-109617114D01*
X132992254Y-109613167D01*
X133114878Y-109617396D01*
X133243153Y-109630951D01*
X133382988Y-109655131D01*
X133540290Y-109691237D01*
X133720967Y-109740569D01*
X133930928Y-109804428D01*
X134081278Y-109852826D01*
X134225839Y-109899392D01*
X134364950Y-109942832D01*
X134490979Y-109980866D01*
X134596292Y-110011217D01*
X134673258Y-110031605D01*
X134700491Y-110037698D01*
X134815627Y-110053552D01*
X134921898Y-110052324D01*
X135026471Y-110031630D01*
X135136515Y-109989086D01*
X135259196Y-109922306D01*
X135401681Y-109828906D01*
X135467085Y-109782653D01*
X135716209Y-109618552D01*
X135961640Y-109488878D01*
X136214732Y-109388494D01*
X136486841Y-109312258D01*
X136525500Y-109303569D01*
X136656046Y-109282742D01*
X136816416Y-109269124D01*
X136995007Y-109262641D01*
X137180215Y-109263218D01*
X137180215Y-109263218D01*
G37*
X137180215Y-109263218D02*
X137360436Y-109270782D01*
X137524067Y-109285259D01*
X137659503Y-109306575D01*
X137679083Y-109310920D01*
X137852411Y-109356739D01*
X138026257Y-109414049D01*
X138209729Y-109486362D01*
X138411938Y-109577192D01*
X138575787Y-109656797D01*
X138817254Y-109781777D01*
X139052172Y-109912352D01*
X139275155Y-110045067D01*
X139480821Y-110176471D01*
X139663787Y-110303110D01*
X139818668Y-110421532D01*
X139940083Y-110528285D01*
X139950432Y-110538439D01*
X140008291Y-110597863D01*
X140041291Y-110640278D01*
X140055611Y-110677461D01*
X140057432Y-110721190D01*
X140056266Y-110740136D01*
X140049477Y-110797131D01*
X140033647Y-110824497D01*
X139999084Y-110834932D01*
X139982516Y-110836767D01*
X139948382Y-110837050D01*
X139910049Y-110829843D01*
X139863088Y-110812803D01*
X139803067Y-110783588D01*
X139725556Y-110739855D01*
X139626127Y-110679261D01*
X139500347Y-110599464D01*
X139351250Y-110502978D01*
X139076146Y-110327983D01*
X138826454Y-110178119D01*
X138596075Y-110050243D01*
X138378914Y-109941212D01*
X138168872Y-109847886D01*
X137959854Y-109767120D01*
X137849637Y-109729074D01*
X137576855Y-109649363D01*
X137320817Y-109598639D01*
X137076396Y-109577722D01*
X136838467Y-109587437D01*
X136601906Y-109628605D01*
X136361587Y-109702047D01*
X136112384Y-109808588D01*
X135849173Y-109949048D01*
X135625916Y-110085850D01*
X135461056Y-110188795D01*
X135315866Y-110270632D01*
X135183997Y-110331840D01*
X135059104Y-110372894D01*
X134934838Y-110394271D01*
X134804854Y-110396448D01*
X134662802Y-110379901D01*
X134502338Y-110345108D01*
X134317112Y-110292544D01*
X134100779Y-110222688D01*
X134046651Y-110204460D01*
X133818434Y-110130664D01*
X133619510Y-110074474D01*
X133441493Y-110034202D01*
X133275998Y-110008158D01*
X133114638Y-109994652D01*
X132990666Y-109991734D01*
X132706256Y-110010429D01*
X132432382Y-110067521D01*
X132166367Y-110163988D01*
X131905533Y-110300807D01*
X131647201Y-110478955D01*
X131640060Y-110484483D01*
X131477878Y-110607980D01*
X131343925Y-110704114D01*
X131235325Y-110774243D01*
X131149205Y-110819722D01*
X131082690Y-110841908D01*
X131032907Y-110842158D01*
X130996980Y-110821826D01*
X130978778Y-110796529D01*
X130966373Y-110729985D01*
X130989770Y-110649068D01*
X131046049Y-110556514D01*
X131132289Y-110455056D01*
X131245570Y-110347431D01*
X131382971Y-110236372D01*
X131541571Y-110124615D01*
X131718450Y-110014895D01*
X131910688Y-109909946D01*
X131942916Y-109893660D01*
X132191796Y-109779813D01*
X132422806Y-109697219D01*
X132644060Y-109643709D01*
X132863669Y-109617114D01*
X132992254Y-109613167D01*
X133114878Y-109617396D01*
X133243153Y-109630951D01*
X133382988Y-109655131D01*
X133540290Y-109691237D01*
X133720967Y-109740569D01*
X133930928Y-109804428D01*
X134081278Y-109852826D01*
X134225839Y-109899392D01*
X134364950Y-109942832D01*
X134490979Y-109980866D01*
X134596292Y-110011217D01*
X134673258Y-110031605D01*
X134700491Y-110037698D01*
X134815627Y-110053552D01*
X134921898Y-110052324D01*
X135026471Y-110031630D01*
X135136515Y-109989086D01*
X135259196Y-109922306D01*
X135401681Y-109828906D01*
X135467085Y-109782653D01*
X135716209Y-109618552D01*
X135961640Y-109488878D01*
X136214732Y-109388494D01*
X136486841Y-109312258D01*
X136525500Y-109303569D01*
X136656046Y-109282742D01*
X136816416Y-109269124D01*
X136995007Y-109262641D01*
X137180215Y-109263218D01*
G36*
X134299040Y-104135604D02*
G01*
X134575650Y-104136714D01*
X134851433Y-104138742D01*
X135120940Y-104141650D01*
X135378722Y-104145402D01*
X135619330Y-104149962D01*
X135837314Y-104155293D01*
X136027225Y-104161359D01*
X136183614Y-104168122D01*
X136260916Y-104172621D01*
X136540413Y-104193724D01*
X136824578Y-104219900D01*
X137109357Y-104250480D01*
X137390698Y-104284798D01*
X137664550Y-104322186D01*
X137926859Y-104361977D01*
X138173574Y-104403505D01*
X138400643Y-104446101D01*
X138604013Y-104489099D01*
X138779631Y-104531831D01*
X138923446Y-104573631D01*
X139031406Y-104613831D01*
X139075866Y-104636076D01*
X139129980Y-104678490D01*
X139169723Y-104727340D01*
X139186261Y-104764678D01*
X139187358Y-104801977D01*
X139172143Y-104855279D01*
X139161159Y-104885030D01*
X139141821Y-104926354D01*
X139111640Y-104973135D01*
X139066742Y-105029902D01*
X139003253Y-105101184D01*
X138917300Y-105191511D01*
X138805010Y-105305412D01*
X138781552Y-105328917D01*
X138554101Y-105548568D01*
X138294466Y-105785309D01*
X138007387Y-106035526D01*
X137697604Y-106295604D01*
X137369859Y-106561929D01*
X137028891Y-106830886D01*
X136679440Y-107098861D01*
X136326247Y-107362239D01*
X135974053Y-107617406D01*
X135627597Y-107860747D01*
X135291620Y-108088647D01*
X134970863Y-108297493D01*
X134670065Y-108483669D01*
X134554249Y-108552236D01*
X134465682Y-108602468D01*
X134388567Y-108643553D01*
X134331161Y-108671267D01*
X134301725Y-108681387D01*
X134301667Y-108681387D01*
X134273207Y-108671842D01*
X134214551Y-108645796D01*
X134132866Y-108606642D01*
X134035324Y-108557776D01*
X133974916Y-108526638D01*
X133709772Y-108381663D01*
X133455077Y-108227460D01*
X133204941Y-108059705D01*
X132953478Y-107874071D01*
X132694800Y-107666235D01*
X132423020Y-107431872D01*
X132164909Y-107197069D01*
X131970437Y-107011752D01*
X131772348Y-106814269D01*
X131573410Y-106607948D01*
X131376393Y-106396118D01*
X131184066Y-106182110D01*
X130999199Y-105969252D01*
X130824561Y-105760874D01*
X130662921Y-105560305D01*
X130517050Y-105370875D01*
X130389716Y-105195912D01*
X130283688Y-105038747D01*
X130201737Y-104902709D01*
X130146632Y-104791126D01*
X130132695Y-104753989D01*
X130125528Y-104677333D01*
X130156584Y-104605890D01*
X130226197Y-104539588D01*
X130334702Y-104478355D01*
X130482433Y-104422119D01*
X130669725Y-104370806D01*
X130896913Y-104324346D01*
X131164330Y-104282665D01*
X131472312Y-104245691D01*
X131821193Y-104213353D01*
X132211308Y-104185577D01*
X132642990Y-104162292D01*
X132927166Y-104150251D01*
X133094306Y-104145090D01*
X133293313Y-104141066D01*
X133518739Y-104138142D01*
X133765135Y-104136281D01*
X134027052Y-104135447D01*
X134299040Y-104135604D01*
X134299040Y-104135604D01*
G37*
X134299040Y-104135604D02*
X134575650Y-104136714D01*
X134851433Y-104138742D01*
X135120940Y-104141650D01*
X135378722Y-104145402D01*
X135619330Y-104149962D01*
X135837314Y-104155293D01*
X136027225Y-104161359D01*
X136183614Y-104168122D01*
X136260916Y-104172621D01*
X136540413Y-104193724D01*
X136824578Y-104219900D01*
X137109357Y-104250480D01*
X137390698Y-104284798D01*
X137664550Y-104322186D01*
X137926859Y-104361977D01*
X138173574Y-104403505D01*
X138400643Y-104446101D01*
X138604013Y-104489099D01*
X138779631Y-104531831D01*
X138923446Y-104573631D01*
X139031406Y-104613831D01*
X139075866Y-104636076D01*
X139129980Y-104678490D01*
X139169723Y-104727340D01*
X139186261Y-104764678D01*
X139187358Y-104801977D01*
X139172143Y-104855279D01*
X139161159Y-104885030D01*
X139141821Y-104926354D01*
X139111640Y-104973135D01*
X139066742Y-105029902D01*
X139003253Y-105101184D01*
X138917300Y-105191511D01*
X138805010Y-105305412D01*
X138781552Y-105328917D01*
X138554101Y-105548568D01*
X138294466Y-105785309D01*
X138007387Y-106035526D01*
X137697604Y-106295604D01*
X137369859Y-106561929D01*
X137028891Y-106830886D01*
X136679440Y-107098861D01*
X136326247Y-107362239D01*
X135974053Y-107617406D01*
X135627597Y-107860747D01*
X135291620Y-108088647D01*
X134970863Y-108297493D01*
X134670065Y-108483669D01*
X134554249Y-108552236D01*
X134465682Y-108602468D01*
X134388567Y-108643553D01*
X134331161Y-108671267D01*
X134301725Y-108681387D01*
X134301667Y-108681387D01*
X134273207Y-108671842D01*
X134214551Y-108645796D01*
X134132866Y-108606642D01*
X134035324Y-108557776D01*
X133974916Y-108526638D01*
X133709772Y-108381663D01*
X133455077Y-108227460D01*
X133204941Y-108059705D01*
X132953478Y-107874071D01*
X132694800Y-107666235D01*
X132423020Y-107431872D01*
X132164909Y-107197069D01*
X131970437Y-107011752D01*
X131772348Y-106814269D01*
X131573410Y-106607948D01*
X131376393Y-106396118D01*
X131184066Y-106182110D01*
X130999199Y-105969252D01*
X130824561Y-105760874D01*
X130662921Y-105560305D01*
X130517050Y-105370875D01*
X130389716Y-105195912D01*
X130283688Y-105038747D01*
X130201737Y-104902709D01*
X130146632Y-104791126D01*
X130132695Y-104753989D01*
X130125528Y-104677333D01*
X130156584Y-104605890D01*
X130226197Y-104539588D01*
X130334702Y-104478355D01*
X130482433Y-104422119D01*
X130669725Y-104370806D01*
X130896913Y-104324346D01*
X131164330Y-104282665D01*
X131472312Y-104245691D01*
X131821193Y-104213353D01*
X132211308Y-104185577D01*
X132642990Y-104162292D01*
X132927166Y-104150251D01*
X133094306Y-104145090D01*
X133293313Y-104141066D01*
X133518739Y-104138142D01*
X133765135Y-104136281D01*
X134027052Y-104135447D01*
X134299040Y-104135604D01*
G36*
X110686026Y-102788944D02*
G01*
X110707981Y-102797468D01*
X110726016Y-102816149D01*
X110740640Y-102848651D01*
X110752364Y-102898635D01*
X110761696Y-102969764D01*
X110769149Y-103065700D01*
X110775231Y-103190105D01*
X110780453Y-103346640D01*
X110785324Y-103538969D01*
X110789234Y-103717376D01*
X110797282Y-104062490D01*
X110806225Y-104372093D01*
X110816415Y-104653002D01*
X110828208Y-104912034D01*
X110841958Y-105156009D01*
X110858019Y-105391744D01*
X110876746Y-105626056D01*
X110898493Y-105865764D01*
X110903687Y-105919584D01*
X110939995Y-106307289D01*
X110969490Y-106655930D01*
X110992351Y-106968191D01*
X111008758Y-107246760D01*
X111018888Y-107494322D01*
X111022884Y-107706702D01*
X111023232Y-107845268D01*
X111021944Y-107949014D01*
X111018377Y-108025446D01*
X111011889Y-108082065D01*
X111001838Y-108126377D01*
X110987581Y-108165882D01*
X110982582Y-108177479D01*
X110914518Y-108280924D01*
X110814408Y-108363039D01*
X110687642Y-108422267D01*
X110539608Y-108457049D01*
X110375692Y-108465826D01*
X110201284Y-108447041D01*
X110116305Y-108428009D01*
X109886921Y-108349388D01*
X109645254Y-108230657D01*
X109391749Y-108072077D01*
X109126851Y-107873913D01*
X108998250Y-107766927D01*
X108783131Y-107572549D01*
X108566022Y-107357922D01*
X108351914Y-107129079D01*
X108145798Y-106892054D01*
X107952664Y-106652881D01*
X107777505Y-106417595D01*
X107625312Y-106192229D01*
X107501076Y-105982817D01*
X107463979Y-105912146D01*
X107418819Y-105811325D01*
X107389651Y-105722453D01*
X107377620Y-105651939D01*
X107383875Y-105606196D01*
X107406600Y-105591500D01*
X107434887Y-105609668D01*
X107484348Y-105663895D01*
X107554666Y-105753769D01*
X107645526Y-105878876D01*
X107756612Y-106038803D01*
X107819342Y-106131250D01*
X108074732Y-106485327D01*
X108341605Y-106805270D01*
X108626970Y-107099041D01*
X108845732Y-107297028D01*
X109064612Y-107476766D01*
X109270389Y-107626689D01*
X109472918Y-107752549D01*
X109682050Y-107860100D01*
X109907638Y-107955096D01*
X110076735Y-108015888D01*
X110230127Y-108065439D01*
X110350253Y-108097252D01*
X110442470Y-108110922D01*
X110512135Y-108106039D01*
X110564607Y-108082197D01*
X110605242Y-108038988D01*
X110639399Y-107976005D01*
X110640743Y-107972986D01*
X110662676Y-107911638D01*
X110679295Y-107836635D01*
X110690537Y-107744906D01*
X110696340Y-107633379D01*
X110696641Y-107498984D01*
X110691379Y-107338650D01*
X110680490Y-107149306D01*
X110663913Y-106927881D01*
X110641584Y-106671305D01*
X110613441Y-106376506D01*
X110606958Y-106311167D01*
X110578988Y-106015520D01*
X110556644Y-105741869D01*
X110539434Y-105479746D01*
X110526867Y-105218687D01*
X110518451Y-104948224D01*
X110513696Y-104657893D01*
X110512112Y-104337227D01*
X110512114Y-104289750D01*
X110513625Y-103984747D01*
X110517728Y-103712061D01*
X110524349Y-103473272D01*
X110533411Y-103269961D01*
X110544841Y-103103706D01*
X110558562Y-102976090D01*
X110574499Y-102888691D01*
X110579792Y-102870273D01*
X110603198Y-102814887D01*
X110631340Y-102790826D01*
X110659640Y-102786917D01*
X110686026Y-102788944D01*
X110686026Y-102788944D01*
G37*
X110686026Y-102788944D02*
X110707981Y-102797468D01*
X110726016Y-102816149D01*
X110740640Y-102848651D01*
X110752364Y-102898635D01*
X110761696Y-102969764D01*
X110769149Y-103065700D01*
X110775231Y-103190105D01*
X110780453Y-103346640D01*
X110785324Y-103538969D01*
X110789234Y-103717376D01*
X110797282Y-104062490D01*
X110806225Y-104372093D01*
X110816415Y-104653002D01*
X110828208Y-104912034D01*
X110841958Y-105156009D01*
X110858019Y-105391744D01*
X110876746Y-105626056D01*
X110898493Y-105865764D01*
X110903687Y-105919584D01*
X110939995Y-106307289D01*
X110969490Y-106655930D01*
X110992351Y-106968191D01*
X111008758Y-107246760D01*
X111018888Y-107494322D01*
X111022884Y-107706702D01*
X111023232Y-107845268D01*
X111021944Y-107949014D01*
X111018377Y-108025446D01*
X111011889Y-108082065D01*
X111001838Y-108126377D01*
X110987581Y-108165882D01*
X110982582Y-108177479D01*
X110914518Y-108280924D01*
X110814408Y-108363039D01*
X110687642Y-108422267D01*
X110539608Y-108457049D01*
X110375692Y-108465826D01*
X110201284Y-108447041D01*
X110116305Y-108428009D01*
X109886921Y-108349388D01*
X109645254Y-108230657D01*
X109391749Y-108072077D01*
X109126851Y-107873913D01*
X108998250Y-107766927D01*
X108783131Y-107572549D01*
X108566022Y-107357922D01*
X108351914Y-107129079D01*
X108145798Y-106892054D01*
X107952664Y-106652881D01*
X107777505Y-106417595D01*
X107625312Y-106192229D01*
X107501076Y-105982817D01*
X107463979Y-105912146D01*
X107418819Y-105811325D01*
X107389651Y-105722453D01*
X107377620Y-105651939D01*
X107383875Y-105606196D01*
X107406600Y-105591500D01*
X107434887Y-105609668D01*
X107484348Y-105663895D01*
X107554666Y-105753769D01*
X107645526Y-105878876D01*
X107756612Y-106038803D01*
X107819342Y-106131250D01*
X108074732Y-106485327D01*
X108341605Y-106805270D01*
X108626970Y-107099041D01*
X108845732Y-107297028D01*
X109064612Y-107476766D01*
X109270389Y-107626689D01*
X109472918Y-107752549D01*
X109682050Y-107860100D01*
X109907638Y-107955096D01*
X110076735Y-108015888D01*
X110230127Y-108065439D01*
X110350253Y-108097252D01*
X110442470Y-108110922D01*
X110512135Y-108106039D01*
X110564607Y-108082197D01*
X110605242Y-108038988D01*
X110639399Y-107976005D01*
X110640743Y-107972986D01*
X110662676Y-107911638D01*
X110679295Y-107836635D01*
X110690537Y-107744906D01*
X110696340Y-107633379D01*
X110696641Y-107498984D01*
X110691379Y-107338650D01*
X110680490Y-107149306D01*
X110663913Y-106927881D01*
X110641584Y-106671305D01*
X110613441Y-106376506D01*
X110606958Y-106311167D01*
X110578988Y-106015520D01*
X110556644Y-105741869D01*
X110539434Y-105479746D01*
X110526867Y-105218687D01*
X110518451Y-104948224D01*
X110513696Y-104657893D01*
X110512112Y-104337227D01*
X110512114Y-104289750D01*
X110513625Y-103984747D01*
X110517728Y-103712061D01*
X110524349Y-103473272D01*
X110533411Y-103269961D01*
X110544841Y-103103706D01*
X110558562Y-102976090D01*
X110574499Y-102888691D01*
X110579792Y-102870273D01*
X110603198Y-102814887D01*
X110631340Y-102790826D01*
X110659640Y-102786917D01*
X110686026Y-102788944D01*
G36*
X180986083Y-101657677D02*
G01*
X181183427Y-101660627D01*
X181342160Y-101664530D01*
X181466003Y-101669853D01*
X181558675Y-101677062D01*
X181623897Y-101686623D01*
X181665387Y-101699003D01*
X181686867Y-101714669D01*
X181692056Y-101734087D01*
X181689529Y-101745892D01*
X181669661Y-101774280D01*
X181626556Y-101806116D01*
X181558545Y-101841940D01*
X181463955Y-101882291D01*
X181341119Y-101927709D01*
X181188364Y-101978734D01*
X181004021Y-102035907D01*
X180786419Y-102099766D01*
X180533889Y-102170852D01*
X180244759Y-102249704D01*
X179917360Y-102336862D01*
X179620833Y-102414475D01*
X179307612Y-102495877D01*
X178983983Y-102579876D01*
X178653397Y-102665581D01*
X178319305Y-102752102D01*
X177985158Y-102838550D01*
X177654406Y-102924036D01*
X177330502Y-103007668D01*
X177016896Y-103088559D01*
X176717039Y-103165817D01*
X176434381Y-103238554D01*
X176172374Y-103305879D01*
X175934469Y-103366904D01*
X175724117Y-103420737D01*
X175544768Y-103466490D01*
X175399874Y-103503273D01*
X175302833Y-103527709D01*
X175149487Y-103566833D01*
X174981657Y-103610908D01*
X174814863Y-103655780D01*
X174664625Y-103697293D01*
X174590652Y-103718349D01*
X174469619Y-103751381D01*
X174328049Y-103786837D01*
X174172999Y-103823256D01*
X174011525Y-103859177D01*
X173850684Y-103893140D01*
X173697533Y-103923684D01*
X173559128Y-103949347D01*
X173442526Y-103968669D01*
X173354784Y-103980190D01*
X173313087Y-103982834D01*
X173240900Y-103973878D01*
X173184043Y-103940282D01*
X173163371Y-103920962D01*
X173127290Y-103879315D01*
X173108734Y-103836703D01*
X173102194Y-103776579D01*
X173101706Y-103735753D01*
X173117038Y-103608390D01*
X173164492Y-103480666D01*
X173246907Y-103345868D01*
X173291474Y-103286982D01*
X173323208Y-103248720D01*
X173355258Y-103215905D01*
X173393388Y-103184961D01*
X173443364Y-103152311D01*
X173510950Y-103114379D01*
X173601912Y-103067589D01*
X173722014Y-103008365D01*
X173807873Y-102966629D01*
X174140343Y-102810984D01*
X174460259Y-102673428D01*
X174779837Y-102549342D01*
X175111294Y-102434107D01*
X175466845Y-102323103D01*
X175652083Y-102269278D01*
X176170736Y-102134727D01*
X176724370Y-102015685D01*
X177308369Y-101912682D01*
X177918121Y-101826245D01*
X178549011Y-101756905D01*
X179196424Y-101705189D01*
X179855747Y-101671628D01*
X180522366Y-101656750D01*
X180986083Y-101657677D01*
X180986083Y-101657677D01*
G37*
X180986083Y-101657677D02*
X181183427Y-101660627D01*
X181342160Y-101664530D01*
X181466003Y-101669853D01*
X181558675Y-101677062D01*
X181623897Y-101686623D01*
X181665387Y-101699003D01*
X181686867Y-101714669D01*
X181692056Y-101734087D01*
X181689529Y-101745892D01*
X181669661Y-101774280D01*
X181626556Y-101806116D01*
X181558545Y-101841940D01*
X181463955Y-101882291D01*
X181341119Y-101927709D01*
X181188364Y-101978734D01*
X181004021Y-102035907D01*
X180786419Y-102099766D01*
X180533889Y-102170852D01*
X180244759Y-102249704D01*
X179917360Y-102336862D01*
X179620833Y-102414475D01*
X179307612Y-102495877D01*
X178983983Y-102579876D01*
X178653397Y-102665581D01*
X178319305Y-102752102D01*
X177985158Y-102838550D01*
X177654406Y-102924036D01*
X177330502Y-103007668D01*
X177016896Y-103088559D01*
X176717039Y-103165817D01*
X176434381Y-103238554D01*
X176172374Y-103305879D01*
X175934469Y-103366904D01*
X175724117Y-103420737D01*
X175544768Y-103466490D01*
X175399874Y-103503273D01*
X175302833Y-103527709D01*
X175149487Y-103566833D01*
X174981657Y-103610908D01*
X174814863Y-103655780D01*
X174664625Y-103697293D01*
X174590652Y-103718349D01*
X174469619Y-103751381D01*
X174328049Y-103786837D01*
X174172999Y-103823256D01*
X174011525Y-103859177D01*
X173850684Y-103893140D01*
X173697533Y-103923684D01*
X173559128Y-103949347D01*
X173442526Y-103968669D01*
X173354784Y-103980190D01*
X173313087Y-103982834D01*
X173240900Y-103973878D01*
X173184043Y-103940282D01*
X173163371Y-103920962D01*
X173127290Y-103879315D01*
X173108734Y-103836703D01*
X173102194Y-103776579D01*
X173101706Y-103735753D01*
X173117038Y-103608390D01*
X173164492Y-103480666D01*
X173246907Y-103345868D01*
X173291474Y-103286982D01*
X173323208Y-103248720D01*
X173355258Y-103215905D01*
X173393388Y-103184961D01*
X173443364Y-103152311D01*
X173510950Y-103114379D01*
X173601912Y-103067589D01*
X173722014Y-103008365D01*
X173807873Y-102966629D01*
X174140343Y-102810984D01*
X174460259Y-102673428D01*
X174779837Y-102549342D01*
X175111294Y-102434107D01*
X175466845Y-102323103D01*
X175652083Y-102269278D01*
X176170736Y-102134727D01*
X176724370Y-102015685D01*
X177308369Y-101912682D01*
X177918121Y-101826245D01*
X178549011Y-101756905D01*
X179196424Y-101705189D01*
X179855747Y-101671628D01*
X180522366Y-101656750D01*
X180986083Y-101657677D01*
G36*
X135581961Y-99889474D02*
G01*
X135972040Y-99918846D01*
X136367347Y-99964567D01*
X136761576Y-100025613D01*
X137148424Y-100100957D01*
X137521585Y-100189574D01*
X137874757Y-100290438D01*
X138201633Y-100402524D01*
X138495910Y-100524806D01*
X138602718Y-100576162D01*
X138710649Y-100632886D01*
X138784393Y-100678419D01*
X138829199Y-100716955D01*
X138850319Y-100752688D01*
X138853833Y-100776780D01*
X138842390Y-100826053D01*
X138806019Y-100856037D01*
X138741652Y-100867054D01*
X138646226Y-100859428D01*
X138516673Y-100833481D01*
X138456843Y-100818623D01*
X138372130Y-100795215D01*
X138258098Y-100761541D01*
X138125530Y-100720901D01*
X137985210Y-100676591D01*
X137866046Y-100637898D01*
X137533451Y-100532370D01*
X137226679Y-100444437D01*
X136937509Y-100372891D01*
X136657725Y-100316524D01*
X136379107Y-100274127D01*
X136093438Y-100244492D01*
X135792499Y-100226411D01*
X135468072Y-100218676D01*
X135111939Y-100220077D01*
X135033250Y-100221402D01*
X134778944Y-100227579D01*
X134559531Y-100236351D01*
X134367607Y-100248520D01*
X134195771Y-100264882D01*
X134036620Y-100286236D01*
X133882751Y-100313382D01*
X133726761Y-100347117D01*
X133615083Y-100374385D01*
X133422142Y-100419509D01*
X133259508Y-100449573D01*
X133129256Y-100464368D01*
X133033459Y-100463687D01*
X132974195Y-100447323D01*
X132964068Y-100439545D01*
X132941143Y-100394081D01*
X132957491Y-100345364D01*
X133010260Y-100294372D01*
X133096601Y-100242085D01*
X133213665Y-100189481D01*
X133358602Y-100137539D01*
X133528562Y-100087239D01*
X133720696Y-100039560D01*
X133932155Y-99995481D01*
X134160087Y-99955980D01*
X134401645Y-99922038D01*
X134506131Y-99909713D01*
X134842702Y-99883882D01*
X135203414Y-99877478D01*
X135581961Y-99889474D01*
X135581961Y-99889474D01*
G37*
X135581961Y-99889474D02*
X135972040Y-99918846D01*
X136367347Y-99964567D01*
X136761576Y-100025613D01*
X137148424Y-100100957D01*
X137521585Y-100189574D01*
X137874757Y-100290438D01*
X138201633Y-100402524D01*
X138495910Y-100524806D01*
X138602718Y-100576162D01*
X138710649Y-100632886D01*
X138784393Y-100678419D01*
X138829199Y-100716955D01*
X138850319Y-100752688D01*
X138853833Y-100776780D01*
X138842390Y-100826053D01*
X138806019Y-100856037D01*
X138741652Y-100867054D01*
X138646226Y-100859428D01*
X138516673Y-100833481D01*
X138456843Y-100818623D01*
X138372130Y-100795215D01*
X138258098Y-100761541D01*
X138125530Y-100720901D01*
X137985210Y-100676591D01*
X137866046Y-100637898D01*
X137533451Y-100532370D01*
X137226679Y-100444437D01*
X136937509Y-100372891D01*
X136657725Y-100316524D01*
X136379107Y-100274127D01*
X136093438Y-100244492D01*
X135792499Y-100226411D01*
X135468072Y-100218676D01*
X135111939Y-100220077D01*
X135033250Y-100221402D01*
X134778944Y-100227579D01*
X134559531Y-100236351D01*
X134367607Y-100248520D01*
X134195771Y-100264882D01*
X134036620Y-100286236D01*
X133882751Y-100313382D01*
X133726761Y-100347117D01*
X133615083Y-100374385D01*
X133422142Y-100419509D01*
X133259508Y-100449573D01*
X133129256Y-100464368D01*
X133033459Y-100463687D01*
X132974195Y-100447323D01*
X132964068Y-100439545D01*
X132941143Y-100394081D01*
X132957491Y-100345364D01*
X133010260Y-100294372D01*
X133096601Y-100242085D01*
X133213665Y-100189481D01*
X133358602Y-100137539D01*
X133528562Y-100087239D01*
X133720696Y-100039560D01*
X133932155Y-99995481D01*
X134160087Y-99955980D01*
X134401645Y-99922038D01*
X134506131Y-99909713D01*
X134842702Y-99883882D01*
X135203414Y-99877478D01*
X135581961Y-99889474D01*
G36*
X165077153Y-52800762D02*
G01*
X165076255Y-52857202D01*
X165071736Y-52944217D01*
X165063938Y-53056037D01*
X165053201Y-53186892D01*
X165044434Y-53283375D01*
X164939347Y-54499487D01*
X164856747Y-55684359D01*
X164796795Y-56842717D01*
X164759654Y-57979288D01*
X164745484Y-59098802D01*
X164754447Y-60205984D01*
X164786705Y-61305562D01*
X164842420Y-62402263D01*
X164921754Y-63500815D01*
X165024867Y-64605944D01*
X165151922Y-65722380D01*
X165303080Y-66854848D01*
X165478503Y-68008076D01*
X165566110Y-68539250D01*
X165630423Y-68913115D01*
X165701202Y-69311563D01*
X165777487Y-69729810D01*
X165858319Y-70163072D01*
X165942738Y-70606567D01*
X166029787Y-71055509D01*
X166118504Y-71505117D01*
X166207932Y-71950605D01*
X166297110Y-72387190D01*
X166385080Y-72810089D01*
X166470882Y-73214518D01*
X166553558Y-73595693D01*
X166632147Y-73948830D01*
X166705692Y-74269146D01*
X166764965Y-74517975D01*
X166867804Y-74943477D01*
X166971806Y-75379127D01*
X167077699Y-75828120D01*
X167186212Y-76293648D01*
X167298075Y-76778905D01*
X167414017Y-77287084D01*
X167534767Y-77821379D01*
X167661054Y-78384982D01*
X167793607Y-78981088D01*
X167933157Y-79612889D01*
X168053298Y-80159750D01*
X168154444Y-80621079D01*
X168246982Y-81042976D01*
X168331343Y-81427368D01*
X168407955Y-81776180D01*
X168477246Y-82091338D01*
X168539646Y-82374768D01*
X168595583Y-82628396D01*
X168645486Y-82854149D01*
X168689784Y-83053953D01*
X168728906Y-83229732D01*
X168763280Y-83383415D01*
X168793335Y-83516925D01*
X168819501Y-83632191D01*
X168842205Y-83731136D01*
X168861877Y-83815689D01*
X168878945Y-83887773D01*
X168893838Y-83949317D01*
X168906986Y-84002245D01*
X168918816Y-84048484D01*
X168920361Y-84054417D01*
X168937526Y-84122092D01*
X168963412Y-84226771D01*
X168997007Y-84364261D01*
X169037299Y-84530368D01*
X169083278Y-84720895D01*
X169133933Y-84931649D01*
X169188252Y-85158435D01*
X169245224Y-85397059D01*
X169303838Y-85643325D01*
X169333659Y-85768917D01*
X169466556Y-86328430D01*
X169590601Y-86849277D01*
X169706439Y-87334043D01*
X169814714Y-87785316D01*
X169916072Y-88205683D01*
X170011157Y-88597732D01*
X170100612Y-88964049D01*
X170185084Y-89307221D01*
X170265215Y-89629837D01*
X170341652Y-89934483D01*
X170415037Y-90223746D01*
X170486017Y-90500213D01*
X170555234Y-90766472D01*
X170623335Y-91025110D01*
X170690963Y-91278714D01*
X170758763Y-91529871D01*
X170827379Y-91781168D01*
X170869916Y-91935651D01*
X171096299Y-92736510D01*
X171326259Y-93512946D01*
X171558432Y-94260580D01*
X171791455Y-94975031D01*
X172023967Y-95651919D01*
X172042093Y-95703155D01*
X172093195Y-95848575D01*
X172131039Y-95960174D01*
X172157170Y-96043792D01*
X172173132Y-96105269D01*
X172180471Y-96150444D01*
X172180730Y-96185158D01*
X172176456Y-96211155D01*
X172160701Y-96261712D01*
X172135421Y-96284952D01*
X172085420Y-96293180D01*
X172074233Y-96293918D01*
X172007661Y-96288328D01*
X171908971Y-96266588D01*
X171784533Y-96230177D01*
X171746833Y-96217852D01*
X171542207Y-96145201D01*
X171312144Y-96055891D01*
X171062303Y-95952639D01*
X170798342Y-95838161D01*
X170525921Y-95715175D01*
X170250697Y-95586397D01*
X169978330Y-95454545D01*
X169714479Y-95322336D01*
X169464801Y-95192486D01*
X169234957Y-95067713D01*
X169030604Y-94950734D01*
X168857402Y-94844265D01*
X168782150Y-94794384D01*
X168494784Y-94579195D01*
X168207643Y-94328951D01*
X167927077Y-94050484D01*
X167659434Y-93750627D01*
X167411064Y-93436214D01*
X167188315Y-93114076D01*
X167121477Y-93007181D01*
X166909521Y-92625149D01*
X166738736Y-92242818D01*
X166608028Y-91857467D01*
X166529426Y-91534539D01*
X166506476Y-91426672D01*
X166473801Y-91282216D01*
X166432471Y-91105514D01*
X166383557Y-90900912D01*
X166328128Y-90672754D01*
X166267253Y-90425383D01*
X166202004Y-90163145D01*
X166133450Y-89890384D01*
X166062660Y-89611444D01*
X165990704Y-89330669D01*
X165918653Y-89052405D01*
X165909689Y-89018000D01*
X165421733Y-87086343D01*
X164966254Y-85159506D01*
X164543908Y-83240637D01*
X164155347Y-81332884D01*
X163801227Y-79439395D01*
X163482200Y-77563317D01*
X163334850Y-76624917D01*
X163182858Y-75600383D01*
X163044902Y-74609441D01*
X162920364Y-73645964D01*
X162808627Y-72703826D01*
X162709073Y-71776904D01*
X162621084Y-70859070D01*
X162544044Y-69944200D01*
X162477334Y-69026168D01*
X162420337Y-68098849D01*
X162372436Y-67156116D01*
X162366096Y-67015250D01*
X162360348Y-66858615D01*
X162355312Y-66667645D01*
X162350989Y-66447093D01*
X162347379Y-66201709D01*
X162344481Y-65936245D01*
X162342296Y-65655450D01*
X162340823Y-65364076D01*
X162340063Y-65066874D01*
X162340016Y-64768595D01*
X162340681Y-64473990D01*
X162342059Y-64187809D01*
X162344149Y-63914804D01*
X162346952Y-63659726D01*
X162350467Y-63427325D01*
X162354695Y-63222352D01*
X162359635Y-63049559D01*
X162365287Y-62913696D01*
X162366111Y-62898334D01*
X162376823Y-62733816D01*
X162392593Y-62532227D01*
X162412889Y-62298458D01*
X162437181Y-62037401D01*
X162464935Y-61753946D01*
X162495621Y-61452986D01*
X162528706Y-61139412D01*
X162563657Y-60818115D01*
X162599945Y-60493986D01*
X162637036Y-60171917D01*
X162674398Y-59856800D01*
X162711500Y-59553525D01*
X162747810Y-59266984D01*
X162782796Y-59002069D01*
X162814999Y-58770153D01*
X162919561Y-58090449D01*
X163033126Y-57451387D01*
X163155952Y-56852187D01*
X163288300Y-56292072D01*
X163430429Y-55770262D01*
X163582598Y-55285978D01*
X163745067Y-54838441D01*
X163918096Y-54426873D01*
X164101945Y-54050494D01*
X164296872Y-53708526D01*
X164503137Y-53400190D01*
X164680629Y-53172250D01*
X164762457Y-53077434D01*
X164845082Y-52987103D01*
X164922972Y-52906763D01*
X164990593Y-52841919D01*
X165042414Y-52798078D01*
X165072904Y-52780745D01*
X165074091Y-52780667D01*
X165077153Y-52800762D01*
X165077153Y-52800762D01*
G37*
X165077153Y-52800762D02*
X165076255Y-52857202D01*
X165071736Y-52944217D01*
X165063938Y-53056037D01*
X165053201Y-53186892D01*
X165044434Y-53283375D01*
X164939347Y-54499487D01*
X164856747Y-55684359D01*
X164796795Y-56842717D01*
X164759654Y-57979288D01*
X164745484Y-59098802D01*
X164754447Y-60205984D01*
X164786705Y-61305562D01*
X164842420Y-62402263D01*
X164921754Y-63500815D01*
X165024867Y-64605944D01*
X165151922Y-65722380D01*
X165303080Y-66854848D01*
X165478503Y-68008076D01*
X165566110Y-68539250D01*
X165630423Y-68913115D01*
X165701202Y-69311563D01*
X165777487Y-69729810D01*
X165858319Y-70163072D01*
X165942738Y-70606567D01*
X166029787Y-71055509D01*
X166118504Y-71505117D01*
X166207932Y-71950605D01*
X166297110Y-72387190D01*
X166385080Y-72810089D01*
X166470882Y-73214518D01*
X166553558Y-73595693D01*
X166632147Y-73948830D01*
X166705692Y-74269146D01*
X166764965Y-74517975D01*
X166867804Y-74943477D01*
X166971806Y-75379127D01*
X167077699Y-75828120D01*
X167186212Y-76293648D01*
X167298075Y-76778905D01*
X167414017Y-77287084D01*
X167534767Y-77821379D01*
X167661054Y-78384982D01*
X167793607Y-78981088D01*
X167933157Y-79612889D01*
X168053298Y-80159750D01*
X168154444Y-80621079D01*
X168246982Y-81042976D01*
X168331343Y-81427368D01*
X168407955Y-81776180D01*
X168477246Y-82091338D01*
X168539646Y-82374768D01*
X168595583Y-82628396D01*
X168645486Y-82854149D01*
X168689784Y-83053953D01*
X168728906Y-83229732D01*
X168763280Y-83383415D01*
X168793335Y-83516925D01*
X168819501Y-83632191D01*
X168842205Y-83731136D01*
X168861877Y-83815689D01*
X168878945Y-83887773D01*
X168893838Y-83949317D01*
X168906986Y-84002245D01*
X168918816Y-84048484D01*
X168920361Y-84054417D01*
X168937526Y-84122092D01*
X168963412Y-84226771D01*
X168997007Y-84364261D01*
X169037299Y-84530368D01*
X169083278Y-84720895D01*
X169133933Y-84931649D01*
X169188252Y-85158435D01*
X169245224Y-85397059D01*
X169303838Y-85643325D01*
X169333659Y-85768917D01*
X169466556Y-86328430D01*
X169590601Y-86849277D01*
X169706439Y-87334043D01*
X169814714Y-87785316D01*
X169916072Y-88205683D01*
X170011157Y-88597732D01*
X170100612Y-88964049D01*
X170185084Y-89307221D01*
X170265215Y-89629837D01*
X170341652Y-89934483D01*
X170415037Y-90223746D01*
X170486017Y-90500213D01*
X170555234Y-90766472D01*
X170623335Y-91025110D01*
X170690963Y-91278714D01*
X170758763Y-91529871D01*
X170827379Y-91781168D01*
X170869916Y-91935651D01*
X171096299Y-92736510D01*
X171326259Y-93512946D01*
X171558432Y-94260580D01*
X171791455Y-94975031D01*
X172023967Y-95651919D01*
X172042093Y-95703155D01*
X172093195Y-95848575D01*
X172131039Y-95960174D01*
X172157170Y-96043792D01*
X172173132Y-96105269D01*
X172180471Y-96150444D01*
X172180730Y-96185158D01*
X172176456Y-96211155D01*
X172160701Y-96261712D01*
X172135421Y-96284952D01*
X172085420Y-96293180D01*
X172074233Y-96293918D01*
X172007661Y-96288328D01*
X171908971Y-96266588D01*
X171784533Y-96230177D01*
X171746833Y-96217852D01*
X171542207Y-96145201D01*
X171312144Y-96055891D01*
X171062303Y-95952639D01*
X170798342Y-95838161D01*
X170525921Y-95715175D01*
X170250697Y-95586397D01*
X169978330Y-95454545D01*
X169714479Y-95322336D01*
X169464801Y-95192486D01*
X169234957Y-95067713D01*
X169030604Y-94950734D01*
X168857402Y-94844265D01*
X168782150Y-94794384D01*
X168494784Y-94579195D01*
X168207643Y-94328951D01*
X167927077Y-94050484D01*
X167659434Y-93750627D01*
X167411064Y-93436214D01*
X167188315Y-93114076D01*
X167121477Y-93007181D01*
X166909521Y-92625149D01*
X166738736Y-92242818D01*
X166608028Y-91857467D01*
X166529426Y-91534539D01*
X166506476Y-91426672D01*
X166473801Y-91282216D01*
X166432471Y-91105514D01*
X166383557Y-90900912D01*
X166328128Y-90672754D01*
X166267253Y-90425383D01*
X166202004Y-90163145D01*
X166133450Y-89890384D01*
X166062660Y-89611444D01*
X165990704Y-89330669D01*
X165918653Y-89052405D01*
X165909689Y-89018000D01*
X165421733Y-87086343D01*
X164966254Y-85159506D01*
X164543908Y-83240637D01*
X164155347Y-81332884D01*
X163801227Y-79439395D01*
X163482200Y-77563317D01*
X163334850Y-76624917D01*
X163182858Y-75600383D01*
X163044902Y-74609441D01*
X162920364Y-73645964D01*
X162808627Y-72703826D01*
X162709073Y-71776904D01*
X162621084Y-70859070D01*
X162544044Y-69944200D01*
X162477334Y-69026168D01*
X162420337Y-68098849D01*
X162372436Y-67156116D01*
X162366096Y-67015250D01*
X162360348Y-66858615D01*
X162355312Y-66667645D01*
X162350989Y-66447093D01*
X162347379Y-66201709D01*
X162344481Y-65936245D01*
X162342296Y-65655450D01*
X162340823Y-65364076D01*
X162340063Y-65066874D01*
X162340016Y-64768595D01*
X162340681Y-64473990D01*
X162342059Y-64187809D01*
X162344149Y-63914804D01*
X162346952Y-63659726D01*
X162350467Y-63427325D01*
X162354695Y-63222352D01*
X162359635Y-63049559D01*
X162365287Y-62913696D01*
X162366111Y-62898334D01*
X162376823Y-62733816D01*
X162392593Y-62532227D01*
X162412889Y-62298458D01*
X162437181Y-62037401D01*
X162464935Y-61753946D01*
X162495621Y-61452986D01*
X162528706Y-61139412D01*
X162563657Y-60818115D01*
X162599945Y-60493986D01*
X162637036Y-60171917D01*
X162674398Y-59856800D01*
X162711500Y-59553525D01*
X162747810Y-59266984D01*
X162782796Y-59002069D01*
X162814999Y-58770153D01*
X162919561Y-58090449D01*
X163033126Y-57451387D01*
X163155952Y-56852187D01*
X163288300Y-56292072D01*
X163430429Y-55770262D01*
X163582598Y-55285978D01*
X163745067Y-54838441D01*
X163918096Y-54426873D01*
X164101945Y-54050494D01*
X164296872Y-53708526D01*
X164503137Y-53400190D01*
X164680629Y-53172250D01*
X164762457Y-53077434D01*
X164845082Y-52987103D01*
X164922972Y-52906763D01*
X164990593Y-52841919D01*
X165042414Y-52798078D01*
X165072904Y-52780745D01*
X165074091Y-52780667D01*
X165077153Y-52800762D01*
G36*
X149467388Y-84742994D02*
G01*
X149610169Y-84748813D01*
X149753050Y-84759334D01*
X149900940Y-84775346D01*
X150058752Y-84797636D01*
X150231395Y-84826992D01*
X150423781Y-84864202D01*
X150640821Y-84910053D01*
X150887425Y-84965334D01*
X151168504Y-85030832D01*
X151257500Y-85051930D01*
X151780254Y-85174103D01*
X152280007Y-85286308D01*
X152773813Y-85392275D01*
X153278729Y-85495734D01*
X153374166Y-85514787D01*
X153537572Y-85547535D01*
X153729697Y-85586450D01*
X153937845Y-85628935D01*
X154149319Y-85672391D01*
X154351422Y-85714222D01*
X154474833Y-85739955D01*
X154805406Y-85807329D01*
X155121234Y-85867656D01*
X155426745Y-85921352D01*
X155726370Y-85968830D01*
X156024539Y-86010503D01*
X156325683Y-86046787D01*
X156634232Y-86078094D01*
X156954616Y-86104838D01*
X157291264Y-86127433D01*
X157648608Y-86146294D01*
X158031077Y-86161833D01*
X158443102Y-86174465D01*
X158889113Y-86184604D01*
X159311416Y-86191765D01*
X159666650Y-86197659D01*
X160017997Y-86204760D01*
X160361901Y-86212935D01*
X160694808Y-86222053D01*
X161013161Y-86231981D01*
X161313405Y-86242587D01*
X161591984Y-86253740D01*
X161845343Y-86265307D01*
X162069926Y-86277156D01*
X162262177Y-86289154D01*
X162418541Y-86301171D01*
X162516740Y-86310860D01*
X162792031Y-86362716D01*
X163068133Y-86455840D01*
X163346003Y-86590596D01*
X163508508Y-86688073D01*
X163695145Y-86825513D01*
X163843611Y-86975274D01*
X163957287Y-87141578D01*
X164039552Y-87328649D01*
X164051945Y-87367000D01*
X164073696Y-87466216D01*
X164089628Y-87595821D01*
X164099439Y-87744232D01*
X164102823Y-87899866D01*
X164099479Y-88051140D01*
X164089101Y-88186471D01*
X164075731Y-88274490D01*
X164014914Y-88497612D01*
X163923161Y-88730949D01*
X163806214Y-88963569D01*
X163669810Y-89184540D01*
X163519689Y-89382932D01*
X163456225Y-89454440D01*
X163368714Y-89534131D01*
X163249166Y-89622896D01*
X163105650Y-89716253D01*
X162946234Y-89809722D01*
X162778987Y-89898822D01*
X162611978Y-89979073D01*
X162453275Y-90045995D01*
X162310946Y-90095106D01*
X162293546Y-90100093D01*
X161912233Y-90198939D01*
X161498493Y-90292638D01*
X161062106Y-90379312D01*
X160612850Y-90457081D01*
X160160507Y-90524069D01*
X159935887Y-90552975D01*
X159751917Y-90574220D01*
X159545966Y-90595899D01*
X159321506Y-90617786D01*
X159082012Y-90639654D01*
X158830955Y-90661275D01*
X158571810Y-90682424D01*
X158308050Y-90702873D01*
X158043148Y-90722396D01*
X157780578Y-90740767D01*
X157523813Y-90757758D01*
X157276326Y-90773143D01*
X157041590Y-90786696D01*
X156823079Y-90798189D01*
X156624267Y-90807396D01*
X156448626Y-90814090D01*
X156299630Y-90818045D01*
X156180752Y-90819034D01*
X156095466Y-90816830D01*
X156047244Y-90811206D01*
X156038383Y-90807328D01*
X156015796Y-90805182D01*
X155955317Y-90803103D01*
X155861384Y-90801149D01*
X155738437Y-90799380D01*
X155590918Y-90797853D01*
X155423266Y-90796628D01*
X155239920Y-90795762D01*
X155140563Y-90795476D01*
X154717572Y-90793287D01*
X154330778Y-90788491D01*
X153974107Y-90780723D01*
X153641482Y-90769620D01*
X153326829Y-90754818D01*
X153024070Y-90735956D01*
X152727132Y-90712669D01*
X152429937Y-90684595D01*
X152126411Y-90651370D01*
X151810477Y-90612630D01*
X151585583Y-90582970D01*
X151134936Y-90518976D01*
X150724842Y-90454142D01*
X150353518Y-90388031D01*
X150019187Y-90320202D01*
X149720066Y-90250218D01*
X149454378Y-90177637D01*
X149220341Y-90102022D01*
X149016176Y-90022933D01*
X148840103Y-89939931D01*
X148731937Y-89878854D01*
X148636180Y-89821605D01*
X148530682Y-89760428D01*
X148438125Y-89708473D01*
X148437322Y-89708033D01*
X148198427Y-89553739D01*
X147978578Y-89363783D01*
X147780165Y-89141423D01*
X147605574Y-88889913D01*
X147457196Y-88612512D01*
X147337417Y-88312474D01*
X147283435Y-88134715D01*
X147267454Y-88074388D01*
X147254832Y-88020830D01*
X147245163Y-87968052D01*
X147238040Y-87910067D01*
X147233058Y-87840887D01*
X147229810Y-87754524D01*
X147227889Y-87644989D01*
X147226891Y-87506296D01*
X147226409Y-87332455D01*
X147226339Y-87292917D01*
X147226534Y-87085731D01*
X147228313Y-86914654D01*
X147232297Y-86773471D01*
X147239109Y-86655969D01*
X147249368Y-86555934D01*
X147263697Y-86467152D01*
X147282717Y-86383408D01*
X147307049Y-86298490D01*
X147334042Y-86215809D01*
X147419587Y-86003925D01*
X147530670Y-85801854D01*
X147671570Y-85603189D01*
X147846565Y-85401519D01*
X147944756Y-85300950D01*
X148119555Y-85137298D01*
X148283111Y-85007054D01*
X148443486Y-84906936D01*
X148608746Y-84833659D01*
X148786955Y-84783941D01*
X148986179Y-84754498D01*
X149214481Y-84742045D01*
X149319795Y-84741091D01*
X149467388Y-84742994D01*
X149467388Y-84742994D01*
G37*
X149467388Y-84742994D02*
X149610169Y-84748813D01*
X149753050Y-84759334D01*
X149900940Y-84775346D01*
X150058752Y-84797636D01*
X150231395Y-84826992D01*
X150423781Y-84864202D01*
X150640821Y-84910053D01*
X150887425Y-84965334D01*
X151168504Y-85030832D01*
X151257500Y-85051930D01*
X151780254Y-85174103D01*
X152280007Y-85286308D01*
X152773813Y-85392275D01*
X153278729Y-85495734D01*
X153374166Y-85514787D01*
X153537572Y-85547535D01*
X153729697Y-85586450D01*
X153937845Y-85628935D01*
X154149319Y-85672391D01*
X154351422Y-85714222D01*
X154474833Y-85739955D01*
X154805406Y-85807329D01*
X155121234Y-85867656D01*
X155426745Y-85921352D01*
X155726370Y-85968830D01*
X156024539Y-86010503D01*
X156325683Y-86046787D01*
X156634232Y-86078094D01*
X156954616Y-86104838D01*
X157291264Y-86127433D01*
X157648608Y-86146294D01*
X158031077Y-86161833D01*
X158443102Y-86174465D01*
X158889113Y-86184604D01*
X159311416Y-86191765D01*
X159666650Y-86197659D01*
X160017997Y-86204760D01*
X160361901Y-86212935D01*
X160694808Y-86222053D01*
X161013161Y-86231981D01*
X161313405Y-86242587D01*
X161591984Y-86253740D01*
X161845343Y-86265307D01*
X162069926Y-86277156D01*
X162262177Y-86289154D01*
X162418541Y-86301171D01*
X162516740Y-86310860D01*
X162792031Y-86362716D01*
X163068133Y-86455840D01*
X163346003Y-86590596D01*
X163508508Y-86688073D01*
X163695145Y-86825513D01*
X163843611Y-86975274D01*
X163957287Y-87141578D01*
X164039552Y-87328649D01*
X164051945Y-87367000D01*
X164073696Y-87466216D01*
X164089628Y-87595821D01*
X164099439Y-87744232D01*
X164102823Y-87899866D01*
X164099479Y-88051140D01*
X164089101Y-88186471D01*
X164075731Y-88274490D01*
X164014914Y-88497612D01*
X163923161Y-88730949D01*
X163806214Y-88963569D01*
X163669810Y-89184540D01*
X163519689Y-89382932D01*
X163456225Y-89454440D01*
X163368714Y-89534131D01*
X163249166Y-89622896D01*
X163105650Y-89716253D01*
X162946234Y-89809722D01*
X162778987Y-89898822D01*
X162611978Y-89979073D01*
X162453275Y-90045995D01*
X162310946Y-90095106D01*
X162293546Y-90100093D01*
X161912233Y-90198939D01*
X161498493Y-90292638D01*
X161062106Y-90379312D01*
X160612850Y-90457081D01*
X160160507Y-90524069D01*
X159935887Y-90552975D01*
X159751917Y-90574220D01*
X159545966Y-90595899D01*
X159321506Y-90617786D01*
X159082012Y-90639654D01*
X158830955Y-90661275D01*
X158571810Y-90682424D01*
X158308050Y-90702873D01*
X158043148Y-90722396D01*
X157780578Y-90740767D01*
X157523813Y-90757758D01*
X157276326Y-90773143D01*
X157041590Y-90786696D01*
X156823079Y-90798189D01*
X156624267Y-90807396D01*
X156448626Y-90814090D01*
X156299630Y-90818045D01*
X156180752Y-90819034D01*
X156095466Y-90816830D01*
X156047244Y-90811206D01*
X156038383Y-90807328D01*
X156015796Y-90805182D01*
X155955317Y-90803103D01*
X155861384Y-90801149D01*
X155738437Y-90799380D01*
X155590918Y-90797853D01*
X155423266Y-90796628D01*
X155239920Y-90795762D01*
X155140563Y-90795476D01*
X154717572Y-90793287D01*
X154330778Y-90788491D01*
X153974107Y-90780723D01*
X153641482Y-90769620D01*
X153326829Y-90754818D01*
X153024070Y-90735956D01*
X152727132Y-90712669D01*
X152429937Y-90684595D01*
X152126411Y-90651370D01*
X151810477Y-90612630D01*
X151585583Y-90582970D01*
X151134936Y-90518976D01*
X150724842Y-90454142D01*
X150353518Y-90388031D01*
X150019187Y-90320202D01*
X149720066Y-90250218D01*
X149454378Y-90177637D01*
X149220341Y-90102022D01*
X149016176Y-90022933D01*
X148840103Y-89939931D01*
X148731937Y-89878854D01*
X148636180Y-89821605D01*
X148530682Y-89760428D01*
X148438125Y-89708473D01*
X148437322Y-89708033D01*
X148198427Y-89553739D01*
X147978578Y-89363783D01*
X147780165Y-89141423D01*
X147605574Y-88889913D01*
X147457196Y-88612512D01*
X147337417Y-88312474D01*
X147283435Y-88134715D01*
X147267454Y-88074388D01*
X147254832Y-88020830D01*
X147245163Y-87968052D01*
X147238040Y-87910067D01*
X147233058Y-87840887D01*
X147229810Y-87754524D01*
X147227889Y-87644989D01*
X147226891Y-87506296D01*
X147226409Y-87332455D01*
X147226339Y-87292917D01*
X147226534Y-87085731D01*
X147228313Y-86914654D01*
X147232297Y-86773471D01*
X147239109Y-86655969D01*
X147249368Y-86555934D01*
X147263697Y-86467152D01*
X147282717Y-86383408D01*
X147307049Y-86298490D01*
X147334042Y-86215809D01*
X147419587Y-86003925D01*
X147530670Y-85801854D01*
X147671570Y-85603189D01*
X147846565Y-85401519D01*
X147944756Y-85300950D01*
X148119555Y-85137298D01*
X148283111Y-85007054D01*
X148443486Y-84906936D01*
X148608746Y-84833659D01*
X148786955Y-84783941D01*
X148986179Y-84754498D01*
X149214481Y-84742045D01*
X149319795Y-84741091D01*
X149467388Y-84742994D01*
G36*
X123685324Y-84180010D02*
G01*
X123896844Y-84190952D01*
X124100583Y-84207449D01*
X124287486Y-84228793D01*
X124448498Y-84254278D01*
X124553140Y-84277319D01*
X124804490Y-84361104D01*
X125034128Y-84476419D01*
X125247852Y-84626759D01*
X125451461Y-84815618D01*
X125458287Y-84822770D01*
X125678363Y-85083131D01*
X125865320Y-85365163D01*
X126016080Y-85663729D01*
X126107115Y-85906500D01*
X126143446Y-86031740D01*
X126181032Y-86181598D01*
X126218255Y-86347466D01*
X126253500Y-86520733D01*
X126285149Y-86692792D01*
X126311586Y-86855033D01*
X126331194Y-86998848D01*
X126342357Y-87115628D01*
X126344329Y-87169659D01*
X126337108Y-87335476D01*
X126316951Y-87521932D01*
X126286102Y-87717029D01*
X126246807Y-87908770D01*
X126201310Y-88085156D01*
X126151856Y-88234190D01*
X126139276Y-88265442D01*
X126066787Y-88418373D01*
X125982823Y-88555442D01*
X125882310Y-88681884D01*
X125760178Y-88802932D01*
X125611354Y-88923823D01*
X125430768Y-89049790D01*
X125296583Y-89135242D01*
X124985394Y-89311901D01*
X124665370Y-89460674D01*
X124328380Y-89584661D01*
X123966293Y-89686961D01*
X123687637Y-89748502D01*
X123557498Y-89774907D01*
X123434034Y-89801022D01*
X123326388Y-89824833D01*
X123243707Y-89844326D01*
X123201083Y-89855636D01*
X123114974Y-89876596D01*
X122990928Y-89899928D01*
X122833248Y-89925155D01*
X122646233Y-89951797D01*
X122434184Y-89979377D01*
X122201403Y-90007416D01*
X121952190Y-90035436D01*
X121690847Y-90062959D01*
X121421674Y-90089506D01*
X121148972Y-90114600D01*
X120877042Y-90137762D01*
X120610186Y-90158514D01*
X120352703Y-90176378D01*
X120269500Y-90181620D01*
X120059757Y-90193259D01*
X119828683Y-90203931D01*
X119581489Y-90213550D01*
X119323384Y-90222026D01*
X119059578Y-90229273D01*
X118795280Y-90235201D01*
X118535702Y-90239724D01*
X118286052Y-90242752D01*
X118051540Y-90244199D01*
X117837377Y-90243976D01*
X117648772Y-90241995D01*
X117490934Y-90238168D01*
X117369075Y-90232407D01*
X117348500Y-90230940D01*
X117292683Y-90225408D01*
X117205640Y-90215316D01*
X117098067Y-90201965D01*
X116980664Y-90186657D01*
X116946333Y-90182041D01*
X116809202Y-90163562D01*
X116660605Y-90143694D01*
X116518146Y-90124782D01*
X116399426Y-90109170D01*
X116396000Y-90108723D01*
X116202413Y-90078188D01*
X115978670Y-90033961D01*
X115733772Y-89978430D01*
X115476722Y-89913987D01*
X115216521Y-89843022D01*
X114962172Y-89767924D01*
X114722678Y-89691086D01*
X114507039Y-89614896D01*
X114440665Y-89589528D01*
X114219038Y-89495366D01*
X113988685Y-89383802D01*
X113756292Y-89259002D01*
X113528546Y-89125127D01*
X113312132Y-88986342D01*
X113113736Y-88846808D01*
X112940046Y-88710690D01*
X112797748Y-88582151D01*
X112759285Y-88542607D01*
X112690399Y-88462525D01*
X112610190Y-88359129D01*
X112525174Y-88241901D01*
X112441867Y-88120321D01*
X112366787Y-88003872D01*
X112306449Y-87902035D01*
X112270377Y-87831259D01*
X112239614Y-87737227D01*
X112213540Y-87610107D01*
X112192648Y-87458936D01*
X112177430Y-87292750D01*
X112168378Y-87120586D01*
X112165985Y-86951480D01*
X112170743Y-86794470D01*
X112183144Y-86658591D01*
X112201222Y-86561936D01*
X112249135Y-86425965D01*
X112322336Y-86277342D01*
X112412989Y-86129781D01*
X112513262Y-85996994D01*
X112543666Y-85962506D01*
X112666648Y-85848088D01*
X112824221Y-85732093D01*
X113008971Y-85618221D01*
X113213485Y-85510174D01*
X113430352Y-85411654D01*
X113652158Y-85326360D01*
X113871491Y-85257995D01*
X114031184Y-85219796D01*
X114173175Y-85194667D01*
X114346905Y-85170829D01*
X114553775Y-85148175D01*
X114795184Y-85126596D01*
X115072533Y-85105984D01*
X115387221Y-85086232D01*
X115740648Y-85067230D01*
X116134215Y-85048872D01*
X116374833Y-85038743D01*
X116949131Y-85013738D01*
X117482676Y-84987020D01*
X117977016Y-84958487D01*
X118433700Y-84928036D01*
X118854278Y-84895564D01*
X119240299Y-84860968D01*
X119581583Y-84825462D01*
X119855539Y-84793290D01*
X120108860Y-84760109D01*
X120350501Y-84724350D01*
X120589418Y-84684444D01*
X120834566Y-84638822D01*
X121094902Y-84585915D01*
X121379382Y-84524154D01*
X121645333Y-84463875D01*
X121900648Y-84405300D01*
X122119241Y-84355663D01*
X122305589Y-84314175D01*
X122464170Y-84280051D01*
X122599465Y-84252504D01*
X122715950Y-84230747D01*
X122818105Y-84213994D01*
X122910408Y-84201458D01*
X122997337Y-84192353D01*
X123083371Y-84185891D01*
X123172989Y-84181287D01*
X123270668Y-84177754D01*
X123275166Y-84177612D01*
X123475080Y-84175327D01*
X123685324Y-84180010D01*
X123685324Y-84180010D01*
G37*
X123685324Y-84180010D02*
X123896844Y-84190952D01*
X124100583Y-84207449D01*
X124287486Y-84228793D01*
X124448498Y-84254278D01*
X124553140Y-84277319D01*
X124804490Y-84361104D01*
X125034128Y-84476419D01*
X125247852Y-84626759D01*
X125451461Y-84815618D01*
X125458287Y-84822770D01*
X125678363Y-85083131D01*
X125865320Y-85365163D01*
X126016080Y-85663729D01*
X126107115Y-85906500D01*
X126143446Y-86031740D01*
X126181032Y-86181598D01*
X126218255Y-86347466D01*
X126253500Y-86520733D01*
X126285149Y-86692792D01*
X126311586Y-86855033D01*
X126331194Y-86998848D01*
X126342357Y-87115628D01*
X126344329Y-87169659D01*
X126337108Y-87335476D01*
X126316951Y-87521932D01*
X126286102Y-87717029D01*
X126246807Y-87908770D01*
X126201310Y-88085156D01*
X126151856Y-88234190D01*
X126139276Y-88265442D01*
X126066787Y-88418373D01*
X125982823Y-88555442D01*
X125882310Y-88681884D01*
X125760178Y-88802932D01*
X125611354Y-88923823D01*
X125430768Y-89049790D01*
X125296583Y-89135242D01*
X124985394Y-89311901D01*
X124665370Y-89460674D01*
X124328380Y-89584661D01*
X123966293Y-89686961D01*
X123687637Y-89748502D01*
X123557498Y-89774907D01*
X123434034Y-89801022D01*
X123326388Y-89824833D01*
X123243707Y-89844326D01*
X123201083Y-89855636D01*
X123114974Y-89876596D01*
X122990928Y-89899928D01*
X122833248Y-89925155D01*
X122646233Y-89951797D01*
X122434184Y-89979377D01*
X122201403Y-90007416D01*
X121952190Y-90035436D01*
X121690847Y-90062959D01*
X121421674Y-90089506D01*
X121148972Y-90114600D01*
X120877042Y-90137762D01*
X120610186Y-90158514D01*
X120352703Y-90176378D01*
X120269500Y-90181620D01*
X120059757Y-90193259D01*
X119828683Y-90203931D01*
X119581489Y-90213550D01*
X119323384Y-90222026D01*
X119059578Y-90229273D01*
X118795280Y-90235201D01*
X118535702Y-90239724D01*
X118286052Y-90242752D01*
X118051540Y-90244199D01*
X117837377Y-90243976D01*
X117648772Y-90241995D01*
X117490934Y-90238168D01*
X117369075Y-90232407D01*
X117348500Y-90230940D01*
X117292683Y-90225408D01*
X117205640Y-90215316D01*
X117098067Y-90201965D01*
X116980664Y-90186657D01*
X116946333Y-90182041D01*
X116809202Y-90163562D01*
X116660605Y-90143694D01*
X116518146Y-90124782D01*
X116399426Y-90109170D01*
X116396000Y-90108723D01*
X116202413Y-90078188D01*
X115978670Y-90033961D01*
X115733772Y-89978430D01*
X115476722Y-89913987D01*
X115216521Y-89843022D01*
X114962172Y-89767924D01*
X114722678Y-89691086D01*
X114507039Y-89614896D01*
X114440665Y-89589528D01*
X114219038Y-89495366D01*
X113988685Y-89383802D01*
X113756292Y-89259002D01*
X113528546Y-89125127D01*
X113312132Y-88986342D01*
X113113736Y-88846808D01*
X112940046Y-88710690D01*
X112797748Y-88582151D01*
X112759285Y-88542607D01*
X112690399Y-88462525D01*
X112610190Y-88359129D01*
X112525174Y-88241901D01*
X112441867Y-88120321D01*
X112366787Y-88003872D01*
X112306449Y-87902035D01*
X112270377Y-87831259D01*
X112239614Y-87737227D01*
X112213540Y-87610107D01*
X112192648Y-87458936D01*
X112177430Y-87292750D01*
X112168378Y-87120586D01*
X112165985Y-86951480D01*
X112170743Y-86794470D01*
X112183144Y-86658591D01*
X112201222Y-86561936D01*
X112249135Y-86425965D01*
X112322336Y-86277342D01*
X112412989Y-86129781D01*
X112513262Y-85996994D01*
X112543666Y-85962506D01*
X112666648Y-85848088D01*
X112824221Y-85732093D01*
X113008971Y-85618221D01*
X113213485Y-85510174D01*
X113430352Y-85411654D01*
X113652158Y-85326360D01*
X113871491Y-85257995D01*
X114031184Y-85219796D01*
X114173175Y-85194667D01*
X114346905Y-85170829D01*
X114553775Y-85148175D01*
X114795184Y-85126596D01*
X115072533Y-85105984D01*
X115387221Y-85086232D01*
X115740648Y-85067230D01*
X116134215Y-85048872D01*
X116374833Y-85038743D01*
X116949131Y-85013738D01*
X117482676Y-84987020D01*
X117977016Y-84958487D01*
X118433700Y-84928036D01*
X118854278Y-84895564D01*
X119240299Y-84860968D01*
X119581583Y-84825462D01*
X119855539Y-84793290D01*
X120108860Y-84760109D01*
X120350501Y-84724350D01*
X120589418Y-84684444D01*
X120834566Y-84638822D01*
X121094902Y-84585915D01*
X121379382Y-84524154D01*
X121645333Y-84463875D01*
X121900648Y-84405300D01*
X122119241Y-84355663D01*
X122305589Y-84314175D01*
X122464170Y-84280051D01*
X122599465Y-84252504D01*
X122715950Y-84230747D01*
X122818105Y-84213994D01*
X122910408Y-84201458D01*
X122997337Y-84192353D01*
X123083371Y-84185891D01*
X123172989Y-84181287D01*
X123270668Y-84177754D01*
X123275166Y-84177612D01*
X123475080Y-84175327D01*
X123685324Y-84180010D01*
G36*
X125817467Y-81813080D02*
G01*
X125884798Y-81846883D01*
X125975634Y-81902557D01*
X126085912Y-81976967D01*
X126211567Y-82066983D01*
X126348536Y-82169473D01*
X126492755Y-82281305D01*
X126640160Y-82399346D01*
X126786687Y-82520466D01*
X126928273Y-82641532D01*
X127060853Y-82759413D01*
X127180364Y-82870976D01*
X127247490Y-82936985D01*
X127347177Y-83041399D01*
X127459801Y-83165872D01*
X127578342Y-83302055D01*
X127695776Y-83441599D01*
X127805083Y-83576154D01*
X127899242Y-83697372D01*
X127971230Y-83796902D01*
X127973618Y-83800417D01*
X128214830Y-84188708D01*
X128436080Y-84610558D01*
X128635730Y-85061362D01*
X128812142Y-85536516D01*
X128963677Y-86031417D01*
X129088697Y-86541460D01*
X129185564Y-87062041D01*
X129220182Y-87303500D01*
X129235483Y-87423131D01*
X129245196Y-87508554D01*
X129249316Y-87567528D01*
X129247837Y-87607808D01*
X129240754Y-87637152D01*
X129228063Y-87663315D01*
X129219925Y-87677108D01*
X129174119Y-87737240D01*
X129133243Y-87755935D01*
X129095961Y-87733624D01*
X129086033Y-87720162D01*
X129068853Y-87675887D01*
X129053055Y-87604274D01*
X129041884Y-87520277D01*
X129041371Y-87514467D01*
X129030406Y-87420389D01*
X129011885Y-87311727D01*
X128984951Y-87185301D01*
X128948746Y-87037930D01*
X128902413Y-86866435D01*
X128845095Y-86667634D01*
X128775936Y-86438348D01*
X128694078Y-86175395D01*
X128605182Y-85895917D01*
X128522705Y-85646086D01*
X128445219Y-85428467D01*
X128368881Y-85233870D01*
X128289851Y-85053108D01*
X128204286Y-84876990D01*
X128108343Y-84696326D01*
X128089026Y-84661451D01*
X127794818Y-84171538D01*
X127474962Y-83711474D01*
X127131203Y-83283550D01*
X126765289Y-82890060D01*
X126662622Y-82789733D01*
X126464664Y-82608819D01*
X126278093Y-82457200D01*
X126093155Y-82327495D01*
X125900097Y-82212320D01*
X125898599Y-82211496D01*
X125794726Y-82152940D01*
X125723207Y-82108310D01*
X125678384Y-82072897D01*
X125654601Y-82041992D01*
X125646200Y-82010886D01*
X125645833Y-82001100D01*
X125658597Y-81949784D01*
X125690212Y-81890318D01*
X125730661Y-81837651D01*
X125769926Y-81806734D01*
X125777706Y-81804277D01*
X125817467Y-81813080D01*
X125817467Y-81813080D01*
G37*
X125817467Y-81813080D02*
X125884798Y-81846883D01*
X125975634Y-81902557D01*
X126085912Y-81976967D01*
X126211567Y-82066983D01*
X126348536Y-82169473D01*
X126492755Y-82281305D01*
X126640160Y-82399346D01*
X126786687Y-82520466D01*
X126928273Y-82641532D01*
X127060853Y-82759413D01*
X127180364Y-82870976D01*
X127247490Y-82936985D01*
X127347177Y-83041399D01*
X127459801Y-83165872D01*
X127578342Y-83302055D01*
X127695776Y-83441599D01*
X127805083Y-83576154D01*
X127899242Y-83697372D01*
X127971230Y-83796902D01*
X127973618Y-83800417D01*
X128214830Y-84188708D01*
X128436080Y-84610558D01*
X128635730Y-85061362D01*
X128812142Y-85536516D01*
X128963677Y-86031417D01*
X129088697Y-86541460D01*
X129185564Y-87062041D01*
X129220182Y-87303500D01*
X129235483Y-87423131D01*
X129245196Y-87508554D01*
X129249316Y-87567528D01*
X129247837Y-87607808D01*
X129240754Y-87637152D01*
X129228063Y-87663315D01*
X129219925Y-87677108D01*
X129174119Y-87737240D01*
X129133243Y-87755935D01*
X129095961Y-87733624D01*
X129086033Y-87720162D01*
X129068853Y-87675887D01*
X129053055Y-87604274D01*
X129041884Y-87520277D01*
X129041371Y-87514467D01*
X129030406Y-87420389D01*
X129011885Y-87311727D01*
X128984951Y-87185301D01*
X128948746Y-87037930D01*
X128902413Y-86866435D01*
X128845095Y-86667634D01*
X128775936Y-86438348D01*
X128694078Y-86175395D01*
X128605182Y-85895917D01*
X128522705Y-85646086D01*
X128445219Y-85428467D01*
X128368881Y-85233870D01*
X128289851Y-85053108D01*
X128204286Y-84876990D01*
X128108343Y-84696326D01*
X128089026Y-84661451D01*
X127794818Y-84171538D01*
X127474962Y-83711474D01*
X127131203Y-83283550D01*
X126765289Y-82890060D01*
X126662622Y-82789733D01*
X126464664Y-82608819D01*
X126278093Y-82457200D01*
X126093155Y-82327495D01*
X125900097Y-82212320D01*
X125898599Y-82211496D01*
X125794726Y-82152940D01*
X125723207Y-82108310D01*
X125678384Y-82072897D01*
X125654601Y-82041992D01*
X125646200Y-82010886D01*
X125645833Y-82001100D01*
X125658597Y-81949784D01*
X125690212Y-81890318D01*
X125730661Y-81837651D01*
X125769926Y-81806734D01*
X125777706Y-81804277D01*
X125817467Y-81813080D01*
G36*
X148140169Y-82157259D02*
G01*
X148198930Y-82208220D01*
X148225804Y-82284564D01*
X148226448Y-82290962D01*
X148225293Y-82340618D01*
X148206453Y-82381410D01*
X148162153Y-82428509D01*
X148150519Y-82439149D01*
X148082073Y-82488309D01*
X147986945Y-82539659D01*
X147890155Y-82581343D01*
X147742219Y-82643578D01*
X147570276Y-82725775D01*
X147384355Y-82822723D01*
X147194484Y-82929211D01*
X147027022Y-83029826D01*
X146650184Y-83287640D01*
X146288307Y-83581463D01*
X145946732Y-83906077D01*
X145630801Y-84256265D01*
X145345852Y-84626810D01*
X145252337Y-84763500D01*
X145181584Y-84873936D01*
X145095745Y-85013680D01*
X144999541Y-85174626D01*
X144897693Y-85348669D01*
X144794925Y-85527703D01*
X144695957Y-85703622D01*
X144605512Y-85868322D01*
X144567981Y-85938250D01*
X144498729Y-86066245D01*
X144443723Y-86162016D01*
X144398919Y-86231522D01*
X144360274Y-86280717D01*
X144323745Y-86315560D01*
X144300310Y-86332617D01*
X144225699Y-86367482D01*
X144165978Y-86365434D01*
X144124309Y-86326730D01*
X144119856Y-86317878D01*
X144109234Y-86281907D01*
X144108562Y-86236568D01*
X144119260Y-86176132D01*
X144142745Y-86094868D01*
X144180435Y-85987046D01*
X144233748Y-85846937D01*
X144240982Y-85828400D01*
X144304220Y-85677761D01*
X144385316Y-85501835D01*
X144480533Y-85307463D01*
X144586140Y-85101488D01*
X144698400Y-84890752D01*
X144813581Y-84682097D01*
X144927948Y-84482364D01*
X145037767Y-84298396D01*
X145139304Y-84137034D01*
X145228825Y-84005121D01*
X145257164Y-83966461D01*
X145389684Y-83803504D01*
X145550827Y-83626808D01*
X145732669Y-83444000D01*
X145927289Y-83262706D01*
X146126763Y-83090554D01*
X146323169Y-82935170D01*
X146346833Y-82917511D01*
X146538145Y-82784543D01*
X146754854Y-82648867D01*
X146985409Y-82516839D01*
X147218263Y-82394817D01*
X147441865Y-82289158D01*
X147627416Y-82212643D01*
X147793143Y-82159375D01*
X147935217Y-82132568D01*
X148051578Y-82131953D01*
X148140169Y-82157259D01*
X148140169Y-82157259D01*
G37*
X148140169Y-82157259D02*
X148198930Y-82208220D01*
X148225804Y-82284564D01*
X148226448Y-82290962D01*
X148225293Y-82340618D01*
X148206453Y-82381410D01*
X148162153Y-82428509D01*
X148150519Y-82439149D01*
X148082073Y-82488309D01*
X147986945Y-82539659D01*
X147890155Y-82581343D01*
X147742219Y-82643578D01*
X147570276Y-82725775D01*
X147384355Y-82822723D01*
X147194484Y-82929211D01*
X147027022Y-83029826D01*
X146650184Y-83287640D01*
X146288307Y-83581463D01*
X145946732Y-83906077D01*
X145630801Y-84256265D01*
X145345852Y-84626810D01*
X145252337Y-84763500D01*
X145181584Y-84873936D01*
X145095745Y-85013680D01*
X144999541Y-85174626D01*
X144897693Y-85348669D01*
X144794925Y-85527703D01*
X144695957Y-85703622D01*
X144605512Y-85868322D01*
X144567981Y-85938250D01*
X144498729Y-86066245D01*
X144443723Y-86162016D01*
X144398919Y-86231522D01*
X144360274Y-86280717D01*
X144323745Y-86315560D01*
X144300310Y-86332617D01*
X144225699Y-86367482D01*
X144165978Y-86365434D01*
X144124309Y-86326730D01*
X144119856Y-86317878D01*
X144109234Y-86281907D01*
X144108562Y-86236568D01*
X144119260Y-86176132D01*
X144142745Y-86094868D01*
X144180435Y-85987046D01*
X144233748Y-85846937D01*
X144240982Y-85828400D01*
X144304220Y-85677761D01*
X144385316Y-85501835D01*
X144480533Y-85307463D01*
X144586140Y-85101488D01*
X144698400Y-84890752D01*
X144813581Y-84682097D01*
X144927948Y-84482364D01*
X145037767Y-84298396D01*
X145139304Y-84137034D01*
X145228825Y-84005121D01*
X145257164Y-83966461D01*
X145389684Y-83803504D01*
X145550827Y-83626808D01*
X145732669Y-83444000D01*
X145927289Y-83262706D01*
X146126763Y-83090554D01*
X146323169Y-82935170D01*
X146346833Y-82917511D01*
X146538145Y-82784543D01*
X146754854Y-82648867D01*
X146985409Y-82516839D01*
X147218263Y-82394817D01*
X147441865Y-82289158D01*
X147627416Y-82212643D01*
X147793143Y-82159375D01*
X147935217Y-82132568D01*
X148051578Y-82131953D01*
X148140169Y-82157259D01*
G36*
X160484670Y-64570760D02*
G01*
X160493963Y-64575124D01*
X160499989Y-64587586D01*
X160502490Y-64612451D01*
X160501206Y-64654024D01*
X160495878Y-64716609D01*
X160486248Y-64804513D01*
X160472057Y-64922038D01*
X160453045Y-65073492D01*
X160432250Y-65237250D01*
X160353809Y-65967358D01*
X160303830Y-66702770D01*
X160282254Y-67448821D01*
X160289021Y-68210847D01*
X160324072Y-68994182D01*
X160381933Y-69745750D01*
X160468076Y-70533957D01*
X160584157Y-71343455D01*
X160730486Y-72175972D01*
X160907373Y-73033237D01*
X161115126Y-73916979D01*
X161162703Y-74106084D01*
X161217442Y-74321566D01*
X161262386Y-74499762D01*
X161298247Y-74644394D01*
X161325737Y-74759186D01*
X161345570Y-74847858D01*
X161358456Y-74914134D01*
X161365109Y-74961736D01*
X161366242Y-74994387D01*
X161362565Y-75015809D01*
X161354793Y-75029724D01*
X161343636Y-75039855D01*
X161341678Y-75041305D01*
X161311671Y-75058383D01*
X161275622Y-75065720D01*
X161225322Y-75062671D01*
X161152558Y-75048594D01*
X161049118Y-75022846D01*
X161025042Y-75016507D01*
X160966459Y-74999397D01*
X160872724Y-74969987D01*
X160748672Y-74929878D01*
X160599135Y-74880671D01*
X160428950Y-74823969D01*
X160242948Y-74761372D01*
X160045964Y-74694482D01*
X159842833Y-74624900D01*
X159839708Y-74623825D01*
X159621935Y-74548956D01*
X159372439Y-74463302D01*
X159099570Y-74369722D01*
X158811681Y-74271078D01*
X158517120Y-74170227D01*
X158224240Y-74070032D01*
X157941391Y-73973351D01*
X157676925Y-73883045D01*
X157618083Y-73862968D01*
X157312178Y-73758379D01*
X157016412Y-73656811D01*
X156733722Y-73559295D01*
X156467044Y-73466859D01*
X156219314Y-73380536D01*
X155993469Y-73301354D01*
X155792445Y-73230345D01*
X155619179Y-73168537D01*
X155476606Y-73116963D01*
X155367664Y-73076651D01*
X155295288Y-73048631D01*
X155285142Y-73044461D01*
X155210102Y-73013107D01*
X155221009Y-72882262D01*
X155237975Y-72776192D01*
X155273234Y-72636370D01*
X155325329Y-72466490D01*
X155392801Y-72270242D01*
X155474192Y-72051318D01*
X155568043Y-71813410D01*
X155672897Y-71560210D01*
X155787295Y-71295410D01*
X155909779Y-71022702D01*
X156038890Y-70745776D01*
X156173171Y-70468326D01*
X156180043Y-70454408D01*
X156620212Y-69608828D01*
X157092929Y-68787049D01*
X157596964Y-67990922D01*
X158131083Y-67222301D01*
X158694055Y-66483038D01*
X159284650Y-65774986D01*
X159310662Y-65745250D01*
X159417034Y-65625804D01*
X159533683Y-65498152D01*
X159657013Y-65365933D01*
X159783426Y-65232785D01*
X159909328Y-65102345D01*
X160031120Y-64978252D01*
X160145206Y-64864144D01*
X160247990Y-64763658D01*
X160335874Y-64680433D01*
X160405263Y-64618106D01*
X160452560Y-64580316D01*
X160472369Y-64570189D01*
X160484670Y-64570760D01*
X160484670Y-64570760D01*
G37*
X160484670Y-64570760D02*
X160493963Y-64575124D01*
X160499989Y-64587586D01*
X160502490Y-64612451D01*
X160501206Y-64654024D01*
X160495878Y-64716609D01*
X160486248Y-64804513D01*
X160472057Y-64922038D01*
X160453045Y-65073492D01*
X160432250Y-65237250D01*
X160353809Y-65967358D01*
X160303830Y-66702770D01*
X160282254Y-67448821D01*
X160289021Y-68210847D01*
X160324072Y-68994182D01*
X160381933Y-69745750D01*
X160468076Y-70533957D01*
X160584157Y-71343455D01*
X160730486Y-72175972D01*
X160907373Y-73033237D01*
X161115126Y-73916979D01*
X161162703Y-74106084D01*
X161217442Y-74321566D01*
X161262386Y-74499762D01*
X161298247Y-74644394D01*
X161325737Y-74759186D01*
X161345570Y-74847858D01*
X161358456Y-74914134D01*
X161365109Y-74961736D01*
X161366242Y-74994387D01*
X161362565Y-75015809D01*
X161354793Y-75029724D01*
X161343636Y-75039855D01*
X161341678Y-75041305D01*
X161311671Y-75058383D01*
X161275622Y-75065720D01*
X161225322Y-75062671D01*
X161152558Y-75048594D01*
X161049118Y-75022846D01*
X161025042Y-75016507D01*
X160966459Y-74999397D01*
X160872724Y-74969987D01*
X160748672Y-74929878D01*
X160599135Y-74880671D01*
X160428950Y-74823969D01*
X160242948Y-74761372D01*
X160045964Y-74694482D01*
X159842833Y-74624900D01*
X159839708Y-74623825D01*
X159621935Y-74548956D01*
X159372439Y-74463302D01*
X159099570Y-74369722D01*
X158811681Y-74271078D01*
X158517120Y-74170227D01*
X158224240Y-74070032D01*
X157941391Y-73973351D01*
X157676925Y-73883045D01*
X157618083Y-73862968D01*
X157312178Y-73758379D01*
X157016412Y-73656811D01*
X156733722Y-73559295D01*
X156467044Y-73466859D01*
X156219314Y-73380536D01*
X155993469Y-73301354D01*
X155792445Y-73230345D01*
X155619179Y-73168537D01*
X155476606Y-73116963D01*
X155367664Y-73076651D01*
X155295288Y-73048631D01*
X155285142Y-73044461D01*
X155210102Y-73013107D01*
X155221009Y-72882262D01*
X155237975Y-72776192D01*
X155273234Y-72636370D01*
X155325329Y-72466490D01*
X155392801Y-72270242D01*
X155474192Y-72051318D01*
X155568043Y-71813410D01*
X155672897Y-71560210D01*
X155787295Y-71295410D01*
X155909779Y-71022702D01*
X156038890Y-70745776D01*
X156173171Y-70468326D01*
X156180043Y-70454408D01*
X156620212Y-69608828D01*
X157092929Y-68787049D01*
X157596964Y-67990922D01*
X158131083Y-67222301D01*
X158694055Y-66483038D01*
X159284650Y-65774986D01*
X159310662Y-65745250D01*
X159417034Y-65625804D01*
X159533683Y-65498152D01*
X159657013Y-65365933D01*
X159783426Y-65232785D01*
X159909328Y-65102345D01*
X160031120Y-64978252D01*
X160145206Y-64864144D01*
X160247990Y-64763658D01*
X160335874Y-64680433D01*
X160405263Y-64618106D01*
X160452560Y-64580316D01*
X160472369Y-64570189D01*
X160484670Y-64570760D01*
G36*
X150504175Y-70143787D02*
G01*
X150515879Y-70172767D01*
X150516666Y-70194475D01*
X150511494Y-70231450D01*
X150497047Y-70302791D01*
X150474932Y-70401952D01*
X150446756Y-70522389D01*
X150414126Y-70657555D01*
X150378649Y-70800905D01*
X150341930Y-70945894D01*
X150305576Y-71085976D01*
X150271195Y-71214607D01*
X150240392Y-71325240D01*
X150231950Y-71354417D01*
X150140694Y-71665953D01*
X150060341Y-71939324D01*
X149990045Y-72177035D01*
X149928960Y-72381592D01*
X149876239Y-72555499D01*
X149831037Y-72701263D01*
X149792507Y-72821388D01*
X149759803Y-72918379D01*
X149732080Y-72994742D01*
X149708491Y-73052982D01*
X149688190Y-73095605D01*
X149670330Y-73125115D01*
X149654067Y-73144018D01*
X149638554Y-73154819D01*
X149622944Y-73160023D01*
X149622091Y-73160192D01*
X149591066Y-73161668D01*
X149585333Y-73157604D01*
X149590837Y-73133846D01*
X149606621Y-73073262D01*
X149631594Y-72979804D01*
X149664665Y-72857424D01*
X149704741Y-72710072D01*
X149750731Y-72541701D01*
X149801544Y-72356263D01*
X149856087Y-72157709D01*
X149913270Y-71949990D01*
X149972001Y-71737058D01*
X150031188Y-71522865D01*
X150089739Y-71311362D01*
X150146564Y-71106502D01*
X150200570Y-70912234D01*
X150250666Y-70732512D01*
X150295760Y-70571287D01*
X150334762Y-70432510D01*
X150366578Y-70320133D01*
X150390118Y-70238108D01*
X150404290Y-70190386D01*
X150407943Y-70179667D01*
X150442016Y-70150748D01*
X150471203Y-70141153D01*
X150504175Y-70143787D01*
X150504175Y-70143787D01*
G37*
X150504175Y-70143787D02*
X150515879Y-70172767D01*
X150516666Y-70194475D01*
X150511494Y-70231450D01*
X150497047Y-70302791D01*
X150474932Y-70401952D01*
X150446756Y-70522389D01*
X150414126Y-70657555D01*
X150378649Y-70800905D01*
X150341930Y-70945894D01*
X150305576Y-71085976D01*
X150271195Y-71214607D01*
X150240392Y-71325240D01*
X150231950Y-71354417D01*
X150140694Y-71665953D01*
X150060341Y-71939324D01*
X149990045Y-72177035D01*
X149928960Y-72381592D01*
X149876239Y-72555499D01*
X149831037Y-72701263D01*
X149792507Y-72821388D01*
X149759803Y-72918379D01*
X149732080Y-72994742D01*
X149708491Y-73052982D01*
X149688190Y-73095605D01*
X149670330Y-73125115D01*
X149654067Y-73144018D01*
X149638554Y-73154819D01*
X149622944Y-73160023D01*
X149622091Y-73160192D01*
X149591066Y-73161668D01*
X149585333Y-73157604D01*
X149590837Y-73133846D01*
X149606621Y-73073262D01*
X149631594Y-72979804D01*
X149664665Y-72857424D01*
X149704741Y-72710072D01*
X149750731Y-72541701D01*
X149801544Y-72356263D01*
X149856087Y-72157709D01*
X149913270Y-71949990D01*
X149972001Y-71737058D01*
X150031188Y-71522865D01*
X150089739Y-71311362D01*
X150146564Y-71106502D01*
X150200570Y-70912234D01*
X150250666Y-70732512D01*
X150295760Y-70571287D01*
X150334762Y-70432510D01*
X150366578Y-70320133D01*
X150390118Y-70238108D01*
X150404290Y-70190386D01*
X150407943Y-70179667D01*
X150442016Y-70150748D01*
X150471203Y-70141153D01*
X150504175Y-70143787D01*
G36*
X128461086Y-63482036D02*
G01*
X128481517Y-63531050D01*
X128490481Y-63618770D01*
X128489226Y-63746061D01*
X128479000Y-63913788D01*
X128470828Y-64014074D01*
X128461212Y-64133248D01*
X128453615Y-64247459D01*
X128447921Y-64362876D01*
X128444015Y-64485668D01*
X128441781Y-64622003D01*
X128441104Y-64778049D01*
X128441867Y-64959976D01*
X128443956Y-65173950D01*
X128446021Y-65336991D01*
X128452091Y-65704529D01*
X128460410Y-66035757D01*
X128471830Y-66336674D01*
X128487204Y-66613281D01*
X128507383Y-66871578D01*
X128533220Y-67117563D01*
X128565566Y-67357238D01*
X128605276Y-67596603D01*
X128653199Y-67841656D01*
X128710189Y-68098398D01*
X128777098Y-68372829D01*
X128854779Y-68670949D01*
X128944082Y-68998758D01*
X128989090Y-69160424D01*
X129021089Y-69280640D01*
X129049656Y-69398818D01*
X129072133Y-69503183D01*
X129085860Y-69581960D01*
X129087729Y-69597380D01*
X129094027Y-69670932D01*
X129092016Y-69714873D01*
X129078765Y-69741582D01*
X129051341Y-69763438D01*
X129047858Y-69765734D01*
X128998234Y-69785640D01*
X128916753Y-69804235D01*
X128813879Y-69819216D01*
X128796458Y-69821090D01*
X128603362Y-69844816D01*
X128374379Y-69879719D01*
X128114158Y-69924777D01*
X127827350Y-69978968D01*
X127518602Y-70041269D01*
X127192566Y-70110658D01*
X126853891Y-70186111D01*
X126507226Y-70266606D01*
X126157222Y-70351120D01*
X125808527Y-70438632D01*
X125465792Y-70528118D01*
X125133667Y-70618556D01*
X125001625Y-70655678D01*
X124863060Y-70694538D01*
X124736396Y-70729157D01*
X124627854Y-70757905D01*
X124543657Y-70779155D01*
X124490025Y-70791279D01*
X124474810Y-70793500D01*
X124452110Y-70789592D01*
X124441329Y-70771365D01*
X124440140Y-70729068D01*
X124444839Y-70667933D01*
X124456805Y-70600024D01*
X124482582Y-70498195D01*
X124520354Y-70367872D01*
X124568307Y-70214480D01*
X124624627Y-70043444D01*
X124687498Y-69860189D01*
X124755106Y-69670139D01*
X124825636Y-69478720D01*
X124897274Y-69291357D01*
X124948851Y-69161191D01*
X125193361Y-68579772D01*
X125453304Y-68009871D01*
X125725125Y-67458610D01*
X126005264Y-66933113D01*
X126290166Y-66440504D01*
X126383478Y-66288215D01*
X126457317Y-66168884D01*
X126530829Y-66049021D01*
X126598058Y-65938412D01*
X126653049Y-65846839D01*
X126681735Y-65798167D01*
X126749541Y-65687247D01*
X126839351Y-65549110D01*
X126946886Y-65389721D01*
X127067864Y-65215046D01*
X127198003Y-65031052D01*
X127333023Y-64843703D01*
X127468642Y-64658966D01*
X127600580Y-64482807D01*
X127724555Y-64321191D01*
X127836286Y-64180085D01*
X127889273Y-64115417D01*
X127965866Y-64020835D01*
X128047959Y-63915450D01*
X128121504Y-63817409D01*
X128143235Y-63787334D01*
X128239726Y-63655772D01*
X128318508Y-63558598D01*
X128380830Y-63496674D01*
X128427940Y-63470866D01*
X128461086Y-63482036D01*
X128461086Y-63482036D01*
G37*
X128461086Y-63482036D02*
X128481517Y-63531050D01*
X128490481Y-63618770D01*
X128489226Y-63746061D01*
X128479000Y-63913788D01*
X128470828Y-64014074D01*
X128461212Y-64133248D01*
X128453615Y-64247459D01*
X128447921Y-64362876D01*
X128444015Y-64485668D01*
X128441781Y-64622003D01*
X128441104Y-64778049D01*
X128441867Y-64959976D01*
X128443956Y-65173950D01*
X128446021Y-65336991D01*
X128452091Y-65704529D01*
X128460410Y-66035757D01*
X128471830Y-66336674D01*
X128487204Y-66613281D01*
X128507383Y-66871578D01*
X128533220Y-67117563D01*
X128565566Y-67357238D01*
X128605276Y-67596603D01*
X128653199Y-67841656D01*
X128710189Y-68098398D01*
X128777098Y-68372829D01*
X128854779Y-68670949D01*
X128944082Y-68998758D01*
X128989090Y-69160424D01*
X129021089Y-69280640D01*
X129049656Y-69398818D01*
X129072133Y-69503183D01*
X129085860Y-69581960D01*
X129087729Y-69597380D01*
X129094027Y-69670932D01*
X129092016Y-69714873D01*
X129078765Y-69741582D01*
X129051341Y-69763438D01*
X129047858Y-69765734D01*
X128998234Y-69785640D01*
X128916753Y-69804235D01*
X128813879Y-69819216D01*
X128796458Y-69821090D01*
X128603362Y-69844816D01*
X128374379Y-69879719D01*
X128114158Y-69924777D01*
X127827350Y-69978968D01*
X127518602Y-70041269D01*
X127192566Y-70110658D01*
X126853891Y-70186111D01*
X126507226Y-70266606D01*
X126157222Y-70351120D01*
X125808527Y-70438632D01*
X125465792Y-70528118D01*
X125133667Y-70618556D01*
X125001625Y-70655678D01*
X124863060Y-70694538D01*
X124736396Y-70729157D01*
X124627854Y-70757905D01*
X124543657Y-70779155D01*
X124490025Y-70791279D01*
X124474810Y-70793500D01*
X124452110Y-70789592D01*
X124441329Y-70771365D01*
X124440140Y-70729068D01*
X124444839Y-70667933D01*
X124456805Y-70600024D01*
X124482582Y-70498195D01*
X124520354Y-70367872D01*
X124568307Y-70214480D01*
X124624627Y-70043444D01*
X124687498Y-69860189D01*
X124755106Y-69670139D01*
X124825636Y-69478720D01*
X124897274Y-69291357D01*
X124948851Y-69161191D01*
X125193361Y-68579772D01*
X125453304Y-68009871D01*
X125725125Y-67458610D01*
X126005264Y-66933113D01*
X126290166Y-66440504D01*
X126383478Y-66288215D01*
X126457317Y-66168884D01*
X126530829Y-66049021D01*
X126598058Y-65938412D01*
X126653049Y-65846839D01*
X126681735Y-65798167D01*
X126749541Y-65687247D01*
X126839351Y-65549110D01*
X126946886Y-65389721D01*
X127067864Y-65215046D01*
X127198003Y-65031052D01*
X127333023Y-64843703D01*
X127468642Y-64658966D01*
X127600580Y-64482807D01*
X127724555Y-64321191D01*
X127836286Y-64180085D01*
X127889273Y-64115417D01*
X127965866Y-64020835D01*
X128047959Y-63915450D01*
X128121504Y-63817409D01*
X128143235Y-63787334D01*
X128239726Y-63655772D01*
X128318508Y-63558598D01*
X128380830Y-63496674D01*
X128427940Y-63470866D01*
X128461086Y-63482036D01*
G36*
X135296887Y-51330165D02*
G01*
X135314123Y-51362956D01*
X135324312Y-51432255D01*
X135327199Y-51532786D01*
X135322526Y-51659270D01*
X135316638Y-51738035D01*
X135300436Y-51890176D01*
X135274969Y-52079701D01*
X135240123Y-52307322D01*
X135195780Y-52573751D01*
X135141827Y-52879698D01*
X135078147Y-53225876D01*
X135056163Y-53342797D01*
X135001190Y-53645215D01*
X134955407Y-53924543D01*
X134917383Y-54192434D01*
X134885687Y-54460543D01*
X134858886Y-54740523D01*
X134835551Y-55044028D01*
X134822352Y-55246584D01*
X134812863Y-55397729D01*
X134803586Y-55539925D01*
X134795011Y-55666080D01*
X134787629Y-55769102D01*
X134781928Y-55841901D01*
X134779210Y-55871000D01*
X134775073Y-55918274D01*
X134769035Y-56000822D01*
X134761555Y-56111648D01*
X134753098Y-56243760D01*
X134744123Y-56390163D01*
X134737281Y-56506000D01*
X134704078Y-57136482D01*
X134677424Y-57769103D01*
X134657306Y-58399764D01*
X134643714Y-59024365D01*
X134636634Y-59638807D01*
X134636054Y-60238990D01*
X134641961Y-60820816D01*
X134654344Y-61380183D01*
X134673190Y-61912994D01*
X134698487Y-62415149D01*
X134730222Y-62882547D01*
X134757409Y-63199045D01*
X134772939Y-63354426D01*
X134790213Y-63512129D01*
X134808479Y-63666669D01*
X134826987Y-63812560D01*
X134844982Y-63944318D01*
X134861715Y-64056457D01*
X134876431Y-64143494D01*
X134888379Y-64199943D01*
X134896807Y-64220319D01*
X134897432Y-64220159D01*
X134905530Y-64228720D01*
X134902278Y-64251169D01*
X134900821Y-64300837D01*
X134911686Y-64388147D01*
X134934223Y-64510445D01*
X134967783Y-64665074D01*
X135011716Y-64849380D01*
X135065371Y-65060708D01*
X135128099Y-65296404D01*
X135199251Y-65553811D01*
X135278175Y-65830276D01*
X135343153Y-66052167D01*
X135412060Y-66284096D01*
X135471807Y-66481852D01*
X135524918Y-66651953D01*
X135573912Y-66800917D01*
X135621310Y-66935260D01*
X135669635Y-67061501D01*
X135721406Y-67186156D01*
X135779145Y-67315743D01*
X135845374Y-67456781D01*
X135922613Y-67615785D01*
X136013384Y-67799274D01*
X136038560Y-67849883D01*
X136123761Y-68019482D01*
X136207661Y-68183574D01*
X136287368Y-68336713D01*
X136359994Y-68473457D01*
X136422647Y-68588362D01*
X136472437Y-68675984D01*
X136505874Y-68730003D01*
X136580370Y-68852409D01*
X136620583Y-68950996D01*
X136626703Y-69026512D01*
X136598924Y-69079703D01*
X136596384Y-69082024D01*
X136573049Y-69099035D01*
X136542209Y-69113746D01*
X136500614Y-69126399D01*
X136445013Y-69137233D01*
X136372153Y-69146489D01*
X136278784Y-69154407D01*
X136161655Y-69161228D01*
X136017514Y-69167192D01*
X135843110Y-69172538D01*
X135635192Y-69177509D01*
X135390509Y-69182343D01*
X135192000Y-69185836D01*
X134962730Y-69189771D01*
X134734806Y-69193766D01*
X134513925Y-69197716D01*
X134305784Y-69201514D01*
X134116080Y-69205055D01*
X133950510Y-69208235D01*
X133814771Y-69210947D01*
X133714560Y-69213088D01*
X133699750Y-69213427D01*
X133566105Y-69215760D01*
X133433771Y-69216700D01*
X133314294Y-69216259D01*
X133219218Y-69214449D01*
X133181435Y-69212870D01*
X133076452Y-69201675D01*
X133002866Y-69176996D01*
X132950151Y-69131206D01*
X132907778Y-69056675D01*
X132883764Y-68997200D01*
X132854682Y-68911936D01*
X132827519Y-68815342D01*
X132801742Y-68703921D01*
X132776819Y-68574174D01*
X132752216Y-68422602D01*
X132727401Y-68245706D01*
X132701840Y-68039989D01*
X132675002Y-67801951D01*
X132646354Y-67528094D01*
X132620637Y-67269215D01*
X132600675Y-67065637D01*
X132579382Y-66850643D01*
X132557745Y-66634041D01*
X132536749Y-66425637D01*
X132517381Y-66235241D01*
X132500624Y-66072658D01*
X132494057Y-66009834D01*
X132467411Y-65754320D01*
X132445124Y-65533703D01*
X132426812Y-65340814D01*
X132412088Y-65168484D01*
X132400566Y-65009543D01*
X132391860Y-64856823D01*
X132385583Y-64703153D01*
X132381349Y-64541365D01*
X132378773Y-64364289D01*
X132377467Y-64164756D01*
X132377046Y-63935597D01*
X132377038Y-63837527D01*
X132379845Y-63166661D01*
X132388115Y-62534801D01*
X132402069Y-61938948D01*
X132421927Y-61376099D01*
X132447910Y-60843256D01*
X132480239Y-60337416D01*
X132519134Y-59855579D01*
X132564817Y-59394745D01*
X132617507Y-58951912D01*
X132677426Y-58524081D01*
X132744794Y-58108249D01*
X132819832Y-57701418D01*
X132833392Y-57632813D01*
X132971342Y-56999408D01*
X133130941Y-56375917D01*
X133314076Y-55756889D01*
X133522632Y-55136877D01*
X133758495Y-54510428D01*
X134023552Y-53872095D01*
X134319689Y-53216426D01*
X134473180Y-52894458D01*
X134537998Y-52759409D01*
X134599604Y-52628730D01*
X134654491Y-52510037D01*
X134699154Y-52410949D01*
X134730085Y-52339083D01*
X134738030Y-52319134D01*
X134769484Y-52240526D01*
X134800352Y-52169952D01*
X134820812Y-52128634D01*
X134841294Y-52088033D01*
X134874327Y-52017977D01*
X134915577Y-51927830D01*
X134960710Y-51826957D01*
X134966979Y-51812768D01*
X135048629Y-51635906D01*
X135119899Y-51499303D01*
X135181246Y-51402293D01*
X135233124Y-51344212D01*
X135275986Y-51324394D01*
X135296887Y-51330165D01*
X135296887Y-51330165D01*
G37*
X135296887Y-51330165D02*
X135314123Y-51362956D01*
X135324312Y-51432255D01*
X135327199Y-51532786D01*
X135322526Y-51659270D01*
X135316638Y-51738035D01*
X135300436Y-51890176D01*
X135274969Y-52079701D01*
X135240123Y-52307322D01*
X135195780Y-52573751D01*
X135141827Y-52879698D01*
X135078147Y-53225876D01*
X135056163Y-53342797D01*
X135001190Y-53645215D01*
X134955407Y-53924543D01*
X134917383Y-54192434D01*
X134885687Y-54460543D01*
X134858886Y-54740523D01*
X134835551Y-55044028D01*
X134822352Y-55246584D01*
X134812863Y-55397729D01*
X134803586Y-55539925D01*
X134795011Y-55666080D01*
X134787629Y-55769102D01*
X134781928Y-55841901D01*
X134779210Y-55871000D01*
X134775073Y-55918274D01*
X134769035Y-56000822D01*
X134761555Y-56111648D01*
X134753098Y-56243760D01*
X134744123Y-56390163D01*
X134737281Y-56506000D01*
X134704078Y-57136482D01*
X134677424Y-57769103D01*
X134657306Y-58399764D01*
X134643714Y-59024365D01*
X134636634Y-59638807D01*
X134636054Y-60238990D01*
X134641961Y-60820816D01*
X134654344Y-61380183D01*
X134673190Y-61912994D01*
X134698487Y-62415149D01*
X134730222Y-62882547D01*
X134757409Y-63199045D01*
X134772939Y-63354426D01*
X134790213Y-63512129D01*
X134808479Y-63666669D01*
X134826987Y-63812560D01*
X134844982Y-63944318D01*
X134861715Y-64056457D01*
X134876431Y-64143494D01*
X134888379Y-64199943D01*
X134896807Y-64220319D01*
X134897432Y-64220159D01*
X134905530Y-64228720D01*
X134902278Y-64251169D01*
X134900821Y-64300837D01*
X134911686Y-64388147D01*
X134934223Y-64510445D01*
X134967783Y-64665074D01*
X135011716Y-64849380D01*
X135065371Y-65060708D01*
X135128099Y-65296404D01*
X135199251Y-65553811D01*
X135278175Y-65830276D01*
X135343153Y-66052167D01*
X135412060Y-66284096D01*
X135471807Y-66481852D01*
X135524918Y-66651953D01*
X135573912Y-66800917D01*
X135621310Y-66935260D01*
X135669635Y-67061501D01*
X135721406Y-67186156D01*
X135779145Y-67315743D01*
X135845374Y-67456781D01*
X135922613Y-67615785D01*
X136013384Y-67799274D01*
X136038560Y-67849883D01*
X136123761Y-68019482D01*
X136207661Y-68183574D01*
X136287368Y-68336713D01*
X136359994Y-68473457D01*
X136422647Y-68588362D01*
X136472437Y-68675984D01*
X136505874Y-68730003D01*
X136580370Y-68852409D01*
X136620583Y-68950996D01*
X136626703Y-69026512D01*
X136598924Y-69079703D01*
X136596384Y-69082024D01*
X136573049Y-69099035D01*
X136542209Y-69113746D01*
X136500614Y-69126399D01*
X136445013Y-69137233D01*
X136372153Y-69146489D01*
X136278784Y-69154407D01*
X136161655Y-69161228D01*
X136017514Y-69167192D01*
X135843110Y-69172538D01*
X135635192Y-69177509D01*
X135390509Y-69182343D01*
X135192000Y-69185836D01*
X134962730Y-69189771D01*
X134734806Y-69193766D01*
X134513925Y-69197716D01*
X134305784Y-69201514D01*
X134116080Y-69205055D01*
X133950510Y-69208235D01*
X133814771Y-69210947D01*
X133714560Y-69213088D01*
X133699750Y-69213427D01*
X133566105Y-69215760D01*
X133433771Y-69216700D01*
X133314294Y-69216259D01*
X133219218Y-69214449D01*
X133181435Y-69212870D01*
X133076452Y-69201675D01*
X133002866Y-69176996D01*
X132950151Y-69131206D01*
X132907778Y-69056675D01*
X132883764Y-68997200D01*
X132854682Y-68911936D01*
X132827519Y-68815342D01*
X132801742Y-68703921D01*
X132776819Y-68574174D01*
X132752216Y-68422602D01*
X132727401Y-68245706D01*
X132701840Y-68039989D01*
X132675002Y-67801951D01*
X132646354Y-67528094D01*
X132620637Y-67269215D01*
X132600675Y-67065637D01*
X132579382Y-66850643D01*
X132557745Y-66634041D01*
X132536749Y-66425637D01*
X132517381Y-66235241D01*
X132500624Y-66072658D01*
X132494057Y-66009834D01*
X132467411Y-65754320D01*
X132445124Y-65533703D01*
X132426812Y-65340814D01*
X132412088Y-65168484D01*
X132400566Y-65009543D01*
X132391860Y-64856823D01*
X132385583Y-64703153D01*
X132381349Y-64541365D01*
X132378773Y-64364289D01*
X132377467Y-64164756D01*
X132377046Y-63935597D01*
X132377038Y-63837527D01*
X132379845Y-63166661D01*
X132388115Y-62534801D01*
X132402069Y-61938948D01*
X132421927Y-61376099D01*
X132447910Y-60843256D01*
X132480239Y-60337416D01*
X132519134Y-59855579D01*
X132564817Y-59394745D01*
X132617507Y-58951912D01*
X132677426Y-58524081D01*
X132744794Y-58108249D01*
X132819832Y-57701418D01*
X132833392Y-57632813D01*
X132971342Y-56999408D01*
X133130941Y-56375917D01*
X133314076Y-55756889D01*
X133522632Y-55136877D01*
X133758495Y-54510428D01*
X134023552Y-53872095D01*
X134319689Y-53216426D01*
X134473180Y-52894458D01*
X134537998Y-52759409D01*
X134599604Y-52628730D01*
X134654491Y-52510037D01*
X134699154Y-52410949D01*
X134730085Y-52339083D01*
X134738030Y-52319134D01*
X134769484Y-52240526D01*
X134800352Y-52169952D01*
X134820812Y-52128634D01*
X134841294Y-52088033D01*
X134874327Y-52017977D01*
X134915577Y-51927830D01*
X134960710Y-51826957D01*
X134966979Y-51812768D01*
X135048629Y-51635906D01*
X135119899Y-51499303D01*
X135181246Y-51402293D01*
X135233124Y-51344212D01*
X135275986Y-51324394D01*
X135296887Y-51330165D01*
G36*
X134726333Y-57553750D02*
G01*
X134715750Y-57564334D01*
X134705166Y-57553750D01*
X134715750Y-57543167D01*
X134726333Y-57553750D01*
X134726333Y-57553750D01*
G37*
X134726333Y-57553750D02*
X134715750Y-57564334D01*
X134705166Y-57553750D01*
X134715750Y-57543167D01*
X134726333Y-57553750D01*
G36*
X135375444Y-51708222D02*
G01*
X135377977Y-51733342D01*
X135375444Y-51736445D01*
X135362860Y-51733539D01*
X135361333Y-51722334D01*
X135369077Y-51704911D01*
X135375444Y-51708222D01*
X135375444Y-51708222D01*
G37*
X135375444Y-51708222D02*
X135377977Y-51733342D01*
X135375444Y-51736445D01*
X135362860Y-51733539D01*
X135361333Y-51722334D01*
X135369077Y-51704911D01*
X135375444Y-51708222D01*
D11*
X157302200Y-113614200D03*
X159842200Y-113614200D03*
X159842200Y-116154200D03*
D12*
X157302200Y-116154200D03*
X154762200Y-113614200D03*
X154762200Y-116154200D03*
M02*
